<svg width="1728" height="121" viewBox="0 0 1728 121" fill="none" xmlns="http://www.w3.org/2000/svg">
<path opacity="0.25" d="M1728 121L1728.12 68.4948C1659.36 43.3141 1579.03 32.0054 1500.67 36.7353C1399.34 42.8263 1304.27 74.5177 1202.78 79.2703C1096.44 84.2157 990.369 60.1239 888.666 39.2761C788.964 18.8593 689.578 11.0555 587.164 24.4399C535.092 31.2455 486.534 44.6752 436.68 57.7193C303.199 92.6433 125.243 137.209 0.135564 61.485L0.000190905 121L1728 121Z" fill="#120C26"/>
<path opacity="0.5" d="M1727.98 121L1728.02 103.607C1709.35 80.384 1688.32 58.4478 1659.49 41.7372C1585.11 -1.40906 1490.66 -1.11203 1404.82 20.2521C1359.94 31.4182 1318.23 48.9319 1275.6 64.0364C1216.62 84.9385 1153.47 114.641 1087.08 118.679C1034.86 121.814 985.007 108.316 945.175 83.9594C899.49 56.0276 855.59 15.7526 796.132 3.65144C737.926 -8.21873 678.973 11.0112 624.526 30.3621C570.079 49.713 516.199 73.2663 456.055 77.7217C370.03 84.1574 292.991 52.5513 212.939 34.9935C169.473 25.4666 127.995 28.2059 87.5116 43.2443C55.1854 55.2245 18.3247 72.8703 0.0531016 97.4137L-0.000548176 121L1727.98 121Z" fill="#220F3B"/>
<path d="M1728 121L1728 115.414C1512.13 62.4594 1275.75 50.2353 1042.83 78.7614C980.904 86.342 921.526 98.7248 859.055 105.015C774.091 113.578 697.091 92.8707 620.668 69.8911C535.822 44.3812 452.211 26.5015 358.32 31.7007C233.713 38.6462 109.954 77.0548 0.00301261 115.85L0.000236511 121L1728 121Z" fill="#1E0E32"/>
</svg>
