<svg width="1728" height="77" viewBox="0 0 1728 77" fill="none" xmlns="http://www.w3.org/2000/svg">
<path opacity="0.5" d="M1721.09 31V53L1704.68 64L1688.28 53V31L1704.68 20L1721.09 31ZM1677.05 6V17L1668.41 22L1659.78 17V6L1668.41 0L1677.05 6Z" fill="#230B41"/>
<path opacity="0.75" d="M1693.46 25V41L1681.37 49L1669.28 41V25L1681.37 17L1693.46 25ZM1700.37 8V16L1694.32 20L1689.14 16V8L1694.32 4L1700.37 8Z" fill="#230B41"/>
<path opacity="0.5" d="M1615.74 31V53L1632.14 64L1648.55 53V31L1632.14 20L1615.74 31Z" fill="#230B41"/>
<path opacity="0.75" d="M1643.37 25V41L1655.46 49L1667.55 41V25L1655.46 17L1643.37 25ZM1636.46 8V16L1642.51 20L1648.55 16V8L1642.51 4L1636.46 8Z" fill="#230B41"/>
<path opacity="0.5" d="M1601.92 31V53L1585.51 64L1569.1 53V31L1585.51 20L1601.92 31ZM1557.01 6V17L1549.24 22L1540.61 17V6L1549.24 0L1557.01 6Z" fill="#230B41"/>
<path opacity="0.75" d="M1574.29 25V41L1562.2 49L1550.11 41V25L1562.2 17L1574.29 25ZM1581.19 8V16L1575.15 20L1569.1 16V8L1575.15 4L1581.19 8Z" fill="#230B41"/>
<path opacity="0.5" d="M1496.56 31V53L1512.97 64L1529.38 53V31L1512.97 20L1496.56 31Z" fill="#230B41"/>
<path opacity="0.75" d="M1524.2 25V41L1536.29 49L1548.38 41V25L1536.29 17L1524.2 25ZM1517.29 8V16L1522.47 20L1528.52 16V8L1522.47 4L1517.29 8Z" fill="#230B41"/>
<path opacity="0.5" d="M1482.75 31V53L1466.34 64L1449.93 53V31L1466.34 20L1482.75 31ZM1437.84 6V17L1430.07 22L1421.43 17V6L1430.07 0L1437.84 6Z" fill="#230B41"/>
<path opacity="0.75" d="M1455.11 25V41L1443.02 49L1430.93 41V25L1443.02 17L1455.11 25ZM1462.02 8V16L1455.98 20L1449.93 16V8L1455.98 4L1462.02 8Z" fill="#230B41"/>
<path opacity="0.5" d="M1376.53 31V53L1392.94 64L1410.21 53V31L1392.94 20L1376.53 31Z" fill="#230B41"/>
<path opacity="0.75" d="M1404.16 25V41L1416.25 49L1429.21 41V25L1416.25 17L1404.16 25ZM1397.25 8V16L1403.3 20L1409.34 16V8L1403.3 4L1397.25 8Z" fill="#230B41"/>
<path opacity="0.5" d="M1363.57 31V53L1347.17 64L1329.89 53V31L1347.17 20L1363.57 31ZM1318.67 6V17L1310.03 22L1302.26 17V6L1310.03 0L1318.67 6Z" fill="#230B41"/>
<path opacity="0.75" d="M1335.94 25V41L1323.85 49L1310.9 41V25L1323.85 17L1335.94 25ZM1342.85 8V16L1336.8 20L1330.76 16V8L1336.8 4L1342.85 8Z" fill="#230B41"/>
<path opacity="0.5" d="M1257.36 31V53L1273.76 64L1290.17 53V31L1273.76 20L1257.36 31Z" fill="#230B41"/>
<path opacity="0.75" d="M1284.99 25V41L1297.08 49L1309.17 41V25L1297.08 17L1284.99 25ZM1278.08 8V16L1284.13 20L1290.17 16V8L1284.13 4L1278.08 8Z" fill="#230B41"/>
<path opacity="0.5" d="M1244.4 31V53L1227.13 64L1210.72 53V31L1227.13 20L1244.4 31ZM1199.5 6V17L1190.86 22L1183.09 17V6L1190.86 0L1199.5 6Z" fill="#230B41"/>
<path opacity="0.75" d="M1215.9 25V41L1203.81 49L1191.72 41V25L1203.81 17L1215.9 25ZM1222.81 8V16L1217.63 20L1211.59 16V8L1217.63 4L1222.81 8Z" fill="#230B41"/>
<path opacity="0.5" d="M1138.18 31V53L1154.59 64L1171 53V31L1154.59 20L1138.18 31Z" fill="#230B41"/>
<path opacity="0.75" d="M1165.82 25V41L1177.91 49L1190 41V25L1177.91 17L1165.82 25ZM1158.91 8V16L1164.95 20L1171 16V8L1164.95 4L1158.91 8Z" fill="#230B41"/>
<path opacity="0.5" d="M1124.37 31V53L1107.96 64L1091.55 53V31L1107.96 20L1124.37 31ZM1080.32 6V17L1071.69 22L1063.05 17V6L1071.69 0L1080.32 6Z" fill="#230B41"/>
<path opacity="0.75" d="M1096.73 25V41L1084.64 49L1072.55 41V25L1084.64 17L1096.73 25ZM1103.64 8V16L1097.6 20L1091.55 16V8L1097.6 4L1103.64 8Z" fill="#230B41"/>
<path opacity="0.5" d="M1019.01 31V53L1035.42 64L1051.83 53V31L1035.42 20L1019.01 31Z" fill="#230B41"/>
<path opacity="0.75" d="M1046.64 25V41L1058.73 49L1070.82 41V25L1058.73 17L1046.64 25ZM1039.74 8V16L1045.78 20L1051.83 16V8L1045.78 4L1039.74 8Z" fill="#230B41"/>
<path opacity="0.5" d="M1005.19 31V53L988.785 64L972.378 53V31L988.785 20L1005.19 31ZM960.288 6V17L952.516 22L943.88 17V6L952.516 0L960.288 6Z" fill="#230B41"/>
<path opacity="0.75" d="M977.559 25V41L965.469 49L953.379 41V25L965.469 17L977.559 25ZM984.467 8V16L978.422 20L972.377 16V8L978.422 4L984.467 8Z" fill="#230B41"/>
<path opacity="0.5" d="M898.975 31V53L916.246 64L932.654 53V31L916.246 20L898.975 31Z" fill="#230B41"/>
<path opacity="0.75" d="M927.472 25V41L939.562 49L951.652 41V25L939.562 17L927.472 25ZM920.563 8V16L925.745 20L931.79 16V8L925.745 4L920.563 8Z" fill="#230B41"/>
<path opacity="0.5" d="M886.021 31V53L869.614 64L852.342 53V31L869.614 20L886.021 31ZM841.116 6V17L833.344 22L824.708 17V6L833.344 0L841.116 6Z" fill="#230B41"/>
<path opacity="0.75" d="M858.387 25V41L846.297 49L834.207 41V25L846.297 17L858.387 25ZM865.295 8V16L859.251 20L853.206 16V8L859.251 4L865.295 8Z" fill="#230B41"/>
<path opacity="0.5" d="M779.802 31V53L796.21 64L813.481 53V31L796.21 20L779.802 31Z" fill="#230B41"/>
<path opacity="0.75" d="M807.436 25V41L819.526 49L832.479 41V25L819.526 17L807.436 25ZM800.527 8V16L806.572 20L812.617 16V8L806.572 4L800.527 8Z" fill="#230B41"/>
<path opacity="0.5" d="M766.848 31V53L749.577 64L733.169 53V31L749.577 20L766.848 31ZM721.943 6V17L713.307 22L705.535 17V6L713.307 0L721.943 6Z" fill="#230B41"/>
<path opacity="0.75" d="M739.214 25V41L726.261 49L714.171 41V25L726.261 17L739.214 25ZM746.123 8V16L740.078 20L734.033 16V8L740.078 4L746.123 8Z" fill="#230B41"/>
<path opacity="0.5" d="M660.63 31V53L677.038 64L693.445 53V31L677.038 20L660.63 31Z" fill="#230B41"/>
<path opacity="0.75" d="M688.264 25V41L700.354 49L712.444 41V25L700.354 17L688.264 25ZM681.355 8V16L687.4 20L693.445 16V8L687.4 4L681.355 8Z" fill="#230B41"/>
<path opacity="0.5" d="M646.813 31V53L630.405 64L613.997 53V31L630.405 20L646.813 31ZM602.771 6V17L594.135 22L586.363 17V6L594.135 0L602.771 6Z" fill="#230B41"/>
<path opacity="0.75" d="M619.178 25V41L607.088 49L594.998 41V25L607.088 17L619.178 25ZM626.087 8V16L620.042 20L614.86 16V8L620.042 4L626.087 8Z" fill="#230B41"/>
<path opacity="0.5" d="M541.457 31V53L557.865 64L574.273 53V31L557.865 20L541.457 31Z" fill="#230B41"/>
<path opacity="0.75" d="M569.091 25V41L581.181 49L593.271 41V25L581.181 17L569.091 25ZM562.183 8V16L568.228 20L574.273 16V8L568.228 4L562.183 8Z" fill="#230B41"/>
<path opacity="0.5" d="M527.64 31V53L511.233 64L494.825 53V31L511.233 20L527.64 31ZM483.599 6V17L474.963 22L466.327 17V6L474.963 0L483.599 6Z" fill="#230B41"/>
<path opacity="0.75" d="M500.006 25V41L487.916 49L475.826 41V25L487.916 17L500.006 25ZM506.915 8V16L500.87 20L494.825 16V8L500.87 4L506.915 8Z" fill="#230B41"/>
<path opacity="0.5" d="M422.285 31V53L438.693 64L455.101 53V31L438.693 20L422.285 31Z" fill="#230B41"/>
<path opacity="0.75" d="M449.919 25V41L462.009 49L474.099 41V25L462.009 17L449.919 25ZM443.011 8V16L449.056 20L454.237 16V8L449.056 4L443.011 8Z" fill="#230B41"/>
<path opacity="0.5" d="M408.468 31V53L392.06 64L375.652 53V31L392.06 20L408.468 31ZM363.562 6V17L355.79 22L347.154 17V6L355.79 0L363.562 6Z" fill="#230B41"/>
<path opacity="0.75" d="M380.833 25V41L368.743 49L356.653 41V25L368.743 17L380.833 25ZM387.742 8V16L381.697 20L375.652 16V8L381.697 4L387.742 8Z" fill="#230B41"/>
<path opacity="0.5" d="M302.249 31V53L319.52 64L335.928 53V31L319.52 20L302.249 31Z" fill="#230B41"/>
<path opacity="0.75" d="M329.883 25V41L342.837 49L354.927 41V25L342.837 17L329.883 25ZM322.975 8V16L329.02 20L335.065 16V8L329.02 4L322.975 8Z" fill="#230B41"/>
<path opacity="0.5" d="M289.296 31V53L272.888 64L255.617 53V31L272.888 20L289.296 31ZM244.39 6V17L235.755 22L227.982 17V6L235.755 0L244.39 6Z" fill="#230B41"/>
<path opacity="0.75" d="M261.661 25V41L249.571 49L237.481 41V25L249.571 17L261.661 25ZM268.57 8V16L262.525 20L256.48 16V8L262.525 4L268.57 8Z" fill="#230B41"/>
<path opacity="0.5" d="M183.076 31V53L199.484 64L216.755 53V31L199.484 20L183.076 31Z" fill="#230B41"/>
<path opacity="0.75" d="M210.71 25V41L222.8 49L234.89 41V25L222.8 17L210.71 25ZM203.802 8V16L209.847 20L215.892 16V8L209.847 4L203.802 8Z" fill="#230B41"/>
<path opacity="0.5" d="M170.123 31V53L152.852 64L136.444 53V31L152.852 20L170.123 31ZM125.217 6V17L116.582 22L108.81 17V6L116.582 0L125.217 6Z" fill="#230B41"/>
<path opacity="0.75" d="M141.625 25V41L129.535 49L117.445 41V25L129.535 17L141.625 25ZM149.397 8V16L143.352 20L137.307 16V8L143.352 4L149.397 8Z" fill="#230B41"/>
<path opacity="0.5" d="M63.9043 31V53L80.3121 64L96.7199 53V31L80.3121 20L63.9043 31Z" fill="#230B41"/>
<path opacity="0.3" d="M45.7695 9V24L56.9959 31L68.2223 24V9L56.9959 1L45.7695 9ZM164.942 9V24L176.168 31L187.395 24V9L176.168 1L164.942 9ZM284.978 9V24L296.204 31L307.431 24V9L296.204 1L284.978 9ZM404.15 9V24L415.377 31L426.603 24V9L415.377 1L404.15 9ZM523.323 9V24L534.549 31L545.776 24V9L534.549 1L523.323 9ZM642.495 9V24L653.722 31L664.948 24V9L653.722 1L642.495 9ZM762.531 9V24L772.894 31L784.12 24V9L772.894 1L762.531 9ZM881.704 9V24L892.93 31L904.156 24V9L892.93 1L881.704 9ZM1000.88 9V24L1012.1 31L1023.33 24V9L1012.1 1L1000.88 9ZM1120.05 9V24L1131.27 31L1142.5 24V9L1131.27 1L1120.05 9ZM1239.22 9V24L1250.45 31L1261.67 24V9L1250.45 1L1239.22 9ZM1359.26 9V24L1370.48 31L1380.85 24V9L1370.48 1L1359.26 9ZM1478.43 9V24L1489.66 31L1500.88 24V9L1489.66 1L1478.43 9ZM1597.6 9V24L1608.83 31L1620.05 24V9L1608.83 1L1597.6 9Z" fill="#230B41"/>
<path opacity="0.75" d="M91.5384 25V41L103.628 49L115.718 41V25L103.628 17L91.5384 25ZM84.6299 8V16L90.6749 20L96.7198 16V8L90.6749 4L84.6299 8Z" fill="#230B41"/>
<path opacity="0.5" d="M50.0871 31V53L33.6793 64L17.2715 53V31L33.6793 20L50.0871 31Z" fill="#230B41"/>
<path opacity="0.75" d="M29.3612 8V16L23.3162 20L18.1348 16V8L23.3162 4L29.3612 8Z" fill="#230B41"/>
<path d="M1728 77V62L1709.86 50L1689.14 64L1669.28 50L1649.42 64L1628.69 50L1608.83 64L1588.97 50L1569.1 64L1548.38 50L1528.52 64L1508.65 50L1487.93 64L1468.07 50L1448.2 64L1428.34 50L1407.62 64L1387.75 50L1367.89 64L1347.17 50L1327.3 64L1307.44 50L1287.58 64L1266.85 50L1246.99 64L1227.13 50L1206.4 64L1186.54 50L1166.68 64L1146.82 50L1126.09 64L1106.23 50L1086.37 64L1065.64 50L1045.78 64L1025.92 50L1006.06 64L985.331 50L965.469 64L945.607 50L924.882 64L905.019 50L885.157 64L864.432 50L844.57 64L824.708 50L804.846 64L784.12 50L764.258 64L744.396 50L723.67 64L703.808 50L683.946 64L664.084 50L643.358 64L623.496 50L603.634 64L582.909 50L563.046 64L543.184 50L523.322 64L502.597 50L482.735 64L462.873 50L442.147 64L422.285 50L402.423 64L382.561 50L361.835 64L341.973 50L322.111 64L301.385 50L281.523 64L261.661 50L240.936 64L221.073 50L201.211 64L181.349 50L160.624 64L140.762 50L120.9 64L100.174 50L80.3118 64L60.4498 50L40.5877 64L19.8621 50L0 64V77H1728Z" fill="#230B41"/>
<path opacity="0.75" d="M10.3628 49L0 42V23L10.3628 17L22.4528 25V41L10.3628 49Z" fill="#230B41"/>
<path opacity="0.3" d="M1728 31L1716.77 24V9L1728 1V31Z" fill="#230B41"/>
</svg>
