<svg width="173" height="172" viewBox="0 0 173 172" fill="none" xmlns="http://www.w3.org/2000/svg">
<path fill-rule="evenodd" clip-rule="evenodd" d="M78.368 84.0466H66.0809L84.5115 102.477L78.368 84.0466ZM80.3815 84.0466H93.0125L86.697 102.993L80.3815 84.0466ZM95.026 84.0466H107.313L88.8824 102.477L95.026 84.0466ZM63.5774 81.9386L71.0202 74.4958H72.5687H101.78H102.374L102.851 74.9734L109.817 81.9386L110.969 83.0915L87.3723 106.689L86.697 107.364L62.4245 83.0915L63.5774 81.9386ZM66.0809 82.1364L71.4158 76.8016L76.7506 82.1364H66.0809ZM81.3621 82.1364L86.697 76.8016L92.0318 82.1364H81.3621ZM96.6433 82.1364L101.978 76.8016L107.313 82.1364H96.6433ZM89.0027 76.406H99.6724L94.3376 81.7408L89.0027 76.406ZM79.0564 81.7408L84.3912 76.406H73.7215L79.0564 81.7408ZM17.3721 0L1.41557 15.9565L0.740234 16.6319V0H17.3721ZM4.82723 0L0.740234 12.261V0H4.82723ZM14.6708 0L2.92568 11.7451L6.8407 0H14.6708ZM172.654 16.6319L156.022 0H172.654V16.6319ZM158.723 0L170.468 11.7451L166.553 0H158.723ZM172.654 12.261L168.567 0H172.654V12.261ZM0.740234 155.677H15.8236H16.417L16.8946 156.155L23.8598 163.12L25.0127 164.273L17.3721 171.913H0.740234L0.740234 155.677ZM0.740234 165.228H7.05574L4.82723 171.913H0.740234V165.228ZM14.6708 171.913L21.3563 165.228H9.06921L6.8407 171.913H14.6708ZM0.740234 157.983L6.07508 163.318H0.740234L0.740234 157.983ZM10.6866 163.318L16.0214 157.983L21.3563 163.318H10.6866ZM3.04599 157.587H13.7157L8.38083 162.922L3.04599 157.587ZM172.654 155.677H158.525H156.977L149.534 163.12L148.381 164.273L156.022 171.913H172.654V155.677ZM158.723 171.913L152.038 165.228H164.325L166.553 171.913H158.723ZM172.654 165.228H166.338L168.567 171.913H172.654V165.228ZM152.038 163.318L157.373 157.983L162.707 163.318H152.038ZM172.654 157.983L167.319 163.318H172.654V157.983ZM165.013 162.922L170.348 157.587H159.678L165.013 162.922ZM146.802 24.5008L148.153 25.8515L115.737 58.2678L114.386 56.9171L146.802 24.5008ZM148.153 146.062L146.802 147.413L114.386 114.996L115.737 113.646L148.153 146.062ZM26.5917 147.413L25.241 146.062L57.6574 113.646L59.008 114.996L26.5917 147.413ZM25.241 25.8515L26.5917 24.5008L59.008 56.9171L57.6574 58.2678L25.241 25.8515ZM0.740234 81.1814C2.85013 81.1814 4.56053 82.8918 4.56053 85.0017C4.56053 87.1116 2.85013 88.822 0.740234 88.822V81.1814ZM172.654 81.1814C170.544 81.1814 168.833 82.8918 168.833 85.0017C168.833 87.1116 170.544 88.822 172.654 88.822V81.1814ZM90.5173 0C90.5173 2.10989 88.8069 3.8203 86.697 3.8203C84.5871 3.8203 82.8767 2.10989 82.8767 0H90.5173ZM90.5173 171.913C90.5173 169.804 88.8069 168.093 86.697 168.093C84.5871 168.093 82.8767 169.804 82.8767 171.913H90.5173Z" fill="#B44F22" fill-opacity="0.25"/>
</svg>
