<svg width="122" height="100" viewBox="0 0 122 100" fill="none" xmlns="http://www.w3.org/2000/svg">
<path d="M45.0434 68.3456C45.0434 68.3456 48.6696 83.5038 49.0602 85.8217C49.4542 88.1395 49.2339 92.9057 49.2339 92.9057C49.2339 92.9057 35.8243 87.5944 35.1499 87.1127C34.6089 86.7281 34.7191 83.2396 34.7826 81.8615C34.7993 81.5003 34.9094 81.1859 35.0998 80.9551C36.195 79.6206 40.302 74.5734 45.0434 68.3456Z" fill="url(#paint0_linear_11_2649)"/>
<path opacity="0.31" d="M35.1533 87.1163C35.8278 87.5946 49.2373 92.9093 49.2373 92.9093C49.2373 92.9093 49.3675 90.0228 49.2406 87.6481C49.3241 88.8154 34.6858 81.7681 34.9095 81.3065C34.8427 81.4738 34.796 81.6577 34.786 81.8617C34.7192 83.2464 34.6124 86.735 35.1533 87.1163Z" fill="#C40040"/>
<path opacity="0.75" d="M34.9095 81.3097C34.8427 81.4769 34.796 81.6609 34.786 81.8649C34.7225 83.2463 34.6124 86.7348 35.1533 87.1161C35.8278 87.5944 49.2373 92.9091 49.2373 92.9091C49.284 91.3104 48.0185 88.3804 45.945 87.1529C45.4742 86.8753 44.6461 86.397 43.6478 85.825C39.5708 84.0189 34.7793 81.5739 34.9095 81.3097Z" fill="#B21946"/>
<path d="M58.2394 93.0296L95.6532 92.2001L121.227 43.8925L119.911 39.6481L73.432 46.5281L31.4404 21.7874L2.02689 66.1314L1.86328 71.1853L41.3239 88.1664C41.3239 88.1664 48.1255 97.2038 58.2394 93.0296Z" fill="url(#paint1_linear_11_2649)"/>
<mask id="mask0_11_2649" style="mask-type:luminance" maskUnits="userSpaceOnUse" x="1" y="21" width="121" height="74">
<path d="M58.2394 93.0296L95.6532 92.2001L121.227 43.8925L119.911 39.6481L73.432 46.5281L31.4404 21.7874L2.02689 66.1314L1.86328 71.1853L41.3239 88.1664C41.3239 88.1664 48.1255 97.2038 58.2394 93.0296Z" fill="white"/>
</mask>
<g mask="url(#mask0_11_2649)">
<path opacity="0.28" d="M133.554 54.1941L132.269 45.7587L135.347 40.7651L134.76 34.6543C134.76 34.6543 132.536 34.7011 129.01 34.7914L120.739 35.2095C123.641 36.7113 124.789 40.2901 122.432 42.0561C118.806 44.772 111.754 46.8324 111.24 45.7219C108.535 39.8653 108.231 38.2164 114.021 35.5507L113.423 35.5808C107.844 38.2933 98.695 39.2232 99.9671 36.2598L88.1436 36.8551L82.1668 46.8625C81.5958 47.886 80.9981 48.9563 80.3737 50.0734C82.0466 47.8726 84.0266 45.5881 85.4424 44.9761C88.3774 43.7017 88.9383 49.1001 83.8496 54.7125C79.3987 59.6192 76.8043 59.4887 76.9145 56.2778C76.0797 57.7762 75.2216 59.3115 74.3568 60.8634C77.6825 58.6994 80.6943 58.0873 82.474 58.7663C84.5174 59.5456 84.631 64.4657 83.1217 67.3053C81.6125 70.145 74.0262 72.4294 70.4535 72.5264C68.7238 72.5732 68.3699 72.0815 68.5369 71.3056C65.8923 76.0517 63.3781 80.5604 61.3079 84.2797C67.1846 89.0726 74.6406 95.742 73.5688 97.9595C72.3133 100.562 68.3499 104.341 66.2429 106.241C66.5268 106.392 66.8106 106.542 67.1144 106.686L67.829 106.769C69.0945 103.331 72.0128 99.1335 78.6574 100.461C84.8079 101.689 87.6862 105.749 89.0352 109.027L89.5694 109.064C88.3974 106.987 87.3923 104.505 87.7363 102.458C88.4141 98.4278 100.845 98.6552 103.55 109.997L104.351 110.051C103.466 107.278 102.204 103.679 101.176 102.104C99.5397 99.6051 111.46 83.4803 113.704 102.746L114.088 102.11C112.509 87.8351 115.948 78.975 126.456 81.6474L126.739 81.1791C124.836 80.8614 122.636 80.2761 121.34 79.2125C119.113 77.3829 126.375 75.1219 130.8 74.4563L131.15 73.8777C128.81 74.6837 125.901 75.4965 123.895 75.4062C120.028 75.2289 126.482 66.6029 132.362 64.8068C133.711 64.3954 134.71 65.2349 135.454 66.7568L136.059 65.7567L139.705 59.0472V54.1941H133.554ZM121.828 44.5513L128.349 44.1332C128.349 44.1332 128.222 48.8559 124.459 50.2875C120.696 51.719 118.866 51.9364 121.828 44.5513ZM116.004 45.5547C122.746 44.6449 120.365 50.4681 117.223 54.2309C114.081 57.9936 113.246 56.4317 111.233 49.7857C111.23 49.7857 109.263 46.4678 116.004 45.5547ZM110.268 52.117C116.095 54.679 112.208 65.3821 110.268 67.496C108.328 69.6132 99.2893 74.6269 98.4612 71.5464C98.4612 71.5497 104.441 49.555 110.268 52.117ZM101.129 58.2244C97.3159 58.676 103.951 50.0132 106.585 50.5182C109.22 51.0233 102.134 58.104 101.129 58.2244ZM108.792 38.096C110.769 38.7081 108.432 38.3335 109.366 42.7752C110.305 47.2137 112.251 47.4846 107.854 49.2773C103.456 51.0701 95.0187 42.2234 95.0187 42.2234C97.8335 39.0961 106.819 37.4839 108.792 38.096ZM98.3043 36.7548C101.156 36.7615 99.2058 40.1162 91.7731 42.3739L88.8081 43.5679L88.0101 41.8153C88.0067 41.8187 95.4528 36.7481 98.3043 36.7548ZM86.2971 56.2343C87.4257 51.4313 87.3623 48.2873 88.3673 46.4678C89.7363 43.9827 93.5094 41.8187 96.6147 44.3004C99.72 46.7822 103.106 49.7991 101.6 52.9064C100.094 56.0169 85.1686 61.0407 86.2971 56.2343ZM86.237 59.288C87.6161 57.7762 101.757 57.3548 101.349 60.0774C100.942 62.8 99.4229 69.3121 96.1373 70.3289C92.8517 71.3457 88.4475 73.1619 85.7729 72.0815C83.6192 71.2119 84.858 60.7999 86.237 59.288ZM93.5963 71.6969C99.7534 69.5496 97.8802 73.503 96.7516 75.7473C95.6231 77.9916 93.7398 81.6039 88.8949 83.691C84.05 85.7815 78.0464 87.9823 78.7075 85.3333C78.9413 84.3901 78.4538 84.2395 82.0599 78.6138C85.6661 72.9846 87.4391 73.8442 93.5963 71.6969ZM63.6352 85.4068L65.9959 76.2123C66.9909 74.0783 80.0031 69.6934 82.8746 71.8876C85.7429 74.085 77.8895 83.206 77.8427 86.2564C77.796 89.3068 77.1549 92.7418 74.0796 93.1131C71.0044 93.491 63.6352 85.4068 63.6352 85.4068ZM91.8366 94.471L75.2483 96.5681C78.1866 89.2165 83.7361 83.9118 90.8716 84.8717C98.0071 85.8316 91.8366 94.471 91.8366 94.471ZM106.488 88.5308L94.8651 86.7548C92.3274 83.6509 94.5479 77.0785 101.81 72.9445C109.073 68.8138 112.271 67.807 115.19 73.5298C118.108 79.2593 106.488 88.5308 106.488 88.5308ZM118.045 74.6737C112.088 68.7201 110.205 69.757 113.781 60.7463C117.357 51.739 123.915 49.4914 128.586 51.2507C133.254 53.0067 118.045 74.6737 118.045 74.6737Z" fill="url(#paint2_linear_11_2649)"/>
<path opacity="0.28" d="M63.2279 74.958C61.3246 74.6402 59.1242 74.0549 57.8287 72.9913C55.6049 71.1617 62.8639 68.9007 67.2882 68.2351L67.6387 67.6565C65.2981 68.4625 62.3898 69.2753 60.383 69.185C56.5164 69.0077 62.9708 60.3817 68.8508 58.5856C70.1998 58.1742 71.1982 59.0137 71.9428 60.5356L72.5471 59.5355L76.1933 52.826V47.9729H70.0462L68.7607 39.5375L71.8392 34.5439L71.2516 28.4331C71.2516 28.4331 69.0278 28.4799 65.5018 28.5702L57.231 28.9883C60.1326 30.4901 61.2812 34.0689 58.9239 35.8349C55.2977 38.5508 48.2457 40.6112 47.7315 39.5007C45.0269 33.6442 44.723 31.9952 50.5129 29.3295L49.9152 29.3596C44.3357 32.0721 35.1867 33.002 36.4589 30.0386L24.6354 30.6339L18.6585 40.6413C18.0876 41.6648 17.4899 42.7351 16.8655 43.8522C18.5383 41.6514 20.5184 39.3669 21.9341 38.7549C24.8691 37.4805 25.4301 42.8789 20.3414 48.4913C15.8905 53.398 13.2961 53.2675 13.4063 50.0566C12.5715 51.5551 11.7134 53.0903 10.8486 54.6422C14.1742 52.4782 17.186 51.8661 18.9657 52.5451C21.0092 53.3244 21.1228 58.2445 19.6135 61.0841C18.1043 63.9238 10.518 66.2082 6.94524 66.3052C5.21562 66.352 4.86168 65.8604 5.02864 65.0844C2.38412 69.8305 -0.126824 74.3392 -2.19702 78.0552C3.67967 82.8481 11.1357 89.5175 10.0639 91.735C8.80842 94.3372 4.84499 98.1133 2.73806 100.016C3.02188 100.167 3.3057 100.318 3.60955 100.461L4.3241 100.545C5.58959 97.1066 8.5079 92.909 15.1526 94.2368C21.2997 95.4677 24.1813 99.5248 25.5269 102.803L26.0612 102.839C24.8892 100.762 23.8841 98.2806 24.228 96.2336C24.9059 92.2032 37.3371 92.4307 40.0417 103.773L40.843 103.826C39.9582 101.053 38.6961 97.4544 37.6676 95.8791C36.0315 93.3806 47.9518 77.2558 50.1957 96.5213L50.5797 95.8858C49.0003 81.6106 52.4395 72.7505 62.9474 75.4229L63.2279 74.958ZM58.3195 38.3301L64.8406 37.912C64.8406 37.912 64.7138 42.6347 60.9507 44.0663C57.1876 45.4978 55.3578 45.7152 58.3195 38.3301ZM52.4963 39.3335C59.2378 38.4237 56.857 44.2469 53.715 48.0097C50.573 51.7725 49.7382 50.2105 47.7248 43.5646C47.7214 43.5646 45.7548 40.2466 52.4963 39.3335ZM46.7598 45.8992C52.5864 48.4612 48.6998 59.1643 46.7598 61.2781C44.8198 63.3953 35.7811 68.409 34.953 65.3285C34.953 65.3285 40.9332 43.3371 46.7598 45.8992ZM37.6209 52.0032C33.8077 52.4548 40.4424 43.792 43.0769 44.297C45.7114 44.8021 38.6259 51.8862 37.6209 52.0032ZM45.284 31.8748C47.2607 32.4869 44.9233 32.1123 45.8583 36.554C46.7965 40.9925 48.7432 41.2634 44.3457 43.0562C39.9482 44.8489 31.5105 36.0022 31.5105 36.0022C34.3253 32.8782 43.3106 31.2627 45.284 31.8748ZM34.7961 30.5336C37.6476 30.5403 35.6976 33.895 28.2649 36.1527L25.2999 37.3467L24.5018 35.5941C24.4985 35.5975 31.9445 30.5302 34.7961 30.5336ZM22.7889 50.0165C23.9175 45.2135 23.8541 42.0695 24.8591 40.2499C26.2281 37.7648 30.0012 35.6008 33.1065 38.0826C36.2118 40.5644 39.5976 43.5813 38.0917 46.6885C36.5858 49.7957 21.6603 54.8195 22.7889 50.0165ZM22.7288 53.0669C24.1078 51.5551 38.2486 51.1336 37.8413 53.8562C37.4339 56.5788 35.9146 63.0909 32.629 64.1077C29.3434 65.1245 24.9393 66.9407 22.2647 65.8604C20.111 64.9907 21.3498 54.5787 22.7288 53.0669ZM30.088 65.4757C36.2452 63.3284 34.372 67.2819 33.2434 69.5262C32.1148 71.7705 30.2316 75.3827 25.3867 77.4698C20.5418 79.5603 14.5382 81.7611 15.1993 79.1121C15.433 78.1689 14.9455 78.0184 18.5517 72.3926C22.1578 66.7634 23.9309 67.623 30.088 65.4757ZM0.126942 79.189L2.48763 69.9944C3.48267 67.8605 16.4949 63.4756 19.3631 65.6697C22.2313 67.8672 14.3779 76.9882 14.3312 80.0386C14.2844 83.0889 13.6433 86.5239 10.5681 86.8952C7.49618 87.2698 0.126942 79.189 0.126942 79.189ZM28.3284 88.2498L11.7401 90.3469C14.6784 82.9953 20.2279 77.6906 27.3634 78.6505C34.4989 79.6104 28.3284 88.2498 28.3284 88.2498ZM42.98 82.3096L31.3569 80.5336C28.8192 77.4297 31.0397 70.8573 38.3021 66.7233C45.5644 62.5926 48.7632 61.5858 51.6815 67.3086C54.5998 73.0381 42.98 82.3096 42.98 82.3096ZM50.2725 54.5252C53.8486 45.5179 60.4064 43.2702 65.0777 45.0295C69.749 46.7855 54.5364 68.4525 54.5364 68.4525C48.5796 62.4989 46.6964 63.5324 50.2725 54.5252Z" fill="url(#paint3_linear_11_2649)"/>
</g>
<path opacity="0.4" d="M33.1131 84.6345L32.0413 80.2328L37.9747 76.3898L39.0699 77.9417L34.2484 85.0693L33.1131 84.6345Z" fill="#7E189A"/>
<path opacity="0.75" d="M119.911 39.6447L121.227 43.8892L95.6499 92.2001L58.2394 93.0296C58.2394 93.0296 48.1923 98.8527 41.3239 88.163L1.86328 71.1853L2.02689 66.1315L43.7981 85.7615C43.7981 85.7615 48.6798 96.0097 57.6251 89.8621L94.2375 86.6412L119.911 39.6447Z" fill="#7E189A"/>
<path opacity="0.75" d="M57.6251 89.8589C48.6798 96.0064 43.7981 85.7582 43.7981 85.7582L2.02689 66.1282L1.97347 67.4092L1.86328 71.182L41.3239 88.1631C48.1923 98.8494 58.5633 92.9795 58.5633 92.9795L95.6499 92.2001L94.2375 86.6379L57.6251 89.8589Z" fill="#7E189A"/>
<path d="M66.2496 89.5244L66.7638 92.7286L67.6353 92.6651L66.4499 93.6785L58.4396 93.829C58.4396 93.829 46.5861 97.5015 40.666 88.6079L34.028 85.4873L33.3936 80.3632L38.3153 76.3931L69.8491 83.8551L66.2496 89.5244Z" fill="#7A1342"/>
<path d="M15.6133 76.9549C15.6133 76.9549 15.5399 73.7507 15.2427 72.5366C14.9422 71.3191 10.8853 57.967 10.8853 57.967L14.4313 76.6238L15.6133 76.9549Z" fill="url(#paint4_linear_11_2649)"/>
<path d="M9.6331 53.5956C9.6331 53.5956 13.9471 68.5732 14.4446 70.871C14.9422 73.1688 14.9422 77.9417 14.9422 77.9417C14.9422 77.9417 1.30556 73.2491 0.607703 72.8009C0.0500853 72.443 0 68.9511 0 67.5698C0 67.2085 0.0968319 66.8874 0.2738 66.65C1.3089 65.2619 5.18217 60.0341 9.6331 53.5956Z" fill="url(#paint5_linear_11_2649)"/>
<path opacity="0.31" d="M0.607703 72.8008C1.30556 73.249 14.9422 77.9417 14.9422 77.9417C14.9422 77.9417 14.9422 75.0518 14.7051 72.6871C14.842 73.8511 -0.10351 67.4794 0.0968318 67.0078C0.0367293 67.1784 0 67.3657 0 67.5697C0 68.9511 0.0500853 72.4396 0.607703 72.8008Z" fill="#C40040"/>
<path opacity="0.75" d="M0.100143 67.0078C0.0400407 67.1784 0.00331137 67.3657 0.00331137 67.5697C-2.7657e-05 68.9511 0.0533967 72.443 0.611014 72.8008C1.30887 73.249 14.9455 77.9417 14.9455 77.9417C14.9187 76.3429 13.523 73.4731 11.3961 72.3393C10.9153 72.0817 10.0638 71.6436 9.03872 71.1184C4.88163 69.503 -0.0167228 67.2787 0.100143 67.0078Z" fill="#B21946"/>
<path opacity="0.6" d="M44.4424 84.0022C44.4424 84.0022 48.7564 88.7584 56.3327 86.7482L55.1273 90.9024L57.1775 94.1501L58.4396 93.8256L56.5631 90.297L56.2392 89.6381L56.9704 86.785L67.4349 85.5441L68.2229 86.4171L69.8491 83.8551L38.6892 75.7341L38.3153 76.393L35.2935 78.8815L43.6644 83.9019L42.5291 85.106L40.666 88.6112L41.4306 89.6882L42.9499 85.6746L44.4424 84.0022Z" fill="#B53356"/>
<path opacity="0.75" d="M66.45 93.6752L65.2279 89.19L56.2393 89.6382L56.9705 86.7851L57.1909 84.8586L55.1942 90.471C55.1942 90.471 47.3741 92.6651 43.3339 85.3001L44.4458 84.0057L44.94 82.5407L42.5292 85.1027L33.397 80.3633L34.0314 85.4874L40.6694 88.608C40.6694 88.608 45.3106 97.1002 58.443 93.8291L66.45 93.6752Z" fill="#7E189A"/>
<path opacity="0.4" d="M108.218 61.1279C111.801 54.4853 109.136 62.536 106.886 68.5465C104.635 74.5569 95.8301 84.3535 98.4312 79.1559C101.032 73.9582 106.926 63.5294 108.218 61.1279Z" fill="#7E189A"/>
<path opacity="0.61" d="M67.6355 92.6618L66.764 92.7254L66.2498 89.5245L69.8526 83.8519L69.0312 83.1696L65.228 89.19L66.4501 93.6753L67.6355 92.6618Z" fill="#7B0C3B"/>
<path opacity="0.6" d="M42.5293 85.0993C42.5293 85.0993 48.1656 94.5414 56.5632 90.297L56.2393 89.6381L56.9706 86.785L56.5632 83.0523L49.0337 80.8549L44.2355 83.2932L42.5293 85.0993Z" fill="#B53356"/>
<path d="M114.686 28.7009C117.11 24.8813 118.926 21.7841 118.926 21.7841L115.674 22.4463L117.621 18.64C116.843 20.493 108.365 23.423 101.503 24.3996C94.6415 25.3763 89.9501 22.2523 83.212 25.8144C76.4738 29.3765 72.0262 37.2801 72.0262 37.2801C73.4887 26.2526 68.1296 16.7837 63.8423 15.2251C59.555 13.6631 53.4178 13.6631 47.0536 11.1947C40.6895 8.72634 35.2969 0 35.2969 0L2.6546 42.7353C3.55613 44.712 4.47437 46.3844 5.47941 47.8293C2.87163 51.0937 1.24219 52.9667 1.24219 52.9667L2.84826 57.3583L5.47941 59.4822L3.35913 59.0273L5.47941 65.409C13.079 71.4095 27.694 72.8744 33.2334 74.7776C38.7729 76.6807 44.4425 83.9989 44.4425 83.9989C51.2541 81.8014 56.9672 86.7817 56.9672 86.7817C60.6535 84.3468 71.8259 84.5709 74.634 84.7314C82.2637 85.1696 92.8551 82.6811 92.8551 82.6811L116.546 41.2536L115.671 28.2293C115.671 28.2293 115.323 28.4133 114.686 28.7009Z" fill="url(#paint6_linear_11_2649)"/>
<path opacity="0.6" d="M67.5386 70.2086C77.2585 70.9879 80.8947 76.0585 90.1004 70.0916L114.686 28.7008L89.7465 68.7069C89.7465 68.7069 83.586 72.9479 72.2633 69.931C63.061 67.4793 59.7653 68.7002 59.7653 68.7002C59.7653 68.7002 65.8123 64.449 76.0431 65.7903C86.2739 67.1315 85.7129 67.5362 91.3392 64.9976L115.671 22.4496C111.09 29.2828 91.3358 61.9706 91.3358 61.9706C91.3358 61.9706 86.4508 66.8539 77.4321 64.5126C68.4167 62.1713 52.2425 61.2448 48.1789 79.4634C48.1789 79.4634 43.364 64.6731 33.3904 60.315C23.1095 55.8264 13.4163 58.7129 5.47607 47.8292L3.13876 50.709C3.13876 50.709 7.88351 57.7931 21.7472 60.315C30.9562 61.9907 39.6978 65.7869 43.9083 72.4295C36.1284 62.4021 27.0395 63.857 18.1944 62.6262C7.67316 61.1645 1.24219 52.9667 1.24219 52.9667L2.84826 57.3583L5.47941 59.4822L3.35913 59.0273L5.71982 67.0077C7.80338 70.7337 44.4392 84.0022 44.4392 84.0022C49.5512 88.8319 56.9639 86.785 56.9639 86.785C82.0467 86.785 92.8518 82.6844 92.8518 82.6844L90.6079 71.8509C77.3153 80.3397 71.6756 71.7037 61.2278 70.0949C60.7236 70.018 65.612 70.0548 67.5386 70.2086Z" fill="#B53356"/>
<path opacity="0.3" d="M92.8584 82.6845C92.8584 82.6845 106.709 43.5983 116.549 41.257L92.8584 82.6845Z" fill="#B53356"/>
<path opacity="0.58" d="M108.255 30.8617C108.255 30.8617 112.201 30.0221 115.671 28.2294L90.6145 71.8544C90.6145 71.8544 105.246 44.09 107.487 38.9157C109.73 33.7414 108.255 30.8617 108.255 30.8617Z" fill="#FF9F52"/>
<path opacity="0.6" d="M27.597 70.0916C34.4353 70.9512 39.8346 70.4997 42.0149 70.2354C34.6758 62.6229 26.3315 63.7601 18.1976 62.6262C14.518 62.1145 11.356 60.7766 8.77491 59.2548C8.76489 59.2615 18.6351 68.9644 27.597 70.0916Z" fill="#B53356"/>
<path opacity="0.6" d="M89.7463 68.7103C89.7463 68.7103 83.5123 73.209 72.2631 69.9345C61.0139 66.66 55.6548 69.9345 55.6548 69.9345C55.6548 69.9345 59.892 65.6499 67.3447 65.1014C67.5184 65.0813 67.722 65.0612 67.9858 65.0479C68.0393 65.0445 68.096 65.0445 68.1528 65.0412C68.1828 65.0412 68.2095 65.0378 68.2396 65.0378C75.532 64.7101 83.9898 66.7737 90.8749 64.2652L106.458 37.1396C99.4295 48.5718 91.3356 61.9674 91.3356 61.9674C91.3356 61.9674 86.4506 66.8507 77.4319 64.5094C63.8488 60.9841 50.9601 64.4592 48.1787 79.4602C48.1787 79.4602 49.2505 75.4566 51.1738 74.1756C54.4093 77.2728 72.9877 81.447 83.1984 75.1355C74.8809 77.0186 69.6386 71.5199 61.5448 70.1485C61.4547 70.1285 61.3545 70.1084 61.231 70.0883C60.7234 70.0114 60.2359 69.9679 59.7651 69.9479C61.4647 69.3525 63.2978 69.0348 65.2245 69.192C68.9575 69.493 72.1329 70.5733 75.1514 71.453C81.5723 73.0216 88.3472 70.6569 90.0969 69.3859L96.5879 57.7196C96.5879 57.7297 89.7463 68.7103 89.7463 68.7103Z" fill="#B53356"/>
<path opacity="0.6" d="M72.0227 31.2696C71.9159 30.5471 71.7289 33.7246 68.844 38.551C62.0791 49.8695 48.9267 70.299 47.7647 71.1184C46.8164 71.7873 45.7813 72.2155 45.0567 72.4596C42.7562 68.252 39.1734 63.2416 34.2617 60.7264C33.9778 60.5792 33.6907 60.4388 33.3969 60.3117C32.7257 60.0173 32.0546 59.7565 31.3901 59.5223C31.3801 59.519 31.3667 59.5156 31.3567 59.5089C30.6956 59.2748 30.0378 59.0674 29.38 58.8768C20.6017 56.3449 12.381 57.278 5.48258 47.8225L4.60107 48.9096C4.60107 48.9096 10.0404 56.1776 19.5399 57.2078C27.3799 58.0573 31.3267 59.6962 33.1665 60.703C36.6591 62.7199 41.6643 66.5261 44.1452 72.7306C44.3856 73.7072 44.5526 74.928 44.4758 76.383C44.2621 80.3833 47.8882 83.4403 47.8882 83.4403L49.9251 84.4839C49.9251 84.4839 48.4091 83.1159 48.1854 79.4568C48.1854 79.4568 49.9618 67.7837 72.0261 37.2767C72.0227 37.2834 72.5403 34.8217 72.0227 31.2696Z" fill="#B53356"/>
<path opacity="0.18" d="M83.2087 87.6078C79.469 87.9356 92.8885 85.1227 93.7901 84.9354C94.6916 84.7481 97.7368 76.8178 101.019 72.9011C104.301 68.9845 94.6348 86.0927 94.2375 86.6378L83.2087 87.6078Z" fill="#7C41A3"/>
<path opacity="0.5" d="M106.021 65.0178C104.385 68.62 107.55 58.6595 109.804 55.6425C112.058 52.6256 114.245 49.592 113.1 51.95C111.954 54.3114 106.021 65.0178 106.021 65.0178Z" fill="#B21946"/>
<path opacity="0.4" d="M73.9795 88.4206C81.666 87.8621 93.573 86.3068 91.2891 87.6313C89.0052 88.9558 83.9766 90.471 80.7678 90.6716C77.5623 90.8757 68.5136 88.8187 73.9795 88.4206Z" fill="#7E189A"/>
<path opacity="0.4" d="M18.4281 73.8076C23.3665 76.2325 31.3134 79.3732 29.3467 79.691C27.3834 80.0087 23.657 79.4501 21.6102 78.4099C19.5634 77.3697 14.9155 72.0818 18.4281 73.8076Z" fill="#7E189A"/>
<path opacity="0.3" d="M115.671 28.2294L90.6146 71.8544C77.3219 80.3432 71.6823 71.7072 61.2345 70.0984C50.7867 68.4896 48.1822 79.4669 48.1822 79.4669C39.5876 61.7534 28.7157 64.0946 18.1944 62.633C7.67316 61.1647 1.24219 52.9668 1.24219 52.9668L2.84826 57.3584C2.84826 57.3584 1.97677 54.977 3.87 56.5523C5.76657 58.131 15.7069 63.8973 27.7875 66.6299C39.8681 69.3626 48.3024 80.6275 48.3024 80.6275C50.5964 73.4966 62.2295 72.5835 72.654 75.072C83.0784 77.5604 88.2439 75.3663 89.4593 75.4131C90.6781 75.4633 91.4861 76.0787 91.4861 76.0787C91.4861 76.0787 92.0671 69.299 97.5464 63.2116C113.043 46.0132 115.671 28.2294 115.671 28.2294Z" fill="#B53356"/>
<path opacity="0.5" d="M58.6902 80.4803C58.6902 80.4803 73.0747 79.6709 77.3954 79.9418C79.9932 80.1057 86.6245 80.6275 86.6245 80.6275L83.3489 81.0155C79.7661 81.1058 58.6902 80.4803 58.6902 80.4803Z" fill="#7B0C3B"/>
<path opacity="0.5" d="M50.9302 74.0015C53.932 70.4528 61.5182 69.8909 70.8074 73.2623C67.8457 72.0281 64.8239 70.6468 61.2344 70.0949C56.1324 69.3089 52.9035 71.5264 50.9302 74.0015Z" fill="#7B0C3B"/>
<path opacity="0.5" d="M22.6052 63.0845C32.3018 64.2886 39.2803 68.1851 41.4607 69.6869C35.5974 63.9742 29.1063 63.6163 22.6052 63.0845Z" fill="#7B0C3B"/>
<path opacity="0.5" d="M3.3623 59.0273C3.3623 59.0273 12.4545 65.1515 22.6085 67.1483C22.6085 67.1483 12.9119 64.7468 5.48259 59.4789L3.3623 59.0273Z" fill="#7B0C3B"/>
<path opacity="0.5" d="M27.5002 68.1819C27.5002 68.1819 40.6527 71.1721 46.4993 80.6275C46.496 80.6275 44.4525 71.3861 27.5002 68.1819Z" fill="#7B0C3B"/>
<path opacity="0.5" d="M51.6248 83.1695C51.6248 83.1695 54.3461 80.8315 58.4597 80.4736C58.4564 80.477 53.5347 80.0622 51.6248 83.1695Z" fill="#7B0C3B"/>
<path opacity="0.5" d="M50.9302 81.1961C50.9302 81.1961 55.6315 72.0684 72.6572 76.3897C72.6572 76.3897 57.2877 69.9813 50.9302 81.1961Z" fill="#7B0C3B"/>
<path opacity="0.25" d="M83.2086 25.8177C79.2318 27.4265 71.5353 57.4486 72.0228 59.9571C72.5103 62.4656 84.838 64.9273 84.838 64.9273C82.8146 65.2685 80.3437 65.2685 77.4354 64.5159C69.3516 62.4155 55.5247 61.4656 49.8183 74.4163C49.1405 74.6805 48.7565 74.8511 48.7565 74.8511C48.7565 74.8511 47.4643 74.1687 45.4141 73.1352C43.01 68.563 39.0266 62.78 33.3936 60.3217C24.5252 56.4485 16.0941 58.0573 8.84844 51.5886C12.6382 51.5284 36.0148 50.8963 53.2341 44.3908C69.9059 38.0928 72.0228 29.5771 70.9343 25.0183C72.0729 28.567 72.6205 32.7948 72.0262 37.29C72.0228 37.2833 76.4704 29.3798 83.2086 25.8177ZM23.844 58.2011C16.5082 56.8666 11.5898 54.328 8.56128 52.2275C9.52292 54.5086 13.266 62.3318 19.5901 62.8034C19.6802 62.8101 19.7838 62.8269 19.8772 62.8369C28.158 63.7199 36.5657 63.0509 43.8348 72.3425C43.8414 72.3459 43.8481 72.3492 43.8548 72.3526C39.6443 65.7401 33.0163 59.8701 23.844 58.2011ZM55.6549 69.9344C55.6549 69.9344 60.1125 67.2385 69.3917 69.2186C69.3583 69.2052 69.3316 69.1918 69.3316 69.1918C74.5171 69.5798 79.2018 67.864 82.0332 66.4927C79.3921 66.2987 76.2167 65.7936 71.8292 65.2217C61.5984 63.8838 55.6549 69.9344 55.6549 69.9344ZM59.7653 69.9544C60.2394 69.9745 60.7236 70.0146 61.2344 70.0949C63.4683 70.4394 65.4784 71.105 67.395 71.8542C67.592 71.8944 67.7923 71.9211 67.986 71.9679C72.3701 73.0416 76.21 72.8175 78.8478 72.3793C74.6674 71.6067 70.5036 69.6233 65.2246 69.1985C63.298 69.0413 61.4682 69.3591 59.7653 69.9544Z" fill="url(#paint7_linear_11_2649)"/>
<path d="M53.9354 65.7268C54.3327 64.9977 54.7467 64.2351 55.1708 63.4591C58.4798 57.4754 64.2396 47.7624 72.0262 37.2834C72.0262 37.2834 66.3699 43.1735 60.1493 53.4183C60.1459 53.425 60.1426 53.4317 60.1359 53.4384C57.8253 56.9971 48.2623 69.5063 48.1855 79.4635C48.1855 79.4635 50.7867 71.5265 53.8786 65.8338C53.8953 65.8004 53.9153 65.7636 53.9354 65.7268Z" fill="#6F192B"/>
<path d="M99.7368 55.8733L102.438 50.97L105.199 59.1678C105.199 59.1678 103.353 61.1847 101.784 60.402C100.966 60.0007 99.7368 55.8733 99.7368 55.8733Z" fill="#871827"/>
<path opacity="0.75" d="M99.9306 56.5457C99.9306 56.5457 102.585 56.0473 102.785 56.0072C102.982 55.967 103.73 59.683 103.77 59.8837C103.811 60.0844 104.528 59.7332 104.528 59.7332L105.203 59.1713L102.442 50.9734L99.7402 55.8767L99.9306 56.5457Z" fill="#B21946"/>
<path opacity="0.3" d="M109.964 49.5284L95.1089 74.6271C95.1122 74.6271 105.837 60.1278 109.964 49.5284Z" fill="#B53356"/>
<path opacity="0.6" d="M105.086 34.7415C104.034 35.3636 97.7434 46.08 96.5047 48.7892C95.2692 51.4984 96.7918 51.164 98.5314 51.1372L99.9372 55.5054L98.4046 58.2882L101.343 68.436L105.103 68.2855L105.867 72.9045L107.877 69.319L105.086 34.7415Z" fill="#B53356"/>
<path d="M98.4078 47.3476L100.852 47.0165L107.881 69.3157L107.149 70.6468C107.149 70.6468 109.313 70.5164 110.418 69.9077C111.524 69.2956 116.018 58.5524 116.242 57.0974C116.465 55.6425 110.342 34.5441 109.54 33.3166C108.739 32.0924 106.478 33.0256 106.001 33.4604C105.063 34.3167 98.8886 45.4746 98.5648 45.9897C98.2375 46.5048 98.4078 47.3476 98.4078 47.3476Z" fill="url(#paint8_linear_11_2649)"/>
<path opacity="0.75" d="M113.373 53.8934L110.331 48.0168C111.103 47.1237 110.722 44.5416 109.136 44.361C107.149 44.1369 107.851 48.0235 109.53 48.3078C109.68 48.3345 109.811 48.3144 109.931 48.2777L111.847 56.1611L113.373 53.8934Z" fill="#B21946"/>
<path opacity="0.75" d="M109.978 68.7305C109.57 67.9445 103.259 45.7524 102.344 45.1771C101.747 44.8025 99.5998 44.8627 98.5647 45.9898C98.2408 46.5049 98.4078 47.3478 98.4078 47.3478L100.852 47.0167L107.881 69.3158L107.149 70.647C107.149 70.647 109.313 70.5166 110.418 69.9078C110.745 69.7272 111.373 68.6502 112.098 67.1919C111.931 67.5197 110.385 69.5132 109.978 68.7305Z" fill="#B21946"/>
<path opacity="0.63" d="M110.495 50.5922L111.647 55.3316L112.382 54.2379L110.495 50.5922Z" fill="#770030"/>
<path opacity="0.63" d="M109.407 48.2674C110.071 47.3175 109.69 44.9595 108.211 44.722C107.527 45.6251 108.171 47.9162 109.407 48.2674Z" fill="#770030"/>
<path opacity="0.31" d="M109.54 33.3167C109.437 33.1562 109.306 33.0358 109.159 32.9421C109.777 34.0225 109.076 35.755 106.779 38.772C104.481 41.7889 101.373 44.9697 101.373 44.9697C101.373 44.9697 101.463 44.9396 101.603 44.9831C100.698 44.9061 99.3327 45.157 98.5647 45.9865C98.2408 46.5016 98.4078 47.3444 98.4078 47.3444L100.852 47.0133L107.881 69.3125L107.149 70.6437C107.149 70.6437 108.649 70.5533 109.791 70.1687C109.894 70.1353 109.994 70.0951 110.091 70.055C110.108 70.0483 110.124 70.0416 110.141 70.0349C110.241 69.9914 110.335 69.948 110.422 69.9011C110.458 69.8811 110.502 69.8443 110.548 69.8008C110.562 69.7874 110.579 69.7673 110.595 69.7506C110.629 69.7138 110.665 69.6737 110.702 69.6269C110.719 69.6035 110.739 69.58 110.755 69.5566C110.796 69.5031 110.836 69.4496 110.879 69.386C110.896 69.3593 110.916 69.3325 110.932 69.3058C110.983 69.2322 111.033 69.1486 111.086 69.0616C111.099 69.0415 111.109 69.0215 111.123 69.0014C111.41 68.5298 111.741 67.9043 112.098 67.1852C113.817 63.7268 115.14 57.9773 115.297 56.9538C115.517 55.5055 110.341 34.5409 109.54 33.3167Z" fill="#C40040"/>
<path d="M101.6 44.9864C101.456 44.9429 101.37 44.973 101.37 44.973C101.37 44.973 104.478 41.7922 106.776 38.7752C109.073 35.7583 109.774 34.0258 109.156 32.9454C108.175 32.33 106.412 33.0826 105.998 33.4605C105.059 34.3167 98.8854 45.4747 98.5615 45.9898C99.3295 45.1569 100.695 44.9094 101.6 44.9864ZM101.296 41.4309C104.341 35.1931 108.438 32.5441 108.362 34.8586C108.285 37.1731 106.321 39.1866 103.186 42.7688C100.054 46.3543 99.8704 44.3576 101.296 41.4309Z" fill="#FFFF00"/>
<path opacity="0.25" d="M108.028 56.3116C113.143 60.7902 115.844 57.8535 113.807 62.7502C111.771 67.6435 109.804 66.804 108.782 63.6165C107.761 60.4256 104.989 53.6526 108.028 56.3116Z" fill="#FFF700"/>
<path opacity="0.25" d="M103.547 40.0328C106.618 39.1397 109.407 35.9522 108.715 33.9889C108.024 32.0255 106.017 33.8484 105.129 35.2966C104.241 36.7482 101.393 40.6616 103.547 40.0328Z" fill="#FFF700"/>
<path d="M109.153 34.9824C109.917 38.1966 105.984 39.568 106.902 38.1732C107.824 36.7818 108.999 34.3402 109.153 34.9824Z" fill="#FFFFE0"/>
<path opacity="0.75" d="M103.834 55.2714C103.35 52.1374 108.201 62.1983 108.719 65.4159C109.236 68.6335 108.916 71.7574 107.857 68.784C106.799 65.8072 104.044 56.646 103.834 55.2714Z" fill="#B21946"/>
<path opacity="0.6" d="M43.2103 87.6345L42.7395 88.6179C42.7395 88.6179 47.1737 95.1568 55.2575 92.4241L54.8201 91.9358C54.8168 91.9358 46.9433 94.4075 43.2103 87.6345Z" fill="#B53356"/>
<path d="M61.0341 80.7879C61.0341 80.7879 54.8236 94.0831 66.2197 99.9999C66.2197 99.9999 65.2547 96.2672 68.006 94.431C68.006 94.431 71.325 98.8627 76.5005 99.3778C76.5005 99.3778 73.6924 86.892 80.1067 80.5471C80.1067 80.5471 70.5237 79.4902 61.0341 80.7879Z" fill="url(#paint9_linear_11_2649)"/>
<path opacity="0.75" d="M68.006 94.4309C68.006 94.4309 71.325 98.8626 76.5005 99.3777C76.5005 99.3777 73.6924 86.8919 80.1066 80.547C80.1066 80.547 79.3253 80.4601 77.9964 80.3698C71.7357 86.2765 74.9979 98.8827 74.9979 98.8827C68.6771 97.2605 67.8524 92.6248 67.8524 92.6248C64.3464 95.5213 64.7771 99.0098 64.7671 99.1335C64.8172 99.167 64.8673 99.2004 64.9207 99.2339L66.2229 99.9998C66.2229 99.9998 65.258 96.2671 68.006 94.4309Z" fill="#6545A4"/>
<path opacity="0.75" d="M59.8955 84.2465C60.6468 81.748 72.4836 81.059 75.6657 83.6444C76.1833 84.0659 73.4386 88.0962 75.9061 94.1301L75.9095 92.6149L77.4888 92.5815L77.3186 88.1431L80.3337 84.9388L80.1066 80.5439C80.1066 80.5439 72.7608 78.8147 61.0341 80.7847L59.8955 84.2465Z" fill="#6545A4"/>
<path opacity="0.39" d="M62.9908 81.3532C64.46 80.6575 70.3734 79.8983 73.1815 80.7545C75.993 81.6141 61.0875 82.2563 62.9908 81.3532Z" fill="#6545A4"/>
<path opacity="0.46" d="M66.6769 82.2229C71.4284 81.8316 74.2732 83.126 75.305 83.8418C76.3368 84.5575 70.9375 91.1131 67.5718 91.7453C64.2061 92.3774 58.8169 85.9824 59.9956 84.397C61.1742 82.8116 64.2628 82.4203 66.6769 82.2229Z" fill="#6ECDFF"/>
<path opacity="0.75" d="M66.223 100L64.7672 99.1304C64.7672 99.1304 64.7338 96.5282 66.0427 94.6083C67.3482 92.6885 68.0094 94.4311 68.0094 94.4311C68.0094 94.4311 65.3515 95.9629 66.223 100Z" fill="#6545A4"/>
<defs>
<linearGradient id="paint0_linear_11_2649" x1="50.806" y1="78.1387" x2="37.1692" y2="88.0757" gradientUnits="userSpaceOnUse">
<stop stop-color="#FFE700"/>
<stop offset="0.0234" stop-color="#FFE200"/>
<stop offset="0.3638" stop-color="#FFA400"/>
<stop offset="0.6516" stop-color="#FF7600"/>
<stop offset="0.8725" stop-color="#FF5A00"/>
<stop offset="1" stop-color="#FF4F00"/>
</linearGradient>
<linearGradient id="paint1_linear_11_2649" x1="100.387" y1="20.0897" x2="44.9574" y2="75.4253" gradientUnits="userSpaceOnUse">
<stop stop-color="#7C41A3"/>
<stop offset="0.236" stop-color="#612B87"/>
<stop offset="0.5314" stop-color="#46156B"/>
<stop offset="0.789" stop-color="#350759"/>
<stop offset="0.9783" stop-color="#2F0253"/>
</linearGradient>
<linearGradient id="paint2_linear_11_2649" x1="102.291" y1="107.752" x2="97.3938" y2="2.40324" gradientUnits="userSpaceOnUse">
<stop offset="0.0817"/>
<stop offset="0.1554" stop-color="#07040A"/>
<stop offset="0.2794" stop-color="#1B0E24"/>
<stop offset="0.4384" stop-color="#3C1F4E"/>
<stop offset="0.6244" stop-color="#683789"/>
<stop offset="0.701" stop-color="#7C41A3"/>
</linearGradient>
<linearGradient id="paint3_linear_11_2649" x1="38.7828" y1="101.532" x2="33.8857" y2="-3.81714" gradientUnits="userSpaceOnUse">
<stop offset="0.0817"/>
<stop offset="0.1554" stop-color="#07040A"/>
<stop offset="0.2794" stop-color="#1B0E24"/>
<stop offset="0.4384" stop-color="#3C1F4E"/>
<stop offset="0.6244" stop-color="#683789"/>
<stop offset="0.701" stop-color="#7C41A3"/>
</linearGradient>
<linearGradient id="paint4_linear_11_2649" x1="16.5277" y1="65.0071" x2="9.58328" y2="70.5705" gradientUnits="userSpaceOnUse">
<stop stop-color="#480030"/>
<stop offset="1" stop-color="#B21946"/>
</linearGradient>
<linearGradient id="paint5_linear_11_2649" x1="15.8372" y1="63.1136" x2="2.66757" y2="73.6642" gradientUnits="userSpaceOnUse">
<stop stop-color="#FFE700"/>
<stop offset="0.0234" stop-color="#FFE200"/>
<stop offset="0.3638" stop-color="#FFA400"/>
<stop offset="0.6516" stop-color="#FF7600"/>
<stop offset="0.8725" stop-color="#FF5A00"/>
<stop offset="1" stop-color="#FF4F00"/>
</linearGradient>
<linearGradient id="paint6_linear_11_2649" x1="82.9257" y1="-18.0911" x2="38.8949" y2="94.9564" gradientUnits="userSpaceOnUse">
<stop offset="0.2843" stop-color="#FFF1D2"/>
<stop offset="0.3496" stop-color="#FCEACE"/>
<stop offset="0.442" stop-color="#F3D8C2"/>
<stop offset="0.5506" stop-color="#E4B9AF"/>
<stop offset="0.6714" stop-color="#CF8F95"/>
<stop offset="0.7974" stop-color="#B55B74"/>
</linearGradient>
<linearGradient id="paint7_linear_11_2649" x1="58.9528" y1="27.0123" x2="42.2533" y2="69.8878" gradientUnits="userSpaceOnUse">
<stop stop-color="#B53356"/>
<stop offset="0.4613" stop-color="#D998A9"/>
<stop offset="0.8304" stop-color="#F4E2E7"/>
<stop offset="1" stop-color="white"/>
</linearGradient>
<linearGradient id="paint8_linear_11_2649" x1="101.089" y1="64.1545" x2="117.601" y2="34.9925" gradientUnits="userSpaceOnUse">
<stop stop-color="#FF4F00"/>
<stop offset="0.0764" stop-color="#FF5E00"/>
<stop offset="0.3931" stop-color="#FF9900"/>
<stop offset="0.6636" stop-color="#FFC300"/>
<stop offset="0.8746" stop-color="#FFDD00"/>
<stop offset="1" stop-color="#FFE700"/>
</linearGradient>
<linearGradient id="paint9_linear_11_2649" x1="70.2998" y1="99.8455" x2="69.5474" y2="80.1455" gradientUnits="userSpaceOnUse">
<stop stop-color="#33BFF4"/>
<stop offset="0.4592" stop-color="#3274DA"/>
<stop offset="0.8231" stop-color="#323FC8"/>
<stop offset="1" stop-color="#322BC1"/>
</linearGradient>
</defs>
</svg>
