<svg width="80" height="80" viewBox="0 0 80 80" fill="none" xmlns="http://www.w3.org/2000/svg">
<g clip-path="url(#clip0_112_438)">
<path fill-rule="evenodd" clip-rule="evenodd" d="M68.6726 14.679H9.89368L14.7921 71.0541L39.2833 78.4074L63.7743 71.0541L68.6726 14.679ZM16.7512 -0.0274658V10.7573H19.69V6.83553H23.6086V10.7573H26.5476V-0.0274658H23.6086V3.89443H19.69V-0.0274658H16.7512Z" fill="white"/>
<path fill-rule="evenodd" clip-rule="evenodd" d="M40.2628 -0.0274658V10.7573H43.2016V4.87463L45.6509 8.79653L48.0999 4.87463V10.7573H51.0388V-0.0274658H48.0999L45.6509 3.40413L43.2016 -0.0274658H40.2628ZM52.9983 -0.0274658V10.7573H61.8153V7.81603H55.9371V-0.0274658H52.9983Z" fill="white"/>
<path fill-rule="evenodd" clip-rule="evenodd" d="M31.8046 63.9067L23.7575 61.4906L23.1013 53.9401L22.8847 51.4454H30.7218L31.1486 56.3562L39.2832 58.7987V66.1519L31.8046 63.9067ZM39.283 31.8367H29.0179L29.6571 39.1899H39.283V46.5435H30.2959H22.4588L21.82 39.1899L21.1808 31.8367L20.5421 24.4834H28.3792H39.283V31.8367Z" fill="#201D22"/>
<path fill-rule="evenodd" clip-rule="evenodd" d="M60.5801 51.4453L61.0059 46.5431L61.6447 39.1901L62.2838 31.8368L62.9226 24.4833L63.3483 19.5812H39.2832V73.5052L54.153 69.0408L59.1822 67.5307L59.8383 59.9804L60.4943 52.4303L60.5801 51.4453Z" fill="#E0E0E0"/>
<path fill-rule="evenodd" clip-rule="evenodd" d="M28.5071 -0.0274658V2.91393H31.936V10.7573H34.8747V2.91393H38.3035V-0.0274658H28.5071Z" fill="white"/>
<path fill-rule="evenodd" clip-rule="evenodd" d="M39.2832 31.8367H49.5483H57.3855L58.0241 24.4834H50.187H39.2832V31.8367ZM48.2703 46.5433H39.2832V39.19H48.9094H56.7466L56.1075 46.5433L55.6817 51.4456L55.4651 53.9403L54.8089 61.4906L46.7618 63.9064L39.2832 66.1519V58.7989L47.4177 56.3564L47.8446 51.4456L48.2703 46.5433Z" fill="#201D22"/>
</g>
<defs>
<clipPath id="clip0_112_438">
<rect width="80" height="80" fill="white"/>
</clipPath>
</defs>
</svg>
