<svg width="40" height="39" viewBox="0 0 40 39" fill="none" xmlns="http://www.w3.org/2000/svg">
<path d="M20.115 38.1005C9.59891 38.1005 1.07397 29.7953 1.07397 19.5503C1.07397 9.30521 9.59891 1 20.115 1C30.6311 1 39.156 9.30521 39.156 19.5503C39.156 29.7953 30.6311 38.1005 20.115 38.1005Z" stroke="url(#paint0_linear_89_3323)" stroke-width="1.5" stroke-miterlimit="10"/>
<path d="M20.1152 11.2159C22.9068 11.2159 23.237 11.2257 24.3377 11.2744C25.3583 11.3231 25.9086 11.4888 26.2788 11.6253C26.7691 11.8105 27.1093 12.0347 27.4795 12.3857C27.8497 12.7463 28.0698 13.0778 28.2599 13.5554C28.4 13.9161 28.5701 14.4522 28.6202 15.4465C28.6702 16.5188 28.6802 16.8404 28.6802 19.5601C28.6802 22.2798 28.6602 22.5917 28.6101 23.664C28.5601 24.6583 28.39 25.1944 28.2499 25.5551C28.0598 26.0327 27.8297 26.3641 27.4695 26.7248C27.1093 27.0757 26.7591 27.2999 26.2688 27.4851C25.8986 27.6216 25.3483 27.7873 24.3277 27.8361C23.227 27.8848 22.8968 27.8946 20.1052 27.8946C17.3136 27.8946 16.9834 27.8848 15.8828 27.8361C14.8622 27.7873 14.3119 27.6216 13.9417 27.4851C13.4514 27.2999 13.1112 27.0757 12.741 26.7248C12.3708 26.3641 12.1506 26.0327 11.9605 25.5551C11.8204 25.1944 11.6503 24.6583 11.6003 23.664C11.5503 22.5917 11.5403 22.27 11.5403 19.5504C11.5403 16.8307 11.5503 16.509 11.6003 15.4367C11.6503 14.4425 11.8204 13.9063 11.9605 13.5457C12.1506 13.068 12.3808 12.7366 12.741 12.3759C13.1112 12.0152 13.4514 11.8008 13.9417 11.6156C14.3119 11.4791 14.8622 11.3134 15.8828 11.2646C16.9934 11.2257 17.3236 11.2159 20.1152 11.2159ZM20.1152 9.3833C17.2836 9.3833 16.9234 9.39305 15.8127 9.44179C14.7021 9.49053 13.9417 9.66599 13.2813 9.91943C12.5909 10.1826 12.0105 10.5238 11.4302 11.0892C10.8499 11.6546 10.4897 12.2199 10.2295 12.8925C9.96937 13.5359 9.79927 14.2767 9.73923 15.3588C9.6892 16.4408 9.6792 16.7917 9.6792 19.5504C9.6792 22.309 9.6892 22.6599 9.73923 23.742C9.78926 24.824 9.96937 25.5648 10.2295 26.2082C10.4997 26.8808 10.8499 27.4462 11.4302 28.0115C12.0105 28.5769 12.5909 28.9278 13.2813 29.1813C13.9417 29.4347 14.7021 29.6004 15.8127 29.6589C16.9234 29.7077 17.2836 29.7174 20.1152 29.7174C22.9469 29.7174 23.3071 29.7077 24.4177 29.6589C25.5284 29.6102 26.2888 29.4347 26.9492 29.1813C27.6396 28.9181 28.2199 28.5769 28.8003 28.0115C29.3806 27.4462 29.7408 26.8808 30.001 26.2082C30.2611 25.5648 30.4312 24.824 30.4812 23.742C30.5313 22.6599 30.5413 22.309 30.5413 19.5504C30.5413 16.7917 30.5313 16.4408 30.4812 15.3588C30.4312 14.2767 30.2511 13.5359 30.001 12.8925C29.7308 12.2199 29.3806 11.6546 28.8003 11.0892C28.2199 10.5238 27.6396 10.1729 26.9492 9.91943C26.2888 9.66599 25.5284 9.50028 24.4177 9.44179C23.3071 9.39305 22.9469 9.3833 20.1152 9.3833Z" fill="url(#paint1_linear_89_3323)"/>
<path d="M20.1153 14.3257C17.1536 14.3257 14.7522 16.6652 14.7522 19.5506C14.7522 22.4359 17.1536 24.7754 20.1153 24.7754C23.077 24.7754 25.4784 22.4359 25.4784 19.5506C25.4784 16.6652 23.077 14.3257 20.1153 14.3257ZM20.1153 22.9428C18.1942 22.9428 16.6333 21.4222 16.6333 19.5506C16.6333 17.679 18.1942 16.1583 20.1153 16.1583C22.0364 16.1583 23.5973 17.679 23.5973 19.5506C23.5973 21.4222 22.0364 22.9428 20.1153 22.9428Z" fill="url(#paint2_linear_89_3323)"/>
<path d="M26.9392 14.1208C26.9392 14.7934 26.3789 15.3393 25.6885 15.3393C24.9981 15.3393 24.4377 14.7934 24.4377 14.1208C24.4377 13.4482 24.9981 12.9023 25.6885 12.9023C26.3789 12.9023 26.9392 13.4482 26.9392 14.1208Z" fill="url(#paint3_linear_89_3323)"/>
<defs>
<linearGradient id="paint0_linear_89_3323" x1="20.115" y1="1" x2="20.115" y2="38.1005" gradientUnits="userSpaceOnUse">
<stop stop-color="#FE2DAD"/>
<stop offset="1" stop-color="#B44F22"/>
</linearGradient>
<linearGradient id="paint1_linear_89_3323" x1="20.1102" y1="9.3833" x2="20.1102" y2="29.7174" gradientUnits="userSpaceOnUse">
<stop stop-color="#FE2DAD"/>
<stop offset="1" stop-color="#B44F22"/>
</linearGradient>
<linearGradient id="paint2_linear_89_3323" x1="20.1153" y1="14.3257" x2="20.1153" y2="24.7754" gradientUnits="userSpaceOnUse">
<stop stop-color="#FE2DAD"/>
<stop offset="1" stop-color="#B44F22"/>
</linearGradient>
<linearGradient id="paint3_linear_89_3323" x1="25.6885" y1="12.9023" x2="25.6885" y2="15.3393" gradientUnits="userSpaceOnUse">
<stop stop-color="#FE2DAD"/>
<stop offset="1" stop-color="#B44F22"/>
</linearGradient>
</defs>
</svg>
