<svg width="85" height="100" viewBox="0 0 85 100" fill="none" xmlns="http://www.w3.org/2000/svg">
<path d="M43.0468 63.2509C43.0468 63.2509 38.0319 75.2226 41.519 85.4741C41.519 85.4741 45.5776 72.2953 44.4755 67.1754C43.3734 62.0555 43.0468 63.2509 43.0468 63.2509Z" fill="#005B54"/>
<path d="M60.0162 88.9088C59.0423 88.209 58.0102 87.5851 56.9489 87.0078C57.1297 86.9845 57.3104 86.9728 57.4795 86.9261C58.3484 86.6754 59.1881 85.929 58.9316 84.9377C58.6575 83.8647 57.3396 83.4448 56.4182 83.1241C56.0334 82.99 55.6368 82.8792 55.2403 82.7801C55.2928 82.7451 55.3453 82.7159 55.3978 82.6693C56.0101 82.1386 56.3774 81.2289 55.9109 80.4825C55.4677 79.7828 54.3773 79.4795 53.5492 79.2521C53.7475 78.8906 53.7883 78.4357 53.6134 78.0333C53.2752 77.2578 52.3946 76.8846 51.6657 76.5813C51.5724 76.5405 51.4733 76.5114 51.38 76.4764C51.4791 76.3947 51.5782 76.3014 51.6657 76.1965C52.4354 75.2868 52.0564 74.138 51.4091 73.2808C50.0329 71.4731 48.0503 70.1844 45.9102 69.4554C45.7935 68.9831 44.9888 68.8607 44.7847 69.4496C43.7701 72.4411 42.7671 76.4414 45.6653 78.7623C45.9976 79.0305 46.4991 78.9547 46.6274 78.5057C46.7324 78.1441 46.8199 77.7768 46.9015 77.4152C46.9132 78.3424 46.884 79.2696 46.9423 80.1735C47.0123 81.2581 47.5021 84.8502 49.2807 84.1912C49.6539 85.3109 50.1379 86.3897 50.7618 87.3343C51.1409 87.9058 51.9281 88.2848 52.4471 87.9175C53.1644 89.3928 54.1324 90.7223 55.4852 91.7486C55.8993 92.0577 56.4707 91.5446 56.3308 91.0955C56.3191 91.0489 56.3016 91.0081 56.2841 90.9614C56.564 91.2705 56.8556 91.5679 57.1588 91.8478C58.1968 92.7983 59.9229 93.708 61.13 92.4601C62.3371 91.218 61.095 89.6902 60.0162 88.9088Z" fill="#008D63"/>
<path opacity="0.24" d="M57.0247 88.3432C57.0247 88.3432 49.234 79.8994 49.234 72.3828C49.234 64.8662 48.196 73.9106 48.196 73.9106C48.196 73.9106 50.5927 82.3485 57.0247 88.3432Z" fill="#006FB3"/>
<path opacity="0.24" d="M60.0161 88.9088C59.0422 88.209 58.0101 87.5851 56.9488 87.0078C57.1295 86.9845 57.3103 86.9728 57.4794 86.9261C58.3483 86.6754 59.188 85.929 58.9314 84.9377C58.6573 83.8647 57.3395 83.4448 56.4181 83.1241C56.0332 82.99 55.6367 82.8792 55.2402 82.7801C55.2927 82.7451 55.3452 82.7159 55.3976 82.6693C56.0099 82.1386 56.3773 81.2289 55.9108 80.4825C55.4676 79.7828 54.3771 79.4795 53.5491 79.2521C53.7474 78.8906 53.7882 78.4357 53.6132 78.0333C53.275 77.2578 52.3945 76.8846 51.6656 76.5813C51.5723 76.5405 51.4731 76.5114 51.3798 76.4764C51.479 76.3947 51.5781 76.3014 51.6656 76.1965C52.4353 75.2868 52.0563 74.138 51.409 73.2808C50.0328 71.4731 48.0501 70.1844 45.91 69.4554C45.7934 68.9831 44.9887 68.8607 44.7846 69.4496C44.4289 70.4993 44.079 71.6714 43.8924 72.8551L50.3943 76.2956C55.2985 78.978 52.1904 79.497 52.1904 79.497C57.6719 81.8412 54.0681 82.7684 54.0681 82.7684C60.9724 85.4625 55.9458 87.0952 55.9458 87.0952C59.0189 88.5881 60.156 91.9586 58.8148 91.632C57.4736 91.3055 55.6134 87.4626 55.6134 87.4626C55.6134 87.4626 56.354 90.4483 55.1994 90.2792C54.0448 90.1159 52.2662 83.5848 52.2662 83.5848C52.2662 83.5848 52.5928 86.9728 51.3682 86.4013C50.1436 85.8298 50.3069 79.9052 50.3069 79.9052C50.3069 79.9052 50.1028 83.0949 49.024 82.8092C48.0793 82.5585 47.397 76.8613 47.2396 75.4267C47.2746 76.0157 47.2046 77.2111 46.1025 77.456C44.9829 77.7068 44.149 74.8494 43.8166 73.4616C43.6125 75.4442 43.9624 77.3977 45.6651 78.7623C45.9975 79.0305 46.499 78.9547 46.6273 78.5057C46.7323 78.1441 46.8197 77.7768 46.9014 77.4152C46.913 78.3424 46.8839 79.2696 46.9422 80.1735C47.0122 81.2581 47.502 84.8502 49.2806 84.1912C49.6538 85.3109 50.1378 86.3897 50.7617 87.3343C51.1408 87.9058 51.928 88.2848 52.447 87.9175C53.1642 89.3928 54.1322 90.7223 55.4851 91.7486C55.8991 92.0577 56.4706 91.5446 56.3306 91.0955C56.319 91.0489 56.3015 91.0081 56.284 90.9614C56.5639 91.2705 56.8555 91.5679 57.1587 91.8478C58.1967 92.7983 59.9228 93.708 61.1298 92.4601C62.3369 91.218 61.0948 89.6902 60.0161 88.9088Z" fill="#006FB3"/>
<path opacity="0.24" d="M60.0162 88.9088C59.0423 88.209 58.0102 87.5851 56.9489 87.0078C57.1297 86.9845 57.3104 86.9728 57.4795 86.9261C58.3484 86.6754 59.1881 85.929 58.9316 84.9377C58.6575 83.8647 57.3396 83.4448 56.4182 83.1241C56.0334 82.99 55.6368 82.8792 55.2403 82.7801C55.2928 82.7451 55.3453 82.7159 55.3978 82.6693C56.0101 82.1386 56.3774 81.2289 55.9109 80.4825C55.4677 79.7828 54.3773 79.4795 53.5492 79.2521C53.7475 78.8906 53.7883 78.4357 53.6134 78.0333C53.2752 77.2578 52.3946 76.8846 51.6657 76.5813C51.5724 76.5405 51.4733 76.5114 51.38 76.4764C51.4791 76.3947 51.5782 76.3014 51.6657 76.1965C52.4354 75.2868 52.0564 74.138 51.4091 73.2808C50.0329 71.4731 48.0503 70.1844 45.9102 69.4554C45.7935 68.9831 44.9888 68.8607 44.7847 69.4496C43.7701 72.4411 42.7671 76.4414 45.6653 78.7623C45.9976 79.0305 46.4991 78.9547 46.6274 78.5057C46.7324 78.1441 46.8199 77.7768 46.9015 77.4152C46.9132 78.3424 46.884 79.2696 46.9423 80.1735C47.0123 81.2581 47.5021 84.8502 49.2807 84.1912C49.6539 85.3109 50.1379 86.3897 50.7618 87.3343C51.1409 87.9058 51.9281 88.2848 52.4471 87.9175C53.1644 89.3928 54.1324 90.7223 55.4852 91.7486C55.8993 92.0577 56.4707 91.5446 56.3308 91.0955C56.3191 91.0489 56.3016 91.0081 56.2841 90.9614C56.564 91.2705 56.8556 91.5679 57.1588 91.8478C58.1968 92.7983 59.9229 93.708 61.13 92.4601C62.3371 91.218 61.095 89.6902 60.0162 88.9088Z" fill="url(#paint0_linear_11_3342)"/>
<path d="M56.5291 8.02234C56.5291 8.02234 76.7929 26.2161 70.256 46.1593C63.7191 66.0966 68.2967 42.9987 68.2967 42.9987C68.2967 42.9987 70.1452 26.6535 56.5291 8.02234Z" fill="#005B54"/>
<path d="M58.8965 19.8018C58.8965 19.8018 79.1604 37.9955 72.6235 57.9387C66.0865 77.876 70.6641 54.7781 70.6641 54.7781C70.6641 54.7781 72.5127 38.4329 58.8965 19.8018Z" fill="#005B54"/>
<path d="M41.735 63.7466C41.735 63.7466 27.0342 77.3044 40.108 96.2679C40.108 96.2679 35.338 83.7831 42.5164 65.3969L41.735 63.7466Z" fill="#005B54"/>
<path d="M32.3638 63.0702C32.3638 63.0702 31.3084 55.0463 10.1406 61.6066C10.1406 61.6066 23.3311 65.6244 28.4452 64.5106C33.5651 63.3968 32.3638 63.0702 32.3638 63.0702Z" fill="#005B54"/>
<path d="M29.0226 64.2656C29.0226 64.2656 15.8146 72.9776 0 59.0874C0 59.0874 18.2871 67.7878 30.6553 62.9186C43.0236 58.0494 29.0226 64.2656 29.0226 64.2656Z" fill="#005B54"/>
<path d="M30.2762 64.5922C30.2762 64.5922 13.4936 63.3734 9.67993 78.6924C9.67993 78.6924 16.9808 66.6623 30.2762 64.5922Z" fill="#005B54"/>
<path d="M74.3262 59.9037C74.3262 59.9037 77.0494 67.5719 80.6474 67.6069C84.2453 67.6419 74.3262 59.0523 74.3262 59.0523C74.3262 59.0523 81.0789 60.6151 83.808 58.0785C86.5312 55.5419 73.8947 58.0785 73.8947 58.0785C73.8947 58.0785 71.6613 57.3962 69.3754 56.195C67.0895 54.9937 65.3984 55.7051 65.3984 55.7051L73.0783 59.0465C73.0783 59.0465 70.8449 65.2919 73.4573 68.0676C76.0698 70.8433 74.3262 59.9037 74.3262 59.9037Z" fill="#005B54"/>
<path d="M67.0255 71.6306L56.5874 41.57L29.4541 47.0748L31.5651 49.9322C30.912 49.6698 30.1831 49.9497 29.7224 50.5153C29.4308 50.871 29.3084 51.2501 29.25 51.6408C29.0051 50.9177 28.8127 50.1771 28.6669 49.4249C28.492 48.5268 28.1887 47.3431 27.1566 47.0923C26.0428 46.8241 25.0573 47.9554 24.5908 48.8301C24.4275 49.1274 24.3051 49.4423 24.2059 49.7631C24.1768 49.0167 24.2701 48.2528 24.3517 47.5122C24.4509 46.5792 24.8999 43.7801 23.4829 43.5294C22.8589 43.4186 22.3108 44.0192 21.9142 44.4216C21.5527 44.7889 21.2436 45.203 20.9637 45.6403C21.2611 44.649 21.6985 43.6926 22.2233 42.8005C23.1738 41.1852 25.3081 38.9401 24.1826 36.905C22.9639 34.6949 20.264 36.9866 19.1735 38.0946C18.8353 38.4386 18.5262 38.806 18.2346 39.1792C18.5262 38.6485 18.8469 38.1295 19.2143 37.6222C20.194 36.2694 21.541 34.6599 21.3019 32.8639C21.0745 31.1494 19.3543 30.7238 17.9547 31.3944C17.5466 31.5868 17.1675 31.8375 16.806 32.1291C17.3483 31.4993 17.9897 30.9395 18.6545 30.4555C19.5992 29.7674 20.608 29.1901 21.611 28.5953C22.3982 28.123 23.2438 27.6623 23.7977 26.9042C24.2409 26.3036 24.5208 25.3473 23.996 24.7058C23.4245 24.0061 22.4041 24.286 21.6751 24.4959C21.4652 24.5542 21.2728 24.6417 21.0687 24.7116C21.506 24.4259 21.9492 24.146 22.4041 23.8778C24.4683 22.6648 26.6959 21.6619 28.6028 20.204C29.2909 19.6792 30.5213 18.8395 30.5329 17.8598C30.5446 16.8335 29.4133 16.3787 28.5445 16.5769C27.6756 16.7752 26.8009 17.2592 26.002 17.749C28.8885 14.4893 30.4863 9.88256 30.3522 5.63735C30.2997 3.90544 29.2034 -1.36026 26.416 0.330829C25.1215 1.11806 25.0631 3.00741 24.8765 4.33696C24.6433 5.99889 24.4858 7.67248 24.2817 9.34024C23.9669 11.941 23.4829 14.571 22.4332 16.9618C22.5498 16.3728 22.649 15.7839 22.6898 15.1832C22.8181 13.4338 22.4682 11.3812 21.1736 10.0867C20.6663 9.57933 19.9666 9.4802 19.3893 9.94087C18.6603 10.524 18.4854 11.5445 18.3746 12.4134C18.0889 14.5884 18.5904 16.7519 18.5729 18.927C18.5612 20.1282 18.3571 21.3003 18.0597 22.4549C18.0014 21.7435 17.8731 21.0379 17.6399 20.3556C17.3541 19.5218 16.9226 18.5071 16.1237 18.0406C15.3715 17.6032 14.5259 17.889 14.0244 18.5479C12.6657 20.3207 13.6862 23.1139 13.8845 25.0907C14.0944 27.1783 13.8961 29.2659 13.3713 31.2836C12.5724 29.7907 11.4761 28.4787 10.0999 27.4465C9.32437 26.8634 8.39718 26.2511 7.40002 26.6127C6.57197 26.9159 6.07048 27.7789 5.96552 28.6128C5.83139 29.6625 6.35038 30.6013 6.986 31.3944C7.75574 32.3507 8.6421 33.2079 9.38851 34.1934C10.7239 35.9486 11.8027 37.8788 12.6482 39.9081C11.6336 39.22 10.5081 38.6777 9.31853 38.3395C7.21342 37.7447 4.54267 37.6222 2.53669 38.6427C1.55703 39.1384 0.781457 40.1589 0.933072 41.3018C1.08469 42.4447 2.07018 43.2145 3.01486 43.7393C5.35323 45.0397 8.11728 45.5645 10.6248 46.445C12.0534 46.9465 13.4588 47.5122 14.7942 48.2294C15.9138 48.8301 17.3891 49.5823 18.1472 50.6903C15.9604 50.1596 13.7037 49.8039 11.4645 50.1013C9.99497 50.2995 5.94219 51.3259 7.14345 53.6467C7.61578 54.5564 8.77039 54.813 9.68008 55.0404C11.0213 55.3728 12.3975 55.5827 13.7737 55.7169C14.8466 55.8218 15.9254 55.8568 17.0042 55.8743C16.7593 55.9734 16.5144 56.0492 16.2753 56.1659C14.8758 56.8423 12.7357 58.4226 13.8437 60.2128C14.9574 62.0089 17.4766 61.1458 19.0102 60.5452C20.0074 60.1545 20.9695 59.6822 21.9084 59.1748C21.6052 59.653 21.3486 60.1545 21.1911 60.691C20.8413 61.8922 21.1561 63.4842 22.6023 63.6825C23.3721 63.7874 24.1126 63.4026 24.7774 63.0527C25.5413 62.6503 26.2702 62.178 26.9583 61.6532C27.5706 61.1867 28.1363 60.6793 28.6727 60.137C28.6494 60.8193 28.7544 61.624 29.3433 62.0322C30.0898 62.5454 30.9178 62.0905 31.5767 61.6648C32.189 61.2683 32.7955 60.8718 33.402 60.4694C33.4253 60.8543 33.5302 61.2158 33.8276 61.4607C34.3758 61.9097 35.0989 61.6881 35.7112 61.519C37.239 61.0934 38.8601 61.2041 40.3296 61.7698L46.0093 69.4555L67.0255 71.6306ZM34.3408 55.6819C34.3233 55.6644 34.3116 55.6411 34.2883 55.6236C33.332 54.8888 32.7547 53.7809 32.6672 52.5854C32.6381 52.1597 32.6381 51.6991 32.5506 51.2617L36.0669 56.0143C35.4896 55.8976 34.9181 55.7927 34.3408 55.6819Z" fill="url(#paint1_linear_11_3342)"/>
<path opacity="0.24" d="M28.9934 18.1689C29.1567 19.306 19.9782 25.0382 19.9782 25.0382C23.9551 23.6503 23.8094 26.9101 20.2522 28.4903C16.6893 30.0765 15.7563 33.412 15.7563 33.412C15.7563 33.412 18.8994 31.1261 19.9782 32.6364C21.057 34.1467 16.8176 41.1618 16.8176 41.1618C16.8176 41.1618 21.6401 36.5609 22.783 38.0304C23.926 39.4999 19.6166 47.7571 19.6166 47.7571C19.6166 47.7571 21.2377 44.8647 22.544 45.5703C23.8502 46.2701 23.5178 51.2617 23.5178 51.2617C26.2119 46.9232 26.9524 54.1191 26.9524 54.1191C27.279 52.5563 29.7282 52.9878 30.2763 55.5011C30.8186 58.0202 22.783 62.4637 22.1299 60.0029C21.7101 58.4284 22.8588 57.2388 23.7452 56.5857C21.3077 58.0727 14.8583 61.7523 14.8583 59.0291C14.8583 55.676 22.783 54.4515 22.783 54.4515C22.783 54.4515 3.90701 54.294 8.8928 51.2617C10.9046 50.0371 13.2371 49.903 15.3014 50.1713C14.0302 50.0021 12.7473 49.9497 11.4761 50.1188C10.0066 50.317 5.95381 51.3434 7.15506 53.6642C7.6274 54.5739 8.782 54.8305 9.69169 55.0579C11.0329 55.3903 12.4091 55.6002 13.7853 55.7344C14.8583 55.8393 15.9371 55.8743 17.0159 55.8918C16.7709 55.9909 16.526 56.0667 16.2869 56.1834C14.8874 56.8598 12.7473 58.4401 13.8553 60.2303C14.9691 62.0264 17.4882 61.1633 19.0218 60.5627C20.019 60.172 20.9812 59.6997 21.92 59.1923C21.6168 59.6705 21.3602 60.172 21.2028 60.7085C20.8529 61.9097 21.1678 63.5017 22.6139 63.7C23.3837 63.8049 24.1242 63.4201 24.789 63.0702C25.5529 62.6678 26.2818 62.1955 26.9699 61.6707C27.5822 61.2041 28.1479 60.6968 28.6844 60.1545C28.661 60.8368 28.766 61.6415 29.355 62.0497C30.1014 62.5628 30.9294 62.108 31.5884 61.6823C32.2006 61.2858 32.8071 60.8893 33.4136 60.4869C33.4369 60.8718 33.5419 61.2333 33.8393 61.4782C34.3874 61.9272 35.1105 61.7056 35.7228 61.5365C37.2506 61.1108 38.8717 61.2216 40.3412 61.7873L46.0209 69.473L56.3016 70.5285C58.3659 69.2864 60.296 68.021 60.296 68.021L54.8845 57.5304C54.8845 57.5304 50.027 48.3985 47.4204 43.4302L29.4599 47.0748L31.5709 49.9322C30.9178 49.6698 30.1888 49.9497 29.7282 50.5153C29.4366 50.871 29.3141 51.2501 29.2558 51.6408C29.0109 50.9177 28.8185 50.1771 28.6727 49.4248C28.4978 48.5268 28.1945 47.3431 27.1624 47.0923C26.0486 46.8241 25.0631 47.9553 24.5966 48.83C24.4333 49.1274 24.3109 49.4423 24.2117 49.7631C24.1826 49.0167 24.2759 48.2527 24.3575 47.5122C24.4566 46.5792 24.9056 43.7801 23.4886 43.5294C22.8647 43.4186 22.3165 44.0192 21.92 44.4216C21.5585 44.7889 21.2494 45.203 20.9695 45.6403C21.2669 44.649 21.7042 43.6926 22.2291 42.8004C23.1796 41.1852 25.3138 38.9401 24.1884 36.905C22.9696 34.6949 20.2697 36.9866 19.1793 38.0946C18.8411 38.4386 18.532 38.806 18.2404 39.1792C18.532 38.6485 18.8527 38.1295 19.2201 37.6222C20.1998 36.2693 21.5468 34.6599 21.3077 32.8638C21.0803 31.1494 19.36 30.7237 17.9605 31.3944C17.5523 31.5868 17.1733 31.8375 16.8118 32.1291C17.3541 31.4993 17.9955 30.9395 18.6603 30.4555C19.605 29.7674 20.6138 29.1901 21.6168 28.5953C22.404 28.123 23.2495 27.6623 23.8035 26.9042C24.2467 26.3036 24.5266 25.3473 24.0018 24.7058C23.4303 24.006 22.4098 24.286 21.6809 24.4959C21.471 24.5542 21.2786 24.6417 21.0745 24.7116C21.5118 24.4259 21.955 24.146 22.4098 23.8778C24.4741 22.6648 26.7017 21.6619 28.6085 20.204C29.2966 19.6792 30.5271 18.8395 30.5387 17.8598C30.5504 16.8335 29.4191 16.3787 28.5502 16.5769C27.6814 16.7752 26.8067 17.2592 26.0078 17.749C26.0136 17.749 28.8301 17.0259 28.9934 18.1689ZM36.0668 56.0143C35.4954 55.8976 34.9181 55.7927 34.3407 55.6819C34.3233 55.6644 34.3116 55.641 34.2883 55.6236C33.3319 54.8888 32.7546 53.7809 32.6672 52.5854C32.638 52.1597 32.638 51.6991 32.5505 51.2617L36.0668 56.0143Z" fill="#006FB3"/>
<path opacity="0.24" d="M18.5845 18.9328C18.5729 20.134 18.3688 21.3061 18.0714 22.4608C18.013 21.7493 17.8848 21.0437 17.6515 20.3615C17.3658 19.5276 16.9342 18.5129 16.1354 18.0464C15.3831 17.6091 14.5376 17.8948 14.0361 18.5538C12.6774 20.3265 13.6979 23.1197 13.8961 25.0965C14.1002 27.1317 13.9136 29.1668 13.4121 31.1378C13.9953 32.03 14.3626 32.7122 14.3626 32.7122C17.7156 25.1956 12.5666 17.8365 15.3423 18.6587C18.118 19.4751 16.8118 25.3589 18.7769 22.0117C20.7363 18.6587 18.3862 12.4192 18.3862 12.4192C18.1063 14.5943 18.6078 16.7577 18.5845 18.9328Z" fill="#006FB3"/>
<path opacity="0.24" d="M3.00887 39.1734C7.99466 36.8058 14.7765 41.5409 14.7765 41.5409C14.1234 33.4528 5.37639 29.2834 7.99466 27.4874C8.97433 26.8168 10.1114 27.3766 11.1552 28.3446C10.8287 28.0297 10.4846 27.7323 10.1173 27.4524C9.3417 26.8692 8.41452 26.2569 7.41736 26.6185C6.58931 26.9217 6.08781 27.7848 5.98285 28.6186C5.84873 29.6683 6.36772 30.6071 7.00333 31.4002C7.77307 32.3565 8.65943 33.2137 9.40584 34.1992C10.7412 35.9545 11.82 37.8846 12.6656 39.9139C11.6509 39.2258 10.5255 38.6835 9.33587 38.3453C7.23076 37.7505 4.56 37.6281 2.55402 38.6485C1.57436 39.1442 0.798791 40.1647 0.950406 41.3076C1.10202 42.4506 2.08752 43.2203 3.03219 43.7451C5.37056 45.0455 8.13461 45.5703 10.6421 46.4509C12.0708 46.9524 13.4761 47.518 14.8115 48.2353C15.9311 48.8359 17.4064 49.5881 18.1645 50.6961C17.4531 50.5211 16.7358 50.3812 16.0128 50.2646C18.7302 50.7427 20.8294 51.8332 20.8294 51.8332C15.8378 43.751 -1.97692 41.5467 3.00887 39.1734Z" fill="#006FB3"/>
<path opacity="0.37" d="M45.0938 69.7878L36.4343 62.5453C36.4343 62.5453 27.8447 50.6494 25.6405 48.3052C23.4362 45.9551 40.2888 39.4182 40.2888 39.4182L53.6017 57.3671L55.4677 70.9424L45.0938 69.7878Z" fill="#006FB3"/>
<path d="M40.9243 65.3736C40.9126 63.8574 40.5278 62.2013 39.0583 61.4666C37.8162 60.8426 36.2826 60.7202 34.8306 60.8426C34.7897 60.5219 34.5565 60.4869 34.1541 60.3936C32.568 60.0321 30.3521 60.3645 28.591 61.0642C27.2148 61.6124 25.9145 63.5017 24.9173 64.668C24.7598 64.8546 24.6782 65.1462 24.8298 65.3678C25.1097 65.7876 25.5004 65.9626 25.9378 66.0267C25.5121 66.2425 25.0981 66.4699 24.684 66.7148C23.9085 67.1755 23.1562 67.6886 22.439 68.2368C21.8675 68.6741 20.9928 69.1931 20.6546 69.8521C20.3688 70.4119 20.6371 71.0358 21.1736 71.3274C21.8733 71.7064 22.5848 71.2982 23.2145 70.9717C23.302 70.925 23.3953 70.89 23.4886 70.8434C23.1446 71.0825 22.7947 71.3274 22.4565 71.5781C20.8937 72.7677 19.5466 74.3888 19.6224 76.459C19.6283 76.6514 19.7216 76.8672 19.9082 76.9546C20.433 77.2054 20.8762 77.1062 21.331 76.7564C21.8675 76.3423 22.3632 75.8525 22.8588 75.3802C21.1386 78.1092 19.844 81.0657 19.8382 84.3838C19.8382 85.4451 20.2464 90.3026 22.3573 88.629C23.1854 87.97 23.197 86.3956 23.3778 85.4392C23.6344 84.098 23.8793 82.7568 24.1476 81.4156C24.2584 80.8733 24.375 80.331 24.4974 79.7887C24.4566 81.643 24.6724 83.4741 25.3896 85.1477C25.6579 85.7774 26.0602 86.9029 26.9116 86.8387C27.7163 86.7804 28.3286 85.6375 28.6144 85.0019C29.4366 83.1708 29.3316 81.0424 29.3841 79.0831C29.4307 77.2695 29.4774 75.456 29.524 73.6424C30.008 74.6279 30.6203 75.5551 31.3493 76.4065C31.5767 76.6689 32.1073 76.6164 32.2531 76.2899C33.0112 74.6046 32.9704 72.9018 32.5855 71.2224C33.0695 71.6248 33.6351 71.9047 34.2124 71.5723C35.1221 71.0475 34.8189 69.957 34.6031 69.1406C34.4632 68.61 34.3174 68.0852 34.1775 67.5545C34.644 67.8169 35.1804 67.9219 35.7927 67.7469C36.4633 67.5545 36.8482 67.0064 37.0873 66.3474C37.478 67.193 38.0378 67.9219 38.8425 68.2251C39.5073 68.4759 40.242 68.2834 40.6036 67.642C40.9768 67.0122 40.9301 66.085 40.9243 65.3736Z" fill="url(#paint2_linear_11_3342)"/>
<path opacity="0.24" d="M27.932 8.448C27.932 8.448 25.8735 16.1978 19.5582 24.6416C13.2429 33.0854 9.21924 50.0196 36.0667 60.2478C36.0667 60.2478 37.3146 60.586 39.1223 62.0147C40.93 63.4433 46.6623 70.5284 46.6623 70.5284L61.0948 74.3013C61.0948 74.3013 55.1585 61.898 55.1469 61.4024C55.1352 60.9067 42.0672 51.2617 42.0672 51.2617L35.122 51.8448C35.122 51.8448 44.6096 54.3406 47.951 61.8747C51.2923 69.403 42.5162 59.0873 42.5162 59.0873C42.5162 59.0873 48.0618 65.6592 46.8022 66.3882C45.5485 67.1171 36.7606 59.3206 34.3057 52.6379C31.8507 45.9552 35.0404 58.131 35.0404 58.131C35.0404 58.131 17.838 54.6555 15.9194 39.1791C14.4208 27.0908 22.9112 25.4813 27.932 8.448Z" fill="#006FB3"/>
<path d="M77.6791 47.3489C77.1485 47.174 76.5712 47.1623 75.9939 47.2323C76.8569 46.2993 77.7025 45.3546 78.4722 44.3458C79.4402 43.0804 80.4315 41.4185 80.2974 39.7565C80.2508 39.1734 79.9942 38.5669 79.4169 38.3337C78.7113 38.0479 77.9182 38.497 77.3001 38.8235C77.026 38.9693 76.7753 39.1384 76.5187 39.3075C76.9502 38.6661 77.3643 38.013 77.7375 37.3365C78.1865 36.5143 78.5888 35.6688 78.9504 34.8057C79.2653 34.0476 79.6793 33.1788 79.3994 32.3449C79.172 31.6685 78.4897 31.2719 77.7958 31.2661C76.9677 31.2603 76.2738 31.7559 75.6848 32.2924C75.1717 32.7589 74.7518 33.3071 74.3786 33.8902C74.3786 32.4382 74.3261 30.9862 74.1978 29.5342C74.0987 28.3738 73.9821 27.2017 73.778 26.0587C73.6322 25.2423 73.1482 24.5892 72.2385 24.6592C70.1392 24.8225 70.4716 27.6798 70.7282 29.091C71.1364 31.3244 72.1744 33.3887 73.1948 35.3947C73.189 35.5988 73.1832 35.8087 73.1715 36.0128C72.7633 35.418 72.2852 34.8699 71.7079 34.415C71.2239 34.0302 70.4366 33.517 69.9526 34.2051C69.6144 34.6833 69.7893 35.523 69.906 36.0478C70.1392 37.0741 70.7107 37.9955 71.323 38.8935C71.1072 38.8877 70.874 38.981 70.7807 39.1676C70.0459 40.5554 70.1451 42.0949 70.5416 43.5761C70.5882 43.7568 70.6466 43.9318 70.699 44.1125C70.2908 44.1709 69.8652 44.4741 69.5561 44.9231C68.6347 46.2468 68.6814 47.7571 68.763 49.2849C68.2324 48.212 67.4626 47.5705 66.378 48.5852C64.9785 49.8914 64.4478 52.1248 65.0135 53.9325C65.3342 54.9588 65.9873 55.7577 66.8562 56.3817C67.6842 56.9823 68.8505 57.8045 69.9235 57.6762C70.8973 57.5596 71.6029 56.6791 71.7545 55.7519C71.7895 55.5478 71.7895 55.3495 71.772 55.1571C72.0694 55.3029 72.3726 55.4253 72.6934 55.5128C73.6555 55.781 74.9384 55.886 75.7256 55.1454C76.4604 54.4573 76.3554 53.3552 75.7665 52.6088C75.6557 52.4688 75.5274 52.3522 75.3991 52.2473C75.714 52.1423 76.023 52.0257 76.3321 51.8915C77.3759 51.4367 78.5947 50.7486 78.9387 49.5707C79.2303 48.5677 78.6296 47.6522 77.6791 47.3489Z" fill="url(#paint3_linear_11_3342)"/>
<path opacity="0.24" d="M40.9243 65.3736C40.9126 63.8574 40.5278 62.2013 39.0583 61.4666C37.8162 60.8426 36.2825 60.7202 34.8305 60.8426C34.7897 60.5219 34.5565 60.4869 34.1541 60.3936C32.568 60.0321 30.3521 60.3645 28.591 61.0642C34.8539 59.2857 32.0257 61.5366 32.0257 61.5366C39.8688 59.3556 38.9999 66.3299 38.0086 66.0442C37.1922 65.8051 37.4313 64.2073 37.5363 63.6533C37.408 64.254 36.889 66.0675 35.3437 66.3882C33.9617 66.674 33.5185 65.8867 33.3844 65.4727C33.6351 66.5573 34.5973 70.96 33.6176 70.9425C32.498 70.9192 31.5825 69.2748 31.5825 69.2748C31.5825 69.2748 32.8187 74.1847 31.5825 74.2839C30.3462 74.383 28.9117 70.0911 28.9117 70.0911C28.9117 70.0911 29.2908 85.4567 26.515 84.0572C23.7393 82.6577 25.4421 76.5756 25.4421 76.5756C25.4421 76.5756 21.0686 86.9262 20.4213 83.2758C19.774 79.6254 24.4974 72.8552 24.4974 72.8552C24.4974 72.8552 19.9081 76.9605 20.468 74.6104C21.0278 72.2604 27.3897 67.7469 27.3897 67.7469C27.3897 67.7469 18.5086 72.5986 21.3135 69.3797C23.2028 67.2163 26.2293 66.085 28.0137 65.5777C27.1098 65.7118 26.0894 65.6593 25.9727 64.8021C25.757 63.2218 28.5852 61.0584 28.5852 61.0584C27.209 61.6065 25.9086 63.4959 24.9114 64.6622C24.754 64.8488 24.6723 65.1403 24.824 65.3619C25.1039 65.7818 25.4946 65.9567 25.9319 66.0209C25.5062 66.2366 25.0922 66.464 24.6782 66.709C23.9026 67.1696 23.1504 67.6828 22.4331 68.2309C21.8616 68.6683 20.9869 69.1873 20.6487 69.8462C20.363 70.406 20.6312 71.03 21.1677 71.3216C21.8675 71.7006 22.5789 71.2924 23.2087 70.9658C23.2962 70.9192 23.3895 70.8842 23.4828 70.8376C23.1387 71.0766 22.7888 71.3216 22.4506 71.5723C20.8878 72.7619 19.5408 74.383 19.6166 76.4531C19.6224 76.6456 19.7157 76.8613 19.9023 76.9488C20.4271 77.1995 20.8703 77.1004 21.3252 76.7505C21.8616 76.3365 22.3573 75.8467 22.853 75.3743C21.1327 78.1034 19.8382 81.0599 19.8323 84.3779C19.8323 85.4392 20.2405 90.2967 22.3515 88.6231C23.1795 87.9642 23.1912 86.3897 23.372 85.4334C23.6285 84.0922 23.8735 82.751 24.1417 81.4098C24.2525 80.8675 24.3691 80.3251 24.4916 79.7828C24.4508 81.6372 24.6665 83.4682 25.3838 85.1418C25.652 85.7716 26.0544 86.8971 26.9057 86.8329C27.7105 86.7746 28.3228 85.6316 28.6085 84.996C29.4307 83.165 29.3258 81.0366 29.3782 79.0772C29.4249 77.2637 29.4715 75.4501 29.5182 73.6366C30.0022 74.6221 30.6145 75.5493 31.3434 76.4007C31.5708 76.6631 32.1015 76.6106 32.2473 76.284C33.0053 74.5988 32.9645 72.896 32.5796 71.2166C33.0636 71.6189 33.6293 71.8989 34.2066 71.5665C35.1163 71.0417 34.813 69.9512 34.5973 69.1348C34.4573 68.6041 34.3115 68.0793 34.1716 67.5487C34.6381 67.8111 35.1746 67.9161 35.7869 67.7411C36.4575 67.5487 36.8423 67.0005 37.0756 66.3416C37.4663 67.1871 38.0261 67.916 38.8308 68.2193C39.4956 68.47 40.2304 68.2776 40.5919 67.6361C40.9768 67.0122 40.9301 66.085 40.9243 65.3736Z" fill="#006FB3"/>
<path opacity="0.3" d="M69.9526 34.1992C69.6144 34.6773 69.7893 35.5171 69.906 36.0419C70.1392 37.0682 70.7107 37.9895 71.323 38.8876C71.1072 38.8817 70.874 38.975 70.7807 39.1616C70.0459 40.5495 70.1451 42.089 70.5416 43.5701C70.5882 43.7509 70.6466 43.9258 70.699 44.1066C70.2908 44.1649 69.8652 44.4682 69.5561 44.9172C68.6347 46.2409 68.6814 47.7512 68.763 49.279C68.2324 48.206 67.4626 47.5646 66.378 48.5792C64.9785 49.8855 64.4478 52.1189 65.0135 53.9266C65.3342 54.9529 65.9873 55.7518 66.8562 56.3757C67.6842 56.9764 68.8505 57.7986 69.9235 57.6703C70.8973 57.5537 71.6029 56.6731 71.7545 55.746C71.7895 55.5419 71.7895 55.3436 71.772 55.1512C72.0694 55.2969 72.3726 55.4194 72.6934 55.5069C73.6555 55.7751 74.9384 55.8801 75.7256 55.1395C75.9356 54.9471 76.0639 54.7138 76.1455 54.4689C75.8073 55.571 69.766 56.2008 69.9293 50.1712C70.0984 44.1299 71.6845 45.7161 71.6845 45.7161C68.868 35.9486 72.8275 40.0013 72.8275 40.0013C68.6114 34.4091 70.1451 33.9251 70.4425 33.8843C70.2733 33.9018 70.0984 33.9951 69.9526 34.1992Z" fill="#006FB3"/>
<path opacity="0.24" d="M74.7927 40.1531C74.7927 40.1531 79.4986 37.7039 79.5802 40.6429C79.6618 43.5819 73.8422 47.9554 73.8422 47.9554C73.8422 47.9554 77.4984 47.2965 77.7375 48.8943C77.9824 50.4979 72.5476 52.2473 72.5476 52.2473C74.5827 52.1248 76.4604 53.3436 76.1572 54.4457C76.3555 53.8334 76.1922 53.122 75.7665 52.5913C75.6557 52.4514 75.5274 52.3347 75.3991 52.2298C75.714 52.1248 76.0231 52.0082 76.3321 51.8741C77.376 51.4192 78.5947 50.7311 78.9388 49.5532C79.2303 48.5619 78.6239 47.6522 77.6792 47.3431C77.1485 47.1682 76.5712 47.1565 75.9939 47.2265C76.857 46.2935 77.7025 45.3488 78.4722 44.34C79.4402 43.0746 80.4316 41.4126 80.2975 39.7507C80.2508 39.1676 79.9942 38.5611 79.4169 38.3279C78.7113 38.0421 77.9183 38.4911 77.3001 38.8177C77.0261 38.9635 76.7753 39.1326 76.5188 39.3017C76.9503 38.6603 77.3643 38.0071 77.7375 37.3307C78.1865 36.5085 78.5889 35.6629 78.9504 34.7999C79.2653 34.0418 79.6793 33.173 79.3994 32.3391C79.242 31.8842 78.8746 31.5635 78.4431 31.3944C78.5539 31.5169 78.6472 31.6627 78.723 31.8609C79.4577 33.8202 74.7927 40.1531 74.7927 40.1531Z" fill="#006FB3"/>
<path opacity="0.3" d="M72.0578 27.9248C72.0578 27.9248 77.7258 45.8037 67.591 55.0464C57.4561 64.289 67.8009 56.4284 67.8009 56.4284C67.8009 56.4284 78.4314 48.3811 72.0578 27.9248Z" fill="#006FB3"/>
<path d="M64.2089 85.8298C64.2089 85.8298 66.1741 78.8905 67.0313 87.7191C67.0313 87.7191 69.8887 87.7483 68.32 89.002C66.7514 90.2499 74.7928 91.1538 74.7928 91.1538L65.1361 78.7622L59.7305 80.0393L64.2089 85.8298Z" fill="url(#paint4_linear_11_3342)"/>
<path d="M33.3262 52.8244C33.3262 52.8244 40.9477 50.7543 46.7266 56.8539C52.5054 62.9534 54.0274 67.7934 50.7619 69.7878C47.4905 71.7821 60.2436 76.7912 60.6751 72.7617C61.1125 68.7323 61.9813 56.7431 62.2029 51.4074C62.4187 46.0659 65.8009 41.2725 57.2988 38.3335C48.7967 35.3945 42.3706 33.2136 38.5569 34.1933C34.7432 35.1729 30.2764 44.4914 30.2764 44.9521C30.2764 45.4128 33.3262 52.8244 33.3262 52.8244Z" fill="url(#paint5_linear_11_3342)"/>
<path opacity="0.28" d="M62.1153 53.1393C62.0803 51.8914 62.1386 51.1975 62.2319 50.8301C62.2494 50.6202 62.2727 50.4103 62.296 50.2062L51.0824 40.6194C51.0824 40.6194 45.3618 39.4765 41.4374 40.2929C37.5129 41.1093 31.3025 42.8528 31.3025 42.8528L32.2647 50.2295C32.842 51.6582 33.3201 52.8244 33.3201 52.8244C33.3201 52.8244 35.1104 52.3463 37.612 52.5387C37.6178 52.5329 35.0171 49.6405 39.4255 48.311C43.834 46.9814 50.8666 53.1335 52.2836 55.052C53.7007 56.9705 57.7884 68.2367 51.8463 69.7936C45.91 71.3506 59.0946 72.3303 59.0946 72.3303C59.0946 72.3303 59.8061 72.8201 60.6516 72.8609C60.6574 72.8259 60.6691 72.7968 60.6749 72.7618C61.0656 69.1172 61.8179 58.994 62.1153 53.1393Z" fill="#DD402E"/>
<path d="M75.3818 64.9187C75.3818 64.9187 68.6816 57.9444 68.2967 50.0429C67.9177 42.1415 63.0369 63.7174 63.0369 63.7174C63.0369 63.7174 74.0756 66.0616 75.3818 64.9187Z" fill="url(#paint6_linear_11_3342)"/>
<path d="M75.1659 71.3449C75.1659 71.3449 74.0755 67.642 75.3817 64.9188C75.3817 64.9188 69.9352 65.5719 68.8448 58.9241C67.7543 52.2764 68.629 44.649 72.5477 44.7598C72.5477 44.7598 67.8651 38.9868 67.317 35.1731C66.7747 31.3594 66.8796 25.8021 55.7651 20.6822C44.6506 15.5623 33.9734 18.9387 27.1099 24.8225C20.2522 30.7005 21.1211 45.0864 23.0804 46.2818C25.0398 47.4831 40.5161 60.5569 44.219 74.2839C44.219 74.2839 54.9254 77.4911 64.2089 85.8241C63.9756 84.6462 63.929 83.1825 64.7862 82.2378C66.4189 80.4418 67.3986 87.2236 67.3986 87.2236C67.3986 87.2236 68.3783 86.6521 69.1947 87.7134C70.011 88.7747 67.591 89.1829 67.591 89.1829C70.3551 92.2327 72.8217 95.819 74.6178 100C74.6236 100 83.9888 88.7806 75.1659 71.3449ZM54.8146 66.1433C54.2431 69.0823 50.4003 75.4618 37.8162 58.4635C33.985 53.2911 33.157 47.104 34.7081 45.308C36.2593 43.5119 50.4003 48.9875 52.9311 51.8857C55.4735 54.7839 55.3919 63.1985 54.8146 66.1433Z" fill="url(#paint7_linear_11_3342)"/>
<path opacity="0.28" d="M57.2697 51.7574C51.7649 48.8126 39.6765 45.5995 39.6765 45.5995C44.5049 46.9232 51.2575 49.9672 52.937 51.8857C53.9866 53.087 54.5814 55.2271 54.8846 57.5363C55.0304 57.8628 55.1237 58.1719 55.147 58.4635C55.5611 62.9594 58.4942 65.4086 58.4942 65.4086C58.4942 65.4086 56.6982 60.3411 61.9755 58.7084C65.7368 57.5421 68.5183 60.2187 69.8129 61.8631C69.3872 61.0934 69.0431 60.1312 68.8449 58.93C67.7544 52.2822 68.6291 44.6548 72.5478 44.7656C67.6494 43.6402 64.5996 55.6819 57.2697 51.7574Z" fill="url(#paint8_linear_11_3342)"/>
<path d="M58.6049 69.7878C62.1445 74.5578 70.3434 82.9549 67.037 74.6978C66.9204 74.412 66.7979 74.1554 66.6755 73.8872C65.1768 71.0182 62.7568 67.8984 58.8615 65.9683C58.6982 65.8866 58.5583 65.8283 58.4125 65.7642C57.6952 65.5076 57.2287 65.4201 57.1587 65.4026C56.9896 65.3968 56.8555 65.4201 56.7447 65.4668C56.3774 65.7 56.2141 66.563 58.6049 69.7878Z" fill="url(#paint9_linear_11_3342)"/>
<path d="M45.0938 21.1135L50.9776 25.4462C50.9776 25.4462 52.1205 33.4526 58.2492 38.1119C58.2492 38.1119 57.9227 41.1383 60.2902 45.7101C60.2902 45.7101 58.7624 39.9079 59.8529 37.5637C59.8529 37.5637 53.6425 29.5573 52.3888 25.6328L45.0938 21.1135Z" fill="url(#paint10_linear_11_3342)"/>
<path opacity="0.28" d="M45.0938 21.1135L50.9776 25.4462C50.9776 25.4462 52.0622 32.922 57.6719 37.6279C57.2638 37.0914 52.2371 30.3387 52.3946 25.6328L45.0938 21.1135Z" fill="#DD402E"/>
<path opacity="0.28" d="M71.5679 79.2987C69.7544 74.7678 64.9552 69.9044 61.4739 67.6011C60.6808 67.0004 59.8178 66.4464 58.8556 65.9741C58.6924 65.8808 58.5757 65.8167 58.5757 65.8167C58.6224 65.8458 58.6632 65.8808 58.704 65.91C51.4732 62.4753 62.8676 77.9692 67.4044 80.5466C68.0925 80.9373 68.9147 80.325 68.7456 79.5553C68.5123 78.5056 68.0458 76.8146 67.1769 74.9252C71.1306 80.9373 72.4426 86.4071 68.2966 82.8967C61.8413 77.421 44.6797 72.027 44.6797 72.027C41.8048 61.4432 23.5935 46.2059 30.2704 51.0634C36.9415 55.9267 32.6671 50.4511 31.6058 47.1039C30.5445 43.7509 33.9733 40.3221 33.9733 40.3221C33.9733 40.3221 29.3199 37.8729 28.0137 31.4934C27.4131 28.5719 28.3461 25.9828 29.524 24.0293C21.9083 29.9131 21.5817 38.3686 21.7159 41.2726C21.8616 43.9083 22.4098 45.8735 23.0804 46.2817C25.0397 47.4829 40.5161 60.5568 44.219 74.2838C44.219 74.2838 54.9253 77.491 64.2088 85.824C63.9755 84.646 63.9289 83.1824 64.7861 82.2377C66.4189 80.4417 67.3985 87.2235 67.3985 87.2235C67.3985 87.2235 68.3782 86.652 69.1946 87.7133C70.011 88.7746 67.591 89.1828 67.591 89.1828C70.355 92.2326 72.8217 95.8189 74.6177 100C74.6177 100 76.9269 97.2301 78.169 92.3143C74.1629 100.985 74.2679 86.0339 71.5679 79.2987Z" fill="#DD402E"/>
<path d="M33.6119 29.6158C34.0375 27.2017 37.8979 21.9884 40.1313 22.0409C42.3647 22.0934 37.5888 34.0593 35.1163 32.7181C33.2153 31.686 33.4136 30.7471 33.6119 29.6158Z" fill="#F6F6BF"/>
<path d="M38.0029 34.3858C36.8424 32.7822 39.0992 29.8374 40.1371 29.3709C41.1693 28.9044 41.0993 38.6718 38.0029 34.3858Z" fill="#F6F6BF"/>
<path opacity="0.24" d="M20.468 85.4742C25.8678 67.6828 31.5417 62.3355 35.0697 60.8368C34.988 60.8426 34.9064 60.8368 34.8248 60.8485C34.8014 60.6619 34.7023 60.5744 34.5507 60.5103C24.8707 64.8721 20.468 85.4742 20.468 85.4742Z" fill="#006FB3"/>
<path d="M26.4277 0.330841C25.1331 1.11807 25.0748 3.00743 24.8882 4.33697C24.655 5.9989 24.4975 7.67249 24.2934 9.34026C23.9785 11.941 23.4945 14.571 22.4449 16.9618C22.4449 16.9618 22.3924 17.0376 22.3108 17.1426C21.7335 17.9356 19.6867 20.933 23.7453 18.1631C28.3812 14.9967 30.3347 5.20001 30.3347 5.20001C30.1423 3.1707 29.0168 -1.23779 26.4277 0.330841Z" fill="url(#paint11_linear_11_3342)"/>
<path d="M22.7073 15.1833C22.8356 13.4339 22.4857 11.3812 21.1911 10.0867C20.6838 9.57936 19.984 9.48022 19.4067 9.9409C18.6778 10.524 18.5029 11.5445 18.3921 12.4134C18.3921 12.4134 19.0627 14.1978 19.3834 16.3729C19.6866 16.8452 19.9957 17.3 20.2523 17.6791C20.9462 18.7054 21.955 17.6033 22.3107 17.1426C22.3924 17.026 22.4449 16.9618 22.4449 16.9618C22.5673 16.3729 22.6606 15.7839 22.7073 15.1833Z" fill="url(#paint12_linear_11_3342)"/>
<path d="M32.0199 61.5365C32.0199 61.5365 34.8539 59.2856 28.5852 61.0642C28.5852 61.0642 25.7512 63.2276 25.9728 64.8079C25.9728 64.8079 26.311 65.7992 29.5474 64.5688C29.5474 64.5688 29.7865 66.499 31.3085 67.3679C32.8363 68.2367 32.9412 63.7466 32.9412 63.7466C32.9412 63.7466 34.0959 66.0092 35.7578 65.4085C36.4517 65.1578 37.064 64.6446 37.4255 64.0498C37.4722 63.8924 37.513 63.7524 37.5305 63.6475C37.513 63.7291 37.4955 63.8399 37.478 63.9624C37.927 63.1693 37.9095 62.248 37.0232 61.6473C36.0085 61.07 34.4282 60.8718 32.0199 61.5365Z" fill="url(#paint13_linear_11_3342)"/>
<path d="M73.638 39.1792C74.3786 38.9984 73.8363 37.1499 73.4631 36.1002C73.2707 35.7154 73.189 35.383 73.189 35.383C73.1832 35.5871 73.1774 35.797 73.1657 36.0011C72.7575 35.4063 72.2793 34.8581 71.702 34.4033C71.218 34.0184 70.4308 33.5053 69.9468 34.1934C69.6319 34.6424 69.7602 35.4005 69.8768 35.9253C70.0576 36.0944 70.25 36.2402 70.4658 36.351C70.4716 36.3568 72.6001 39.4299 73.638 39.1792Z" fill="url(#paint14_linear_11_3342)"/>
<path d="M78.7231 31.8608C78.6473 31.6626 78.5482 31.5168 78.4432 31.3943C78.2391 31.3127 78.0175 31.2602 77.7959 31.2544C76.9679 31.2486 76.2739 31.7442 75.685 32.2807C75.1718 32.7472 74.752 33.2954 74.3788 33.8785C74.3788 32.4265 74.3263 30.9745 74.198 29.5225C74.0989 28.362 73.9822 27.1899 73.7781 26.047C73.6323 25.2306 73.1483 24.5775 72.2387 24.6475C70.1394 24.8108 70.4718 27.6681 70.7283 29.0793C71.1365 31.3127 72.1745 33.377 73.195 35.383C73.195 35.383 73.3175 35.6804 73.4691 36.1002C73.8656 36.8875 74.7403 37.8788 76.4372 36.6425C76.9212 36.2868 77.3061 35.9661 77.6443 35.6629C78.4315 34.1526 79.0147 32.6539 78.7231 31.8608Z" fill="url(#paint15_linear_11_3342)"/>
<defs>
<linearGradient id="paint0_linear_11_3342" x1="47.0566" y1="77.0772" x2="60.8317" y2="88.4637" gradientUnits="userSpaceOnUse">
<stop stop-color="#006FB3"/>
<stop offset="0.1148" stop-color="#167BBA"/>
<stop offset="0.3543" stop-color="#4F9BCA"/>
<stop offset="0.6945" stop-color="#A9CEE5"/>
<stop offset="1" stop-color="white"/>
</linearGradient>
<linearGradient id="paint1_linear_11_3342" x1="33.9748" y1="59.207" x2="33.9748" y2="-12.4228" gradientUnits="userSpaceOnUse">
<stop stop-color="#008D63"/>
<stop offset="0.3409" stop-color="#16A166"/>
<stop offset="1" stop-color="#4ACF6D"/>
</linearGradient>
<linearGradient id="paint2_linear_11_3342" x1="30.2741" y1="88.9804" x2="30.2741" y2="60.246" gradientUnits="userSpaceOnUse">
<stop stop-color="#008D63"/>
<stop offset="0.3409" stop-color="#16A166"/>
<stop offset="1" stop-color="#4ACF6D"/>
</linearGradient>
<linearGradient id="paint3_linear_11_3342" x1="72.5505" y1="57.681" x2="72.5505" y2="24.641" gradientUnits="userSpaceOnUse">
<stop stop-color="#008D63"/>
<stop offset="0.3409" stop-color="#16A166"/>
<stop offset="1" stop-color="#4ACF6D"/>
</linearGradient>
<linearGradient id="paint4_linear_11_3342" x1="59.7291" y1="84.9539" x2="74.7928" y2="84.9539" gradientUnits="userSpaceOnUse">
<stop stop-color="#862924"/>
<stop offset="0.4304" stop-color="#882B26"/>
<stop offset="0.6272" stop-color="#90302B"/>
<stop offset="0.7765" stop-color="#9C3A35"/>
<stop offset="0.9011" stop-color="#AE4742"/>
<stop offset="1" stop-color="#C35752"/>
</linearGradient>
<linearGradient id="paint5_linear_11_3342" x1="53.7923" y1="49.0972" x2="41.7365" y2="61.1529" gradientUnits="userSpaceOnUse">
<stop stop-color="#862924"/>
<stop offset="0.0623" stop-color="#8C2D28"/>
<stop offset="0.4437" stop-color="#AA443F"/>
<stop offset="0.7696" stop-color="#BC524D"/>
<stop offset="1" stop-color="#C35752"/>
</linearGradient>
<linearGradient id="paint6_linear_11_3342" x1="61.6488" y1="52.1849" x2="73.7788" y2="64.315" gradientUnits="userSpaceOnUse">
<stop stop-color="#862924"/>
<stop offset="0.0623" stop-color="#8C2D28"/>
<stop offset="0.4437" stop-color="#AA443F"/>
<stop offset="0.7696" stop-color="#BC524D"/>
<stop offset="1" stop-color="#C35752"/>
</linearGradient>
<linearGradient id="paint7_linear_11_3342" x1="28.1064" y1="24.2775" x2="85.1228" y2="81.2939" gradientUnits="userSpaceOnUse">
<stop stop-color="#FFF1D2"/>
<stop offset="0.1272" stop-color="#FCEACE"/>
<stop offset="0.3072" stop-color="#F3D8C2"/>
<stop offset="0.5189" stop-color="#E4B9AF"/>
<stop offset="0.7544" stop-color="#CF8F95"/>
<stop offset="1" stop-color="#B55B74"/>
</linearGradient>
<linearGradient id="paint8_linear_11_3342" x1="72.8031" y1="71.904" x2="55.3924" y2="44.0213" gradientUnits="userSpaceOnUse">
<stop stop-color="white"/>
<stop offset="0.1022" stop-color="#FEF9F8"/>
<stop offset="0.2469" stop-color="#FBE8E6"/>
<stop offset="0.417" stop-color="#F6CCC7"/>
<stop offset="0.6064" stop-color="#EFA59D"/>
<stop offset="0.8091" stop-color="#E67467"/>
<stop offset="1" stop-color="#DD402E"/>
</linearGradient>
<linearGradient id="paint9_linear_11_3342" x1="56.6427" y1="65.552" x2="68.3942" y2="77.3034" gradientUnits="userSpaceOnUse">
<stop stop-color="#862924"/>
<stop offset="0.0623" stop-color="#8C2D28"/>
<stop offset="0.4437" stop-color="#AA443F"/>
<stop offset="0.7696" stop-color="#BC524D"/>
<stop offset="1" stop-color="#C35752"/>
</linearGradient>
<linearGradient id="paint10_linear_11_3342" x1="45.0926" y1="33.4134" x2="60.2926" y2="33.4134" gradientUnits="userSpaceOnUse">
<stop stop-color="#862924"/>
<stop offset="1" stop-color="#C35752"/>
</linearGradient>
<linearGradient id="paint11_linear_11_3342" x1="12.7502" y1="-2.34668" x2="30.1186" y2="15.0218" gradientUnits="userSpaceOnUse">
<stop stop-color="#FFFF52"/>
<stop offset="0.6026" stop-color="#60601F"/>
<stop offset="0.9815"/>
</linearGradient>
<linearGradient id="paint12_linear_11_3342" x1="12.5475" y1="5.73184" x2="24.8546" y2="18.0389" gradientUnits="userSpaceOnUse">
<stop stop-color="#FFFF52"/>
<stop offset="0.614" stop-color="#60601F"/>
<stop offset="1"/>
</linearGradient>
<linearGradient id="paint13_linear_11_3342" x1="10.6245" y1="42.3472" x2="35.0535" y2="66.7762" gradientUnits="userSpaceOnUse">
<stop stop-color="#FFFF52"/>
<stop offset="0.614" stop-color="#60601F"/>
<stop offset="1"/>
</linearGradient>
<linearGradient id="paint14_linear_11_3342" x1="62.8746" y1="27.0791" x2="75.5258" y2="39.7303" gradientUnits="userSpaceOnUse">
<stop stop-color="#FFFF52"/>
<stop offset="0.614" stop-color="#60601F"/>
<stop offset="1"/>
</linearGradient>
<linearGradient id="paint15_linear_11_3342" x1="55.6719" y1="12.9545" x2="78.0061" y2="35.2887" gradientUnits="userSpaceOnUse">
<stop stop-color="#FFFF52"/>
<stop offset="0.614" stop-color="#60601F"/>
<stop offset="1"/>
</linearGradient>
</defs>
</svg>
