<svg width="41" height="40" viewBox="0 0 41 40" fill="none" xmlns="http://www.w3.org/2000/svg">
<path d="M20.4324 38.3442C9.91629 38.3442 1.39136 30.0389 1.39136 19.7939C1.39136 9.54886 9.91629 1.24365 20.4324 1.24365C30.9485 1.24365 39.4734 9.54886 39.4734 19.7939C39.4734 30.0389 30.9485 38.3442 20.4324 38.3442Z" stroke="url(#paint0_linear_89_3346)" stroke-width="1.5" stroke-miterlimit="10"/>
<path fill-rule="evenodd" clip-rule="evenodd" d="M30.8684 19.2774C30.7283 13.916 26.1957 9.61719 20.6225 9.61719C15.1093 9.61719 10.6167 13.8185 10.3766 19.1019C10.3766 19.2481 10.3665 19.3943 10.3665 19.5405C10.3665 21.4121 10.9069 23.1668 11.8374 24.6582L9.98633 29.9805L15.6696 28.2259C17.1405 29.0155 18.8314 29.4639 20.6225 29.4639C26.2858 29.4639 30.8784 25.0286 30.8784 19.5503C30.8784 19.4528 30.8784 19.3651 30.8684 19.2774ZM20.6225 27.8653C18.8715 27.8653 17.2405 27.3584 15.8797 26.4811L12.5678 27.5143L13.6384 24.4145C12.6078 23.04 11.9975 21.3537 11.9975 19.5308C11.9975 19.2579 12.0075 18.9849 12.0375 18.7217C12.4578 14.5009 16.1499 11.1963 20.6125 11.1963C25.1351 11.1963 28.8572 14.5886 29.2074 18.8777C29.2275 19.0921 29.2375 19.3066 29.2375 19.5308C29.2475 24.1318 25.3752 27.8653 20.6225 27.8653Z" fill="url(#paint1_linear_89_3346)"/>
<path fill-rule="evenodd" clip-rule="evenodd" d="M25.3255 21.5389C25.0753 21.4219 23.8346 20.8273 23.6045 20.7493C23.3744 20.6616 23.2043 20.6323 23.0342 20.8663C22.8641 21.11 22.3838 21.6559 22.2337 21.8118C22.0836 21.9775 21.9435 21.997 21.6834 21.8703C21.4332 21.7533 20.6228 21.4999 19.6622 20.6616C18.9218 20.0182 18.4115 19.2286 18.2614 18.9849C18.1213 18.7412 18.2514 18.6145 18.3715 18.4878C18.4815 18.3708 18.6216 18.2051 18.7517 18.0589C18.7817 18.0199 18.8117 17.9809 18.8417 17.9419C18.9018 17.8542 18.9418 17.7665 19.0018 17.6495C19.0919 17.4838 19.0418 17.3473 18.9818 17.2206C18.9218 17.1036 18.4115 15.9046 18.2014 15.4172C17.9912 14.9298 17.7811 15.0175 17.631 15.0175C17.4909 15.0175 17.3208 14.998 17.1508 14.998C16.9807 14.998 16.7105 15.0565 16.4804 15.3002C16.2502 15.5439 15.5999 16.1288 15.5999 17.3278C15.5999 17.6105 15.6499 17.8932 15.7299 18.1564C15.9801 19.0142 16.5304 19.716 16.6304 19.8428C16.7505 19.9987 18.3715 22.5332 20.9229 23.5177C23.4844 24.4828 23.4844 24.1611 23.9447 24.1221C24.4049 24.0831 25.4355 23.5372 25.6357 22.9621C25.8458 22.3967 25.8458 21.9093 25.7857 21.8021C25.7357 21.7143 25.5756 21.6559 25.3255 21.5389Z" fill="url(#paint2_linear_89_3346)"/>
<defs>
<linearGradient id="paint0_linear_89_3346" x1="20.4324" y1="1.24365" x2="20.4324" y2="38.3442" gradientUnits="userSpaceOnUse">
<stop stop-color="#FE2DAD"/>
<stop offset="0.984375" stop-color="#B44F22"/>
</linearGradient>
<linearGradient id="paint1_linear_89_3346" x1="20.4324" y1="9.61719" x2="20.4324" y2="29.9805" gradientUnits="userSpaceOnUse">
<stop stop-color="#FE2DAD"/>
<stop offset="1" stop-color="#B44F22"/>
</linearGradient>
<linearGradient id="paint2_linear_89_3346" x1="20.7101" y1="14.998" x2="20.7101" y2="24.2045" gradientUnits="userSpaceOnUse">
<stop stop-color="#FE2DAD"/>
<stop offset="1" stop-color="#B44F22"/>
</linearGradient>
</defs>
</svg>
