<svg width="1728" height="80" viewBox="0 0 1728 80" fill="none" xmlns="http://www.w3.org/2000/svg">
<path opacity="0.75" d="M1727.65 20.0762V79.3011H0V18.0686C10.3659 18.0686 19.868 24.0915 28.5063 30.1143C37.1446 37.141 44.919 45.1715 53.5573 51.1944C77.7445 66.2516 109.706 65.2478 132.166 47.1792C140.804 40.1525 148.578 32.122 157.217 26.0991C165.886 19.7926 175.652 15.801 185.81 14.4123C195.968 13.0236 206.265 14.2724 215.957 18.0686C225.649 14.2724 235.946 13.0236 246.104 14.4123C256.262 15.801 266.028 19.7926 274.697 26.0991C283.335 32.122 290.246 40.1525 298.884 47.1792C322.208 65.2478 353.305 66.2516 377.493 51.1944C386.995 45.1715 394.769 37.141 403.407 30.1143C412.046 23.0877 421.548 18.0686 431.914 18.0686C433.064 17.9874 434.218 17.9874 435.369 18.0686C445.735 18.0686 455.237 24.0915 463.875 30.1143C472.514 37.141 480.288 45.1715 488.926 51.1944C513.113 66.2516 545.075 65.2478 568.398 47.1792C576.173 40.1525 583.947 32.122 592.586 26.0991C601.255 19.7926 611.021 15.801 621.179 14.4123C631.337 13.0236 641.633 14.2724 651.326 18.0686C661.018 14.2724 671.315 13.0236 681.473 14.4123C691.631 15.801 701.397 19.7926 710.066 26.0991C718.704 32.122 725.615 40.1525 734.253 47.1792C757.577 65.2478 788.674 66.2516 812.861 51.1944C822.364 45.1715 830.138 37.141 838.776 30.1143C847.415 23.0877 856.917 18.0686 867.283 18.0686C868.72 17.9417 870.164 17.9417 871.602 18.0686C881.104 18.0686 890.606 24.0915 899.244 30.1143C907.883 37.141 915.657 45.1715 925.159 51.1944C949.346 66.2516 980.444 65.2478 1003.77 47.1792C1012.41 40.1525 1019.32 32.122 1027.95 26.0991C1036.62 19.7926 1046.39 15.801 1056.55 14.4123C1066.71 13.0236 1077 14.2724 1086.69 18.0686C1096.39 14.2724 1106.68 13.0236 1116.84 14.4123C1127 15.801 1136.77 19.7926 1145.43 26.0991C1154.07 32.122 1161.85 40.1525 1170.49 47.1792C1192.95 65.2478 1224.91 66.2516 1249.09 51.1944C1257.73 45.1715 1265.51 37.141 1274.15 30.1143L1279.33 27.1029C1286.24 22.0839 1294.88 18.0686 1303.52 18.0686C1304.67 17.9874 1305.82 17.9874 1306.97 18.0686C1317.34 18.0686 1326.84 24.0915 1334.61 30.1143L1360.53 51.1944L1363.12 52.1982C1372.54 57.6356 1382.84 60.7134 1393.35 61.2325C1406.11 62.1457 1418.87 59.3874 1430.5 53.202C1433.5 51.4382 1436.39 49.4254 1439.14 47.1792L1446.91 41.1563C1452.09 36.1372 1457.28 30.1143 1463.32 26.0991C1471.99 19.7926 1481.76 15.801 1491.92 14.4123C1502.07 13.0236 1512.37 14.2724 1522.06 18.0686C1531.88 14.1151 1542.34 12.7839 1552.65 14.1743C1562.97 15.5646 1572.89 19.6406 1581.67 26.0991L1598.94 41.1563L1605.85 47.1792C1608.89 49.4655 1612.06 51.479 1615.36 53.202C1626.98 59.3874 1639.74 62.1457 1652.5 61.2325C1663.01 60.7134 1673.31 57.6356 1682.74 52.1982L1684.46 51.1944L1710.38 30.1143C1715.7 25.8334 1721.52 22.4535 1727.65 20.0762Z" fill="#33091D"/>
<path opacity="0.5" d="M412.91 79.3012H19.8682C21.0039 74.9654 22.8931 70.9466 25.419 67.4934C27.945 64.0401 31.0538 61.2259 34.5532 59.2249L35.4171 58.2211C41.466 55.3676 48.1745 55.0133 54.4213 57.2173C55.4623 53.3949 57.3791 49.9739 59.9662 47.3213C62.5532 44.6687 65.7129 42.8845 69.1063 42.1601C70.0631 39.7445 71.5533 37.6665 73.4255 36.1373C77.1566 33.9396 81.4076 33.2339 85.519 34.1296C89.3974 34.8909 93.173 36.2409 96.7488 38.1449L106.251 43.1639C116.617 49.1868 126.983 55.2097 137.349 59.2249C149.442 65.2478 164.127 67.2554 176.221 63.2402L180.54 61.2326C193.439 54.7194 205.387 45.9145 215.957 35.1335C227.646 47.1935 241.105 56.7137 255.693 63.2402C268.65 67.2554 282.472 65.2478 295.429 59.2249C305.795 55.2097 316.161 49.1868 325.663 43.1639L335.165 38.1449C339.014 36.154 343.085 34.8024 347.259 34.1296C351.091 33.4525 355.009 34.153 358.488 36.1373C360.679 37.5234 362.479 39.6147 363.671 42.1601C367.065 42.8845 370.224 44.6687 372.812 47.3213C375.399 49.9739 377.315 53.3949 378.356 57.2173C384.603 55.0133 391.312 55.3676 397.361 58.2211L398.224 59.2249C401.724 61.2259 404.833 64.0401 407.359 67.4934C409.885 70.9466 411.774 74.9654 412.91 79.3012Z" fill="#33091D"/>
<path d="M435.369 79.3012H0V65.2479C5.18296 55.2097 17.2765 49.1869 27.6425 53.2021C30.4226 54.4459 33.0394 56.1353 35.4169 58.2212C42.3275 64.2441 48.3743 71.2707 56.1488 74.2822C66.5147 77.2936 77.7445 70.2669 86.3827 62.2364C92.4295 55.2097 99.3401 48.1831 106.251 43.164C108.186 41.9543 110.209 40.9466 112.298 40.1526C124.391 35.1335 137.349 39.1488 148.578 45.1716C158.08 50.1907 167.582 57.2174 176.221 63.2402L180.54 65.2479C191.77 72.2745 203.863 76.2898 215.957 73.2784C228.05 76.2898 241.008 72.2745 252.238 65.2479L255.693 63.2402C265.195 57.2174 273.833 50.1907 284.199 45.1716C295.429 39.1488 308.386 35.1335 319.616 40.1526C321.704 40.9466 323.728 41.9543 325.663 43.164C333.437 48.1831 339.484 55.2097 346.395 62.2364C355.033 70.2669 365.399 77.2936 376.629 74.2822C384.403 71.2707 390.45 64.2441 397.361 58.2212C399.738 56.1353 402.355 54.4459 405.135 53.2021C417.229 48.1831 431.914 58.2212 435.369 72.2745V79.3012Z" fill="#33091D"/>
<path d="M51.657 37.9442C55.7122 37.9442 58.9995 34.1241 58.9995 29.4118C58.9995 24.6995 55.7122 20.8794 51.657 20.8794C47.6018 20.8794 44.3145 24.6995 44.3145 29.4118C44.3145 34.1241 47.6018 37.9442 51.657 37.9442Z" fill="#33091D"/>
<path d="M137.521 37.944C140.002 37.944 142.013 35.607 142.013 32.7242C142.013 29.8414 140.002 27.5044 137.521 27.5044C135.04 27.5044 133.029 29.8414 133.029 32.7242C133.029 35.607 135.04 37.944 137.521 37.944Z" fill="#33091D"/>
<path d="M324.626 37.944C327.107 37.944 329.118 35.607 329.118 32.7242C329.118 29.8414 327.107 27.5044 324.626 27.5044C322.145 27.5044 320.134 29.8414 320.134 32.7242C320.134 35.607 322.145 37.944 324.626 37.944Z" fill="#33091D"/>
<path d="M376.542 44.0673C380.025 44.0673 382.848 40.7865 382.848 36.7394C382.848 32.6924 380.025 29.4116 376.542 29.4116C373.06 29.4116 370.236 32.6924 370.236 36.7394C370.236 40.7865 373.06 44.0673 376.542 44.0673Z" fill="#33091D"/>
<path opacity="0.5" d="M91.9111 11.6442C94.6781 11.6442 96.9213 9.03757 96.9213 5.82211C96.9213 2.60665 94.6781 0 91.9111 0C89.144 0 86.9009 2.60665 86.9009 5.82211C86.9009 9.03757 89.144 11.6442 91.9111 11.6442Z" fill="#33091D"/>
<path opacity="0.5" d="M277.461 11.6442C280.228 11.6442 282.472 9.03757 282.472 5.82211C282.472 2.60665 280.228 0 277.461 0C274.694 0 272.451 2.60665 272.451 5.82211C272.451 9.03757 274.694 11.6442 277.461 11.6442Z" fill="#33091D"/>
<path opacity="0.75" d="M216.216 8.63282C217.552 8.63282 218.635 7.37444 218.635 5.82215C218.635 4.26986 217.552 3.01147 216.216 3.01147C214.88 3.01147 213.797 4.26986 213.797 5.82215C213.797 7.37444 214.88 8.63282 216.216 8.63282Z" fill="#33091D"/>
<path opacity="0.5" d="M848.278 79.3012H455.237C456.373 74.9654 458.262 70.9466 460.788 67.4934C463.314 64.0401 466.422 61.2259 469.922 59.2249L470.786 58.2211C476.835 55.3676 483.543 55.0133 489.79 57.2173C490.831 53.3949 492.748 49.9739 495.335 47.3213C497.922 44.6687 501.082 42.8845 504.475 42.1601C505.668 39.6147 507.467 37.5234 509.658 36.1373C513.137 34.153 517.056 33.4525 520.888 34.1296C524.766 34.8909 528.542 36.2409 532.117 38.1449L542.483 43.1639C551.985 49.1868 562.351 55.2097 572.717 59.2249C585.675 65.2478 599.496 67.2554 612.453 63.2402L615.909 61.2326C628.807 54.7194 640.756 45.9145 651.326 35.1335C663.015 47.1935 676.474 56.7137 691.062 63.2402C704.019 67.2554 717.84 65.2478 730.798 59.2249C741.164 55.2097 751.53 49.1868 761.895 43.1639L771.398 38.1449C774.973 36.2409 778.749 34.8909 782.627 34.1296C786.739 33.2339 790.99 33.9396 794.721 36.1373C796.593 37.6665 798.083 39.7445 799.04 42.1601C802.433 42.8845 805.593 44.6687 808.18 47.3213C810.767 49.9739 812.684 53.3949 813.725 57.2173C819.972 55.0133 826.68 55.3676 832.729 58.2211L833.593 59.2249C837.093 61.2259 840.201 64.0401 842.727 67.4934C845.253 70.9466 847.143 74.9654 848.278 79.3012Z" fill="#33091D"/>
<path d="M871.602 79.3012H435.369V65.2479C441.416 55.2097 452.646 49.1869 463.012 53.2021C465.792 54.4459 468.409 56.1353 470.786 58.2212C477.697 64.2441 483.743 71.2707 491.518 74.2822C501.884 77.2936 513.114 70.2669 521.752 62.2364C528.662 55.2097 534.709 48.1831 542.484 43.164C544.419 41.9543 546.442 40.9466 548.531 40.1526C559.76 35.1335 572.718 39.1488 583.947 45.1716C594.313 50.1907 602.952 57.2174 612.454 63.2402L615.909 65.2479C627.139 72.2745 640.096 76.2898 652.19 73.2784C663.42 76.2898 676.377 72.2745 687.607 65.2479L691.926 63.2402C700.564 57.2174 710.066 50.1907 719.568 45.1716C730.798 39.1488 743.755 35.1335 755.849 40.1526C757.937 40.9466 759.961 41.9543 761.896 43.164C768.806 48.1831 775.717 55.2097 781.764 62.2364C790.402 70.2669 801.632 77.2936 811.998 74.2822C819.772 71.2707 825.819 64.2441 832.73 58.2212C835.107 56.1353 837.724 54.4459 840.504 53.2021C852.598 49.1869 867.283 58.2212 870.738 72.2745L871.602 79.3012Z" fill="#33091D"/>
<path d="M487.198 37.9442C491.254 37.9442 494.541 34.1241 494.541 29.4118C494.541 24.6995 491.254 20.8794 487.198 20.8794C483.143 20.8794 479.856 24.6995 479.856 29.4118C479.856 34.1241 483.143 37.9442 487.198 37.9442Z" fill="#33091D"/>
<path d="M573.149 37.944C575.63 37.944 577.641 35.607 577.641 32.7242C577.641 29.8414 575.63 27.5044 573.149 27.5044C570.668 27.5044 568.657 29.8414 568.657 32.7242C568.657 35.607 570.668 37.944 573.149 37.944Z" fill="#33091D"/>
<path d="M760.255 37.944C762.735 37.944 764.746 35.607 764.746 32.7242C764.746 29.8414 762.735 27.5044 760.255 27.5044C757.774 27.5044 755.763 29.8414 755.763 32.7242C755.763 35.607 757.774 37.944 760.255 37.944Z" fill="#33091D"/>
<path d="M812.17 44.0673C815.653 44.0673 818.476 40.7865 818.476 36.7394C818.476 32.6924 815.653 29.4116 812.17 29.4116C808.688 29.4116 805.864 32.6924 805.864 36.7394C805.864 40.7865 808.688 44.0673 812.17 44.0673Z" fill="#33091D"/>
<path opacity="0.5" d="M527.453 11.6442C530.22 11.6442 532.463 9.03757 532.463 5.82211C532.463 2.60665 530.22 0 527.453 0C524.686 0 522.443 2.60665 522.443 5.82211C522.443 9.03757 524.686 11.6442 527.453 11.6442Z" fill="#33091D"/>
<path opacity="0.5" d="M713.089 11.6442C715.856 11.6442 718.099 9.03757 718.099 5.82211C718.099 2.60665 715.856 0 713.089 0C710.322 0 708.079 2.60665 708.079 5.82211C708.079 9.03757 710.322 11.6442 713.089 11.6442Z" fill="#33091D"/>
<path opacity="0.75" d="M651.844 8.63282C653.18 8.63282 654.263 7.37444 654.263 5.82215C654.263 4.26986 653.18 3.01147 651.844 3.01147C650.508 3.01147 649.425 4.26986 649.425 5.82215C649.425 7.37444 650.508 8.63282 651.844 8.63282Z" fill="#33091D"/>
<path opacity="0.5" d="M1283.65 79.3012H891.47C892.506 75.0533 894.262 71.089 896.636 67.6413C899.009 64.1936 901.952 61.3321 905.291 59.2249L907.019 58.2211C913.068 55.3676 919.776 55.0133 926.023 57.2173C926.992 53.522 928.778 50.1868 931.204 47.5447C933.629 44.9025 936.608 43.0459 939.844 42.1601C941.037 39.6147 942.837 37.5234 945.027 36.1373C948.507 34.153 952.425 33.4525 956.257 34.1296C960.43 34.8024 964.501 36.154 968.35 38.1449L977.852 43.1639C988.218 49.1868 997.72 55.2097 1008.09 59.2249C1021.04 65.2478 1034.87 67.2554 1047.82 63.2402L1052.14 61.2326C1065.1 54.4123 1077.05 45.2662 1087.56 34.1296C1099.18 46.5475 1112.64 56.4109 1127.29 63.2402C1140.25 67.2554 1154.07 65.2478 1166.17 59.2249C1177.4 55.2097 1186.9 49.1868 1197.26 43.1639L1206.77 38.1449C1210.34 36.2409 1214.12 34.8909 1218 34.1296C1222.11 33.2339 1226.36 33.9396 1230.09 36.1373C1232.28 37.5234 1234.08 39.6147 1235.27 42.1601C1238.51 43.0459 1241.49 44.9025 1243.91 47.5447C1246.34 50.1868 1248.13 53.522 1249.09 57.2173C1255.34 55.0133 1262.05 55.3676 1268.1 58.2211L1268.96 59.2249C1272.46 61.2259 1275.57 64.0401 1278.1 67.4934C1280.62 70.9466 1282.51 74.9654 1283.65 79.3012Z" fill="#33091D"/>
<path d="M1306.97 79.3012H871.602V65.2479C876.785 55.2097 888.878 49.1869 898.38 53.2021C901.462 54.357 904.374 56.0494 907.018 58.2212C913.065 64.2441 919.112 71.2707 927.75 74.2822C938.116 77.2936 948.482 70.2669 957.12 62.2364C964.031 55.2097 970.078 48.1831 977.852 43.164C979.787 41.9543 981.811 40.9466 983.899 40.1526C995.993 35.1335 1008.95 39.1488 1020.18 45.1716C1029.68 50.1907 1038.32 57.2174 1047.82 63.2402L1052.14 65.2479C1063.37 72.2745 1075.46 76.2898 1087.56 73.2784C1099.65 76.2898 1111.75 72.2745 1122.98 65.2479L1127.29 63.2402C1136.8 57.2174 1145.43 50.1907 1154.94 45.1716C1166.17 39.1488 1179.12 35.1335 1191.22 40.1526C1193.31 40.9466 1195.33 41.9543 1197.26 43.164C1205.04 48.1831 1211.09 55.2097 1218 62.2364C1226.63 70.2669 1237 77.2936 1247.37 74.2822C1256 71.2707 1261.19 64.2441 1268.1 58.2212C1270.74 56.0494 1273.65 54.357 1276.74 53.2021C1288.83 49.1869 1303.52 58.2212 1306.11 72.2745L1306.97 79.3012Z" fill="#33091D"/>
<path d="M922.827 37.9442C926.882 37.9442 930.169 34.1241 930.169 29.4118C930.169 24.6995 926.882 20.8794 922.827 20.8794C918.772 20.8794 915.484 24.6995 915.484 29.4118C915.484 34.1241 918.772 37.9442 922.827 37.9442Z" fill="#33091D"/>
<path d="M1008.78 37.944C1011.26 37.944 1013.27 35.607 1013.27 32.7242C1013.27 29.8414 1011.26 27.5044 1008.78 27.5044C1006.3 27.5044 1004.29 29.8414 1004.29 32.7242C1004.29 35.607 1006.3 37.944 1008.78 37.944Z" fill="#33091D"/>
<path d="M1195.88 37.944C1198.36 37.944 1200.37 35.607 1200.37 32.7242C1200.37 29.8414 1198.36 27.5044 1195.88 27.5044C1193.4 27.5044 1191.39 29.8414 1191.39 32.7242C1191.39 35.607 1193.4 37.944 1195.88 37.944Z" fill="#33091D"/>
<path d="M1247.8 44.0673C1251.28 44.0673 1254.1 40.7865 1254.1 36.7394C1254.1 32.6924 1251.28 29.4116 1247.8 29.4116C1244.32 29.4116 1241.49 32.6924 1241.49 36.7394C1241.49 40.7865 1244.32 44.0673 1247.8 44.0673Z" fill="#33091D"/>
<path opacity="0.5" d="M963.081 11.6442C965.848 11.6442 968.091 9.03757 968.091 5.82211C968.091 2.60665 965.848 0 963.081 0C960.314 0 958.071 2.60665 958.071 5.82211C958.071 9.03757 960.314 11.6442 963.081 11.6442Z" fill="#33091D"/>
<path opacity="0.5" d="M1148.72 11.6442C1151.48 11.6442 1153.73 9.03757 1153.73 5.82211C1153.73 2.60665 1151.48 0 1148.72 0C1145.95 0 1143.71 2.60665 1143.71 5.82211C1143.71 9.03757 1145.95 11.6442 1148.72 11.6442Z" fill="#33091D"/>
<path opacity="0.75" d="M1087.47 8.63282C1088.81 8.63282 1089.89 7.37444 1089.89 5.82215C1089.89 4.26986 1088.81 3.01147 1087.47 3.01147C1086.14 3.01147 1085.05 4.26986 1085.05 5.82215C1085.05 7.37444 1086.14 8.63282 1087.47 8.63282Z" fill="#33091D"/>
<path opacity="0.5" d="M1719.02 79.3012H1326.84C1327.97 74.9654 1329.86 70.9466 1332.39 67.4934C1334.92 64.0401 1338.02 61.2259 1341.52 59.2249L1342.39 58.2211C1348.44 55.3676 1355.15 55.0133 1361.39 57.2173C1362.43 53.3949 1364.35 49.9739 1366.94 47.3213C1369.52 44.6687 1372.68 42.8845 1376.08 42.1601C1377.03 39.7445 1378.52 37.6665 1380.4 36.1373C1384.13 33.9396 1388.38 33.2339 1392.49 34.1296C1396.37 34.8909 1400.14 36.2409 1403.72 38.1449L1413.22 43.1639C1423.59 49.1868 1433.09 55.2097 1444.32 59.2249C1456.41 65.2478 1471.1 67.2554 1483.19 63.2402L1487.51 61.2326C1500.47 54.4123 1512.42 45.2662 1522.93 34.1296C1534.55 46.5475 1548.01 56.4109 1562.66 63.2402C1575.62 67.2554 1589.44 65.2478 1602.4 59.2249C1612.77 55.2097 1622.27 49.1868 1632.63 43.1639L1642.14 38.1449C1645.99 36.154 1650.06 34.8024 1654.23 34.1296C1658.06 33.4525 1661.98 34.153 1665.46 36.1373C1667.65 37.5234 1669.45 39.6147 1670.64 42.1601C1674.04 42.8845 1677.2 44.6687 1679.78 47.3213C1682.37 49.9739 1684.29 53.3949 1685.33 57.2173C1691.57 55.0133 1698.28 55.3676 1704.33 58.2211L1705.2 59.2249C1708.53 61.3321 1711.48 64.1936 1713.85 67.6413C1716.22 71.089 1717.98 75.0533 1719.02 79.3012Z" fill="#33091D"/>
<path d="M1727.65 54.206V79.3013H1306.97V65.2479C1312.15 55.2098 1324.25 49.1869 1333.75 53.2021C1336.83 54.3571 1339.74 56.0494 1342.39 58.2212C1349.3 64.2441 1355.35 71.2708 1363.12 74.2822C1373.49 77.2936 1384.72 70.2669 1392.49 62.2365L1393.35 61.2326L1413.22 43.164C1415.16 41.9544 1417.18 40.9466 1419.27 40.1526C1427.91 37.1412 1437.41 38.145 1446.91 41.1564C1449.86 42.2787 1452.75 43.6199 1455.55 45.1717C1465.05 50.1907 1473.69 57.2174 1483.19 63.2403L1487.51 65.2479C1498.74 72.2746 1510.83 76.2898 1522.93 73.2784C1535.02 76.2898 1547.98 72.2746 1558.34 65.2479L1562.66 63.2403C1572.17 57.2174 1580.8 50.1907 1591.17 45.1717C1593.69 43.6556 1596.29 42.3148 1598.94 41.1564C1607.58 38.145 1617.95 36.1373 1626.59 40.1526C1628.68 40.9466 1630.7 41.9544 1632.63 43.164C1640.41 48.1831 1646.45 55.2098 1652.5 61.2326L1653.37 62.2365C1662 70.2669 1672.37 77.2936 1683.6 74.2822C1691.37 71.2708 1697.42 64.2441 1704.33 58.2212C1706.71 56.1353 1709.33 54.446 1712.11 53.2021C1717.23 51.3712 1722.74 51.7272 1727.65 54.206Z" fill="#33091D"/>
<path d="M1358.45 37.9442C1362.51 37.9442 1365.8 34.1241 1365.8 29.4118C1365.8 24.6995 1362.51 20.8794 1358.45 20.8794C1354.4 20.8794 1351.11 24.6995 1351.11 29.4118C1351.11 34.1241 1354.4 37.9442 1358.45 37.9442Z" fill="#33091D"/>
<path d="M1444.41 37.944C1446.89 37.944 1448.9 35.607 1448.9 32.7242C1448.9 29.8414 1446.89 27.5044 1444.41 27.5044C1441.92 27.5044 1439.91 29.8414 1439.91 32.7242C1439.91 35.607 1441.92 37.944 1444.41 37.944Z" fill="#33091D"/>
<path d="M1631.51 37.944C1633.99 37.944 1636 35.607 1636 32.7242C1636 29.8414 1633.99 27.5044 1631.51 27.5044C1629.03 27.5044 1627.02 29.8414 1627.02 32.7242C1627.02 35.607 1629.03 37.944 1631.51 37.944Z" fill="#33091D"/>
<path d="M1683.43 44.0673C1686.91 44.0673 1689.73 40.7865 1689.73 36.7394C1689.73 32.6924 1686.91 29.4116 1683.43 29.4116C1679.94 29.4116 1677.12 32.6924 1677.12 36.7394C1677.12 40.7865 1679.94 44.0673 1683.43 44.0673Z" fill="#33091D"/>
<path opacity="0.5" d="M1398.71 11.6442C1401.48 11.6442 1403.72 9.03757 1403.72 5.82211C1403.72 2.60665 1401.48 0 1398.71 0C1395.94 0 1393.7 2.60665 1393.7 5.82211C1393.7 9.03757 1395.94 11.6442 1398.71 11.6442Z" fill="#33091D"/>
<path opacity="0.5" d="M1584.35 11.6442C1587.11 11.6442 1589.36 9.03757 1589.36 5.82211C1589.36 2.60665 1587.11 0 1584.35 0C1581.58 0 1579.34 2.60665 1579.34 5.82211C1579.34 9.03757 1581.58 11.6442 1584.35 11.6442Z" fill="#33091D"/>
<path opacity="0.75" d="M1523.1 8.63282C1524.44 8.63282 1525.52 7.37444 1525.52 5.82215C1525.52 4.26986 1524.44 3.01147 1523.1 3.01147C1521.76 3.01147 1520.68 4.26986 1520.68 5.82215C1520.68 7.37444 1521.76 8.63282 1523.1 8.63282Z" fill="#33091D"/>
</svg>
