<svg width="50" height="116" viewBox="0 0 50 116" fill="none" xmlns="http://www.w3.org/2000/svg">
<path opacity="0.35" d="M24.1849 42.1779C31.7274 41.4253 50.1337 76.308 40.0525 96.3098C32.1421 112.004 29.3392 105.742 26.3456 95.5405C22.3219 81.8202 12.5986 66.9995 8.31392 71.3176C4.02926 75.6357 2.38363 75.6524 4.24333 67.7922C6.10302 59.932 15.8096 43.0107 24.1849 42.1779Z" fill="url(#paint0_linear_69_21200)"/>
<path opacity="0.35" d="M10.886 95.0758C7.18334 84.6501 9.00625 75.6526 11.3309 76.345C13.6555 77.0374 20.519 83.8206 24.0444 93.8415C27.5698 103.862 27.7738 109.411 26.2586 109.719C24.7468 110.027 14.3378 104.786 10.886 95.0758Z" fill="url(#paint1_linear_69_21200)"/>
<path d="M31.1488 40.7297C30.3694 38.288 29.5667 33.4079 29.7205 32.1737C29.8744 30.9395 30.7775 29.9227 31.6973 29.5079C32.6171 29.0898 31.8378 26.7017 31.8378 26.7017L17.395 28.3306C17.395 28.3306 16.7294 28.9527 17.6693 29.4511C18.6092 29.9494 19.3919 31.2773 19.2949 32.8393C19.1945 34.4013 19.2715 36.4517 18.0071 40.2681C16.7863 43.9574 11.3911 46.7904 5.016 57.4569C-1.33909 68.0933 -0.134968 73.3179 0.607573 79.0408C1.35011 84.7637 4.38049 93.9384 10.1502 101.856C15.92 109.776 25.6968 116.191 29.5633 115.305C33.4801 114.409 47.3141 101.377 46.508 77.8032C45.9193 60.504 33.0954 46.8205 31.1488 40.7297ZM26.2587 109.719C24.7469 110.027 14.3346 104.786 10.8861 95.0723C7.18341 84.6466 9.00632 75.6492 11.3309 76.3416C13.6556 77.0339 20.5191 83.8171 24.0445 93.8381C27.5699 103.862 27.7739 109.411 26.2587 109.719ZM40.0526 96.3065C32.1422 112 29.3392 105.739 26.3457 95.5372C22.3219 81.817 12.5986 66.9962 8.31395 71.3143C4.02928 75.6325 2.38365 75.6492 4.24335 67.7889C6.10305 59.9287 15.8063 43.0142 24.1816 42.178C31.7274 41.4254 50.1304 76.3048 40.0526 96.3065Z" fill="url(#paint2_linear_69_21200)"/>
<path d="M20.4321 30.2237C20.4321 30.2237 21.7868 33.5451 21.6329 36.1741C21.479 38.8031 26.7136 37.5923 26.7136 37.5923L29.1486 28.6985L20.4321 30.2237Z" fill="url(#paint3_linear_69_21200)"/>
<path opacity="0.79" d="M18.7028 30.4511C19.1945 31.5649 22.7567 32.9028 26.1015 31.5649C29.4463 30.227 24.8271 34.4883 23.5929 35.0335C22.3587 35.5787 19.2246 34.6254 19.2614 33.4882C19.2614 33.4882 19.1544 37.5722 18.1878 39.7095C17.2211 41.8468 17.3415 41.9304 16.0772 43.3453C14.8129 44.7601 16.696 44.6464 18.9537 43.5593C21.2114 42.4723 24.5562 42.3485 26.145 45.1481C27.7338 47.9477 35.3766 49.0046 33.4366 45.2585C31.4966 41.5123 29.8242 39.2546 29.8242 39.2546L28.8208 29.8056L17.6258 29.1433L17.6727 29.4544C17.6727 29.451 18.248 29.4276 18.7028 30.4511Z" fill="#A192A4"/>
<path d="M24.0745 11.1016C29.9345 11.202 34.4767 12.8376 35.1691 15.2625C35.8648 17.6908 33.4699 27.4609 32.3996 28.936C31.3293 30.411 26.369 30.6418 24.2685 30.6117C22.1679 30.5816 17.696 30.0632 16.3815 28.6182C15.067 27.1733 13.2073 23.5877 12.9062 19.109C12.6052 14.627 13.6354 13.443 15.2242 12.6636C16.8129 11.8843 20.7531 11.0448 24.0745 11.1016Z" fill="url(#paint4_linear_69_21200)"/>
<path d="M8.43105 70.4782C13.3111 65.635 22.6664 81.526 26.6066 94.758C29.5366 104.598 31.9649 110.549 39.6981 95.4135C45.0497 84.9343 42.1799 70.2207 37.2564 59.0825C35.7512 56.2428 34.2227 55.6274 33.5269 58.2363C32.5837 61.7751 31.6806 58.4872 30.3594 62.5009C29.0382 66.5146 25.1918 65.9728 20.0207 61.5142C14.8564 57.0589 8.93611 57.9185 5.92581 64.103C5.36054 65.5079 4.92907 66.8023 4.66483 67.9094C2.84527 75.4954 4.24004 74.6391 8.43105 70.4782Z" fill="url(#paint5_linear_69_21200)"/>
<path opacity="0.5" d="M36.3632 57.6744C38.059 60.4673 36.7947 59.1997 34.7544 59.7047C32.2558 60.3202 33.3763 63.9058 29.3626 65.4745C25.3522 67.0432 5.33704 65.4778 7.1566 62.0561C6.70505 62.6715 6.2903 63.3539 5.92237 64.1098C5.43069 65.3306 5.04939 66.4612 4.7818 67.468C3.92888 71.9031 6.19665 62.986 13.9365 66.4812C21.7131 69.9933 29.3024 66.7957 31.8712 64.6015C34.4433 62.4073 39.6478 70.1204 41.0259 74.5723C42.3705 78.9105 42.133 74.696 40.9456 69.826C40.0057 66.0698 38.7213 62.4207 37.2496 59.096C36.9553 58.524 36.6576 58.0524 36.3632 57.6744Z" fill="url(#paint6_linear_69_21200)"/>
<path d="M12.7691 93.7445C9.40425 84.2654 9.83573 76.8032 11.9496 77.4353C14.0635 78.0675 20.3016 84.2319 23.5092 93.3431C26.7135 102.454 26.8975 107.498 25.5228 107.779C24.1447 108.06 15.9065 102.575 12.7691 93.7445Z" fill="url(#paint7_linear_69_21200)"/>
<path d="M7.15672 62.0493C5.32043 65.4743 25.349 67.0397 29.3627 65.471C33.3765 63.9023 32.2593 60.3167 34.7545 59.7013C37.2531 59.0858 38.591 61.1261 34.7545 55.1222C30.918 49.1217 23.8405 57.0455 19.2013 58.7781C14.5621 60.5107 11.9197 53.1689 7.15672 62.0493Z" fill="#77AF2A"/>
<path opacity="0.5" d="M41.4441 92.9216C41.0594 94.089 40.6012 95.2195 40.0526 96.3066C32.1422 112 29.3393 105.739 26.3457 95.5373C25.175 91.5469 23.5227 87.463 21.663 83.7837C18.335 77.2915 23.3454 90.8412 24.5964 93.0186C25.8507 95.1961 27.8944 100.277 28.6603 104.354C29.4263 108.431 28.182 110.595 25.6667 109.733C25.5329 109.686 25.3891 109.622 25.2419 109.555C22.1413 108.579 13.8831 103.518 10.8861 95.0723C10.4848 93.9451 10.1536 92.8347 9.87602 91.7476C9.87267 91.7409 9.86933 91.7342 9.86933 91.7276C8.79231 88.4229 10.4312 97.126 12.0535 99.4306C13.1673 101.013 13.9834 101.892 14.3848 102.29C14.4751 102.371 14.5687 102.461 14.6657 102.551C17.4285 105.184 23.0244 112.234 28.657 111.208C33.0821 110.401 37.0791 102.939 39.0291 99.4306C40.2065 97.1963 40.9591 94.9252 41.4441 92.9216Z" fill="#BFE79F"/>
<path opacity="0.5" d="M13.6757 101.739C15.8465 103.026 22.2283 112.382 28.6603 111.211C35.0924 110.04 40.6079 94.8215 40.2734 98.0827C39.9389 101.344 32.5303 112.82 28.6603 113.562C24.7904 114.305 11.4916 100.444 13.6757 101.739Z" fill="url(#paint8_linear_69_21200)"/>
<path opacity="0.69" d="M29.5667 115.308C33.4834 114.412 47.3174 101.38 46.5113 77.8065C46.3642 73.5352 45.4711 69.488 44.1834 65.7184C42.4073 61.8251 44.7286 70.187 45.8558 78.7263C46.9863 87.2755 44.4543 93.9852 41.0259 101.304C37.5975 108.619 31.3829 113.706 28.4428 114.137C25.4526 114.576 18.0105 110.502 14.4984 106.739C10.9931 102.983 0.179425 83.4859 6.99943 96.9587C7.94266 98.6177 8.98958 100.263 10.1502 101.859C15.9233 109.776 25.7001 116.195 29.5667 115.308Z" fill="#BFE79F"/>
<path opacity="0.5" d="M24.2852 92.41C23.439 90.246 22.7466 89.3663 21.3083 84.8508C19.8701 80.332 13.5183 72.833 10.9261 71.649C9.44439 70.97 7.30708 72.4952 5.57782 74.7797C3.45389 76.7999 2.84179 74.2044 3.19968 70.2241C3.56761 66.1435 2.80834 65.8224 1.39016 67.3643C-0.0280294 68.9029 0.0555895 73.987 1.14264 80.6029C2.14608 86.7172 4.90887 90.567 7.28701 94.7413C9.69525 98.9591 13.1805 101.976 12.9297 101.444C12.6788 100.912 10.003 98.4641 9.21025 94.5774C8.51789 91.1925 8.84233 87.7808 9.4377 89.8446C7.83221 81.8372 9.4076 75.7764 11.3308 76.3517C13.6555 77.0441 20.519 83.8273 24.0444 93.8483C27.5698 103.869 27.7738 109.418 26.2586 109.726C26.2486 109.729 26.2318 109.726 26.2185 109.729C27.1015 109.763 27.8407 109.141 27.8975 105.813C27.9845 100.946 25.1281 94.5708 24.2852 92.41Z" fill="#A192C8"/>
<path opacity="0.42" d="M17.5655 73.9234C14.6121 70.1739 18.3415 66.0464 19.3249 70.3076C20.3049 74.5656 18.3248 74.8866 17.5655 73.9234Z" fill="#77AF2A"/>
<path opacity="0.42" d="M21.3651 75.8999C20.5222 74.8664 21.6527 74.1807 22.1377 74.9099C22.6227 75.639 21.9471 76.6157 21.3651 75.8999Z" fill="#77AF2A"/>
<path opacity="0.42" d="M30.7306 93.634C28.3424 93.8515 29.3726 89.7876 33.2157 89.4464C37.0589 89.1052 34.4801 93.2929 30.7306 93.634Z" fill="#77AF2A"/>
<path opacity="0.42" d="M31.7642 95.3868C30.6136 95.5272 31.995 94.6175 32.9215 94.8081C33.8446 94.9988 32.1656 95.3399 31.7642 95.3868Z" fill="#77AF2A"/>
<path opacity="0.42" d="M40.4537 83.7737C39.4302 82.4592 40.922 80.5159 41.5876 81.5595C42.2566 82.6064 40.4537 83.7737 40.4537 83.7737Z" fill="#77AF2A"/>
<path opacity="0.42" d="M32.2624 76.2545C29.6903 76.3281 32.0584 74.8832 33.1956 75.1073C34.3329 75.328 33.9883 76.2043 32.2624 76.2545Z" fill="#77AF2A"/>
<path opacity="0.42" d="M34.6641 77.7531C33.5335 77.3083 35.8381 77.3852 36.1057 77.6227C36.3766 77.8602 35.6307 78.1311 34.6641 77.7531Z" fill="#77AF2A"/>
<path opacity="0.42" d="M35.2592 75.0805C33.4564 74.6156 33.6805 71.6856 36.9417 73.7292C40.2028 75.7762 37.6942 75.7127 35.2592 75.0805Z" fill="#77AF2A"/>
<path opacity="0.5" d="M7.71532 72.5419C12.0134 68.6051 17.8901 78.7398 17.7396 79.2683C17.5891 79.7968 9.35426 72.7895 8.03976 75.2546C6.2202 78.6696 7.63504 86.9245 8.24714 88.4163C8.86258 89.908 7.819 91.8681 5.40073 87.657C2.98245 83.4493 1.18296 78.5224 7.71532 72.5419Z" fill="#A192C8"/>
<path opacity="0.21" d="M11.6019 58.7781C14.2409 58.35 17.5723 60.417 20.7399 61.3302C23.9074 62.2433 21.7734 58.3868 25.4761 55.8447C29.1754 53.306 31.5636 53.0853 34.1959 55.8447C36.8283 58.6042 35.4535 57.9319 33.1925 57.6743C30.9314 57.4134 32.0318 60.8519 29.3794 61.6579C26.7304 62.464 22.2149 62.27 19.1712 61.3302C16.1307 60.3936 20.7031 63.4842 23.2752 63.8822C25.8473 64.2803 22.148 65.19 19.2347 65.0663C16.3214 64.9425 15.5354 62.9658 11.2072 62.9959C6.87908 63.026 11.6019 58.7781 11.6019 58.7781Z" fill="url(#paint9_linear_69_21200)"/>
<path opacity="0.5" d="M11.05 98.4271C14.9701 102.889 19.3082 108.137 24.7836 110.813C30.2624 113.489 16.1574 108.478 14.8128 106.659C13.4682 104.842 8.10322 95.0723 11.05 98.4271Z" fill="#596A0E"/>
<path d="M0.446911 72.7561C0.620839 70.2073 2.86519 68.759 2.92874 71.0469C2.99563 73.3347 3.22308 73.3247 3.20636 75.2111C3.18963 77.0976 1.30652 80.128 0.834905 78.0876C0.363291 76.0507 0.31312 74.7027 0.446911 72.7561Z" fill="#839A90"/>
<path opacity="0.5" d="M3.4875 83.4625C2.3971 79.1009 4.48425 75.833 6.07302 74.8764C7.66179 73.9198 6.49446 78.8567 7.03631 82.1848C7.58151 85.5095 4.8321 88.8275 3.4875 83.4625Z" fill="#A192C8"/>
<path d="M19.0138 79.0509C17.8732 77.248 22.0943 87.7205 24.2818 92.4066C26.4727 97.0926 26.4359 96.4003 24.8772 91.1389C23.3185 85.8776 19.4854 79.8001 19.0138 79.0509Z" fill="#838CA3"/>
<path d="M9.65197 91.139C9.54493 94.5072 11.1003 98.3571 12.3412 99.8321C13.5821 101.307 14.4317 101.284 12.8663 99.1498C11.3009 97.0158 9.65197 91.139 9.65197 91.139Z" fill="#838CA3"/>
<path opacity="0.5" d="M12.7692 93.7444C14.5219 98.2699 12.2642 90.7609 13.4349 85.9344C14.6022 81.1079 16.5254 87.4529 17.278 93.0186C18.0306 98.5843 22.9073 98.4873 24.5663 101.882C26.2253 105.274 25.6266 107.973 26.3022 104.658C26.9779 101.344 22.0778 88.6269 18.82 84.2152C15.5655 79.8034 11.7825 74.8698 10.5684 78.8468C9.64856 81.8705 11.04 89.2791 12.7692 93.7444Z" fill="url(#paint10_linear_69_21200)"/>
<path opacity="0.5" d="M33.6073 107.789C37.4739 102.27 39.648 98.7115 41.1531 94.9887C42.6583 91.2693 41.1933 100.213 40.4842 102.013C39.7751 103.812 30.3394 112.459 33.6073 107.789Z" fill="#596A0E"/>
<path opacity="0.5" d="M42.9995 89.2624C43.849 85.7336 43.9561 83.2619 43.9962 82.041C44.0363 80.8168 45.6686 84.6232 45.1669 86.7973C44.6652 88.968 42.7118 90.4531 42.9995 89.2624Z" fill="#596A0E"/>
<path opacity="0.5" d="M34.0989 51.0482C33.0854 48.1483 33.1155 45.7334 35.0388 48.3623C36.962 50.9913 39.2833 55.4399 41.7317 60.5808C44.1834 65.7184 45.2604 77.0104 45.2604 77.0104L43.2201 76.696C43.2201 76.696 42.1564 68.3541 40.3369 62.8352C38.5207 57.3197 35.196 54.1823 34.0989 51.0482Z" fill="#A192C8"/>
<path opacity="0.61" d="M37.4471 52.189C36.166 50.4196 35.6442 52.286 36.6175 54.828C37.5909 57.3667 43.762 65.4578 41.9424 61.3637C40.1229 57.2697 37.4471 52.189 37.4471 52.189Z" fill="#839A90"/>
<path d="M35.855 55.1557C34.8482 53.567 39.0492 58.0222 40.3403 62.8387C41.6314 67.6552 42.1632 72.843 41.3739 69.8929C40.5845 66.9428 38.0792 58.6678 35.855 55.1557Z" fill="#838CA3"/>
<path d="M42.9491 80.7399C42.9625 79.2047 43.5177 84.8406 43.2301 85.6668C42.9391 86.4963 42.5979 87.6603 42.7083 86.687C42.8186 85.7136 42.9357 82.3956 42.9491 80.7399Z" fill="#E8E6ED"/>
<path opacity="0.53" d="M26.3656 110.375C29.4863 110.274 32.3093 107.05 34.0017 105.608C35.6942 104.167 34.5904 107.057 32.2892 109.154C29.988 111.251 27.66 111.659 26.3321 111.204C25.0043 110.749 24.4056 110.438 26.3656 110.375Z" fill="#839A90"/>
<path d="M14.5219 96.3132C13.087 92.838 17.1844 99.551 20.877 100.718C24.5697 101.886 26.3992 103.331 26.0648 105.809C25.7269 108.284 17.8667 104.411 14.5219 96.3132Z" fill="url(#paint11_linear_69_21200)"/>
<path opacity="0.32" d="M34.0654 100.775C38.8451 98.2733 39.8017 91.9751 40.29 87.8176C40.7784 83.66 41.26 91.9216 38.0089 97.2599C34.7578 102.598 33.567 104.796 31.3093 102.913C29.0482 101.029 31.4264 102.157 34.0654 100.775Z" fill="url(#paint12_linear_69_21200)"/>
<path opacity="0.32" d="M31.0586 99.8353C34.2093 98.1896 39.3503 93.624 39.3503 83.4625C39.3503 79.8669 38.2699 72.3646 35.2964 69.3643C33.5404 67.5916 38.009 71.0166 36.0155 85.9544C35.0355 93.2996 28.8209 101.003 31.0586 99.8353Z" fill="url(#paint13_linear_69_21200)"/>
<path d="M22.6161 77.161C17.5053 69.1603 15.5219 67.6451 12.254 67.2771C8.98616 66.9092 18.8198 47.3623 23.3687 46.5629C27.0814 45.9107 22.2282 49.3023 22.4088 62.7885C22.5158 70.7022 25.3421 81.4256 22.6161 77.161Z" fill="url(#paint14_linear_69_21200)"/>
<path opacity="0.42" d="M18.5758 86.6871C18.4788 88.9281 21.837 92.8147 22.8404 93.778C23.8438 94.738 18.7865 81.8137 18.5758 86.6871Z" fill="#77AF2A"/>
<path opacity="0.42" d="M10.6754 83.1582C10.2005 79.8435 11.2173 77.4118 11.8461 78.131C12.4749 78.8501 11.4882 81.6095 11.1872 84.2017C10.8828 86.794 11.0099 85.4995 10.6754 83.1582Z" fill="#77AF2A"/>
<path opacity="0.42" d="M11.6821 86.6871C10.7522 85.6569 12.0132 84.222 12.2206 84.7772C12.4279 85.3325 12.7223 87.8411 11.6821 86.6871Z" fill="#77AF2A"/>
<path opacity="0.72" d="M9.0097 87.1922C8.75215 81.8606 8.7187 73.4953 13.1037 77.3853C13.1037 77.3853 9.54821 73.7963 8.77556 77.0542C7.99957 80.3153 9.0097 87.1922 9.0097 87.1922Z" fill="#8792C6"/>
<path d="M10.9263 71.7593C12.5217 72.3045 14.7995 74.2378 15.3982 75.2144C16.0003 76.1911 13.9968 71.8563 11.1771 70.7558C8.99967 69.9063 7.67179 72.4818 8.12334 72.2443C9.0465 71.7593 9.83921 71.388 10.9263 71.7593Z" fill="#E8E6ED"/>
<path opacity="0.57" d="M29.5666 115.308C33.4833 114.412 47.3173 101.381 46.5112 77.8067C46.4945 77.3451 46.4677 76.8868 46.4343 76.4286C46.4309 76.4554 46.4309 76.4788 46.4276 76.5055C46.3105 79.7667 47.4377 85.4093 39.2698 92.8281C31.1018 100.247 25.0979 93.3766 21.3049 84.8441C17.5153 76.3115 11.8091 71.0234 8.81219 71.8362C5.81526 72.649 0.84492 78.0709 3.20299 88.8444C4.78842 93.0622 7.07959 97.6345 10.1501 101.852C15.9232 109.776 25.7 116.195 29.5666 115.308Z" fill="url(#paint15_linear_69_21200)"/>
<path opacity="0.79" d="M38.4371 107.164C38.4371 107.164 41.6748 100.116 40.6379 95.6811C39.6011 91.2459 27.3692 82.4826 26.8608 81.439C26.3524 80.3954 35.9619 83.6265 35.9619 83.6265L45.2604 99.0225L41.1196 102.749C41.1196 102.749 40.2399 105.458 38.4371 107.164Z" fill="#A192A4"/>
<path opacity="0.79" d="M46.1968 85.9545C46.1968 85.9545 45.859 83.3456 45.2603 82.4659C44.6616 81.5896 42.2466 79.0007 33.0217 78.131C33.0217 78.131 37.0957 74.9502 42.5744 76.2312C48.0532 77.5123 46.4912 82.7602 46.4912 82.7602C46.4912 82.7602 47.1668 84.8641 46.1968 85.9545Z" fill="#A192A4"/>
<path opacity="0.79" d="M21.8971 112.726C21.8971 112.726 19.83 108.933 21.3987 104.103C22.9674 99.2734 24.9107 97.3802 24.031 97.7314C23.1547 98.0826 14.4616 100.253 14.1037 106.287C13.7458 112.318 21.8971 112.726 21.8971 112.726Z" fill="#A192A4"/>
<path d="M22.3854 113.037L20.499 111.833C20.499 111.833 18.8366 105.077 23.1313 98.4271C23.1313 98.4271 19.9538 99.4105 18.1409 100.912C16.328 102.414 13.1873 105.19 13.7392 108.371C14.2911 111.552 18.9537 113.285 20.1378 113.515C21.3251 113.746 22.3854 113.037 22.3854 113.037Z" fill="url(#paint16_linear_69_21200)"/>
<path d="M39.223 105.996L41.1195 102.749C41.1195 102.749 41.9925 96.1828 40.4505 92.5938C38.9086 89.0049 28.6602 82.1815 28.6602 82.1815C28.6602 82.1815 33.7844 82.991 35.9618 83.6265C38.1426 84.262 45.5312 87.3994 47.0765 93.634C48.6218 99.8721 43.2267 104.842 42.4674 105.304C41.7081 105.769 39.223 105.996 39.223 105.996Z" fill="url(#paint17_linear_69_21200)"/>
<path d="M46.1969 85.9544L46.4879 82.7602C46.4879 82.7602 45.859 81.3721 42.638 79.6963C39.417 78.0206 33.771 78.0206 33.771 78.0206C33.771 78.0206 38.36 76.278 40.2331 75.997C42.1062 75.7161 46.926 76.0539 48.5382 76.8065C50.1504 77.559 49.7825 82.4725 49.1235 83.8606C48.468 85.2453 46.1969 85.9544 46.1969 85.9544Z" fill="url(#paint18_linear_69_21200)"/>
<path opacity="0.5" d="M14.8765 15.7811C14.8765 15.7811 23.2184 19.9621 34.1926 15.7811C34.1926 15.7811 32.3329 27.1333 29.53 28.0933C26.7304 29.0566 20.3586 28.8893 17.8801 26.839C15.3983 24.792 14.8765 15.7811 14.8765 15.7811Z" fill="#A1AEC8"/>
<path opacity="0.5" d="M18.9001 17.2025C23.148 17.9618 27.9311 17.6139 29.7038 17.159C31.4765 16.7041 27.7672 24.561 25.0679 25.0862C22.3687 25.6113 19.9772 21.4169 19.4587 20.0054C18.9369 18.5939 18.9001 17.2025 18.9001 17.2025Z" fill="url(#paint19_linear_69_21200)"/>
<g opacity="0.5">
<path opacity="0.5" d="M21.2416 27.2803C20.4589 26.715 18.9203 21.6677 18.5122 19.2829C18.1042 16.9014 17.0706 16.8044 16.191 16.3663C16.191 16.3663 16.1843 16.3562 16.1776 16.3462C16.7729 16.577 17.4486 16.771 18.1844 16.9048C18.1844 16.9048 15.4384 15.801 15.144 14.7139C14.8497 13.6269 16.3281 13.1218 16.3281 13.1218L15.9802 12.2455C15.9802 12.2455 14.1373 12.9813 13.679 13.9145C13.4315 14.4229 13.9132 15.1019 14.8765 15.704C14.8765 15.7307 14.8731 15.7475 14.8731 15.7776C14.8731 17.3262 15.813 23.5107 16.8265 25.3737C17.8399 27.2368 19.4822 27.966 20.5191 28.1165C21.5593 28.2737 22.0243 27.8422 21.2416 27.2803Z" fill="#A192C8"/>
<path opacity="0.5" d="M35.0688 14.9847C34.8514 13.8709 32.6639 12.7069 32.6639 12.7069L32.3094 13.9043C33.6573 14.9546 32.3796 15.9948 30.7206 16.6671C30.142 16.8678 29.4964 17.0718 28.784 17.2592C27.1618 17.6839 28.7606 17.3127 30.0851 16.9983C30.4798 16.9146 30.9347 16.811 31.4096 16.6939C31.2725 16.7775 30.0583 17.219 29.7406 18.1923C29.3927 19.2593 27.4193 23.4972 25.8841 25.1896C24.3488 26.8821 23.6364 26.9824 22.2316 27.5878C20.8267 28.1932 23.6899 29.0629 27.5163 28.5277C31.3427 27.9959 32.015 24.8919 32.6807 22.3901C33.3262 19.9751 34.1323 16.0751 34.1891 15.8042C34.7611 15.5433 35.1257 15.2623 35.0688 14.9847Z" fill="#A192C8"/>
</g>
<path d="M3.48747 72.97C3.48747 72.97 3.62795 69.5182 4.61132 66.4443C5.59468 63.3705 3.74502 67.4478 3.32358 69.6419C3.07606 70.9163 3.23327 73.348 3.48747 72.97Z" fill="#E8E6ED"/>
<path opacity="0.51" d="M33.2929 23.8719C31.4332 27.006 29.9682 27.9258 28.4463 28.3774C27.59 28.6316 25.1483 28.8122 22.7301 28.5312C25.5965 27.1699 29.3159 17.4299 27.1786 17.5302C24.8105 17.644 22.3187 17.5102 18.1912 16.9081C16.4185 16.6506 18.5424 26.1364 21.1346 28.2703C19.8402 27.986 18.6628 27.5345 17.8835 26.8421C15.3883 24.6279 12.6756 17.7744 13.3881 22.223C13.552 23.2498 14.7427 27.3906 16.9068 29.0497C19.0709 30.7087 23.3789 29.8156 26.7237 29.5547C33.0621 29.0597 33.1323 27.3438 33.5738 25.9156C34.0087 24.484 35.1526 20.7345 33.2929 23.8719Z" fill="#838CA3"/>
<path opacity="0.79" d="M28.7839 17.2627C31.0316 16.7877 34.1757 15.3562 32.3127 13.9079L32.6672 12.7104C32.6672 12.7104 34.8547 13.8711 35.0721 14.9882C35.2862 16.1021 28.7839 17.2627 28.7839 17.2627Z" fill="#A192A4"/>
<path opacity="0.79" d="M18.1879 16.9082C18.1879 16.9082 15.4418 15.8044 15.1475 14.7174C14.8531 13.6303 16.3315 13.1252 16.3315 13.1252L15.9836 12.2489C15.9836 12.2489 14.1407 12.9848 13.6824 13.9179C13.2242 14.8545 15.2177 16.3663 18.1879 16.9082Z" fill="#A192A4"/>
<path d="M23.7937 30.6018C21.7567 30.4278 20.5526 30.3208 19.8034 30.0766C19.3451 29.9261 20.5727 27.5982 21.7601 27.6851C22.9475 27.7754 23.7937 30.6018 23.7937 30.6018Z" fill="#E8E6ED"/>
<path d="M18.9235 18.5071C19.1811 18.6342 21.0609 20.1862 20.8669 20.3869C20.6729 20.5876 18.9001 20.0156 18.6292 19.728C18.3616 19.4437 18.5155 18.3064 18.9235 18.5071Z" fill="#E8E6ED"/>
<path opacity="0.24" d="M30.1653 24.1629C32.7007 21.1326 32.8311 20.8182 32.2458 23.7883C31.6605 26.7551 29.8342 28.7888 26.2821 28.6617C22.7299 28.5346 25.6833 27.8455 26.5195 27.384C27.3557 26.9224 28.2722 26.4273 30.1653 24.1629Z" fill="#838CA3"/>
<path opacity="0.24" d="M17.88 24.6713C16.3548 21.9922 15.6524 20.768 15.9869 22.8785C16.3214 24.9891 17.0371 26.4508 18.4955 27.2937C19.9538 28.1365 20.6227 28.277 19.4521 26.9726C18.2847 25.6681 18.4587 25.6915 17.88 24.6713Z" fill="#838CA3"/>
<path opacity="0.51" d="M19.3016 32.6822C19.3283 31.458 20.208 31.9397 21.9841 33.214C23.7602 34.4884 24.3555 35.0102 22.9507 35.1774C21.5459 35.3446 19.4387 34.4014 19.3016 33.7258C19.2179 33.3244 19.3016 32.6822 19.3016 32.6822Z" fill="#838CA3"/>
<path opacity="0.24" d="M21.8636 15.781C29.3258 16.3329 33.2124 14.4766 30.3961 16.0854C27.5798 17.6942 22.6864 17.537 20.0507 17.139C17.415 16.741 16.1908 15.0786 16.0336 14.5803C15.8798 14.0785 16.0905 15.3529 21.8636 15.781Z" fill="#838CA3"/>
<path d="M18.3081 16.9015C22.0409 17.4801 25.6432 17.5437 26.9075 17.4701C27.9745 17.4099 24.2651 19.206 22.3252 19.477C20.3818 19.7512 17.3147 16.7476 18.3081 16.9015Z" fill="#E8E6ED"/>
<path d="M16.9535 14.5234C17.502 15.1756 22.6095 15.6807 26.0814 15.6405C29.5533 15.6004 32.0084 14.3695 32.3127 13.9046C32.6171 13.443 34.8414 6.02428 34.5103 4.17462C34.4501 3.84014 34.1122 3.50232 33.5637 3.17118C33.3396 3.03405 32.383 3.6127 32.092 3.4789C31.7341 3.31501 32.0284 2.44202 31.5903 2.28816C29.0415 1.38173 25.2486 0.615771 21.964 0.254535C21.6228 0.217742 21.1311 1.06397 20.8033 1.03387C20.3852 0.997076 20.1344 0.0906408 19.7431 0.0705721C14.1673 -0.217079 14.2543 0.301362 14.2476 3.22136C14.2409 6.14135 16.221 13.6571 16.9535 14.5234Z" fill="url(#paint20_linear_69_21200)"/>
<path opacity="0.47" d="M14.3648 1.26465C14.338 2.4186 18.5725 4.3084 24.5797 4.85025C30.5869 5.38876 34.6241 4.79005 33.8381 3.35514C33.8381 3.35514 34.6007 3.73644 34.5438 4.5994C34.487 5.46235 33.3932 11.6803 32.3128 13.9079C31.2325 16.1322 24.3021 15.8546 22.807 15.6439C21.3152 15.4331 17.6694 15.4298 16.9536 14.5234C16.2378 13.6169 15.2879 9.2754 14.6223 6.42565C13.9099 3.38524 14.3648 1.26465 14.3648 1.26465Z" fill="#9E2E46"/>
<path d="M31.6539 63.7819C27.9044 61.5476 29.3928 59.7347 29.7106 59.1694C30.3394 58.0389 32.6272 59.6176 32.9416 60.8251C33.2494 62.0292 32.6807 64.394 31.6539 63.7819Z" fill="#E8E6ED"/>
<path d="M34.1825 66.645C34.0788 65.1098 33.6273 65.7419 33.0219 66.0831C32.4165 66.4209 34.3598 69.2774 34.1825 66.645Z" fill="#E8E6ED"/>
<path opacity="0.5" d="M34.9618 58.7782C33.4132 58.3233 33.2827 59.6712 32.403 61.7082C31.5267 63.7452 28.9211 62.4307 25.6667 64.3807C22.4122 66.3307 15.4718 65.8156 12.9933 64.7352C10.5148 63.6548 8.71865 64.0261 9.85922 64.4375C15.1841 66.0999 26.4594 66.6049 29.3626 65.4711C33.3764 63.9024 32.2592 60.3168 34.7544 59.7013C35.5003 59.5174 36.1425 59.5709 36.574 59.5742C37.4537 59.2933 36.5138 59.233 34.9618 58.7782Z" fill="#77AF2A"/>
<path opacity="0.5" d="M23.1112 66.0832C26.7536 66.1133 29.0047 65.7855 29.8007 65.2838C30.5333 64.8223 31.8344 64.063 32.1153 63.2201C32.3929 62.3772 30.8276 63.0261 28.0046 64.1566C25.1816 65.2838 19.3751 66.0498 23.1112 66.0832Z" fill="#77AF2A"/>
<path d="M19.6159 65.9528C21.1244 65.4945 25.4225 65.9026 24.904 66.0832C24.3889 66.2672 18.6426 66.2505 19.6159 65.9528Z" fill="#E8E6ED"/>
<path opacity="0.31" d="M20.8033 1.03383C20.3852 0.997037 20.1343 0.0906013 19.743 0.0705327C15.7661 -0.136844 14.669 0.0705327 14.3646 1.26796C14.3412 2.42526 18.5723 4.31172 24.5796 4.85023C24.8271 4.87364 25.0712 4.89371 25.3154 4.91043C17.3214 4.01403 22.3854 1.60913 26.1784 1.69275C29.9747 1.77637 31.5902 2.28812 31.5902 2.28812C29.0415 1.38169 25.2485 0.615732 21.9639 0.254496C21.6228 0.217703 21.1311 1.06059 20.8033 1.03383Z" fill="url(#paint21_linear_69_21200)"/>
<path opacity="0.25" d="M19.5389 9.93436C19.5389 9.93436 18.2746 7.15484 18.6593 5.91393C19.0472 4.67302 27.8574 6.61634 29.7706 7.55622C31.6838 8.4961 30.8878 10.212 30.1887 11.4228L29.4562 8.81051C29.4562 8.81051 27.9745 6.75682 24.3721 7.03109C20.7698 7.30536 19.5389 9.93436 19.5389 9.93436Z" fill="url(#paint22_linear_69_21200)"/>
<path opacity="0.25" d="M22.4623 12.9313C22.4623 12.9313 21.0876 10.7873 21.6361 9.65674C22.1847 8.5262 25.5629 11.3659 25.7402 12.1553C25.9174 12.948 25.3154 12.1553 25.3154 12.1553L23.7935 11.0682L22.6061 10.9411L22.4623 12.9313Z" fill="url(#paint23_linear_69_21200)"/>
<path opacity="0.25" d="M24.3723 14.2993C24.3723 14.2993 23.4825 13.8611 23.5294 12.8075C23.5762 11.7572 24.5295 12.2957 24.7736 12.7071C25.0178 13.1185 24.971 13.5902 24.971 13.5902L24.3723 14.2993Z" fill="url(#paint24_linear_69_21200)"/>
<path d="M30.7006 9.82395C31.1187 7.19161 23.0745 5.55936 20.0508 5.97746C17.6459 6.30859 20.4354 12.8175 21.6764 15.4633C21.8068 15.4733 21.9339 15.4833 22.0644 15.4934C21.5593 14.5033 20.8636 12.8108 20.7733 10.8274C20.6261 7.64984 24.0545 7.44247 25.8941 7.44247C27.7338 7.44247 30.1587 9.7002 29.8644 11.4963C29.6336 12.9145 27.6903 14.8512 26.8775 15.6071C27.0113 15.597 27.1451 15.5904 27.2755 15.577C28.8576 14.1387 30.4397 11.4696 30.7006 9.82395Z" fill="#6F1B1A"/>
<path d="M23.9474 15.1956C23.0276 13.8376 23.0276 11.4762 23.5494 11.3692C24.0711 11.2655 25.68 12.5198 25.8472 13.2088C26.0145 13.8978 25.7435 14.443 25.1983 14.0851C24.6531 13.7273 25.379 13.4363 24.5662 12.9145C23.7634 12.3994 23.7467 13.9982 24.5662 14.4598C25.3856 14.9213 26.4727 15.0451 26.0947 13.1218C25.7201 11.1986 23.6965 10.2386 22.3887 10.2386C21.2582 10.2386 22.4857 13.754 23.9808 15.6037C24.0946 15.607 24.2049 15.6104 24.3187 15.6137C24.1916 15.5067 24.0645 15.3662 23.9474 15.1956Z" fill="#6F1B1A"/>
<path d="M20.8904 1.01383C20.8603 1.02387 20.8302 1.0339 20.8035 1.03056C20.3854 0.993765 20.1345 0.0873294 19.7432 0.0672607C18.2614 0.655942 16.4452 1.97379 16.3516 3.13442C16.2746 4.06762 19.2582 12.2021 20.4222 15.3395C20.5994 15.3596 20.7867 15.3797 20.9707 15.3964C20.4656 14.3093 18.4253 9.81061 17.6259 6.67655C16.8265 3.54583 20.0542 1.48879 20.8904 1.01383Z" fill="#6F1B1A"/>
<path d="M29.1486 4.22137C30.6169 4.18123 32.0886 3.47883 32.0886 3.47883C31.7307 3.31493 32.0251 2.44195 31.5869 2.28809C31.5902 2.28809 27.6835 4.26485 29.1486 4.22137Z" fill="#6F1B1A"/>
<path opacity="0.47" d="M20.8033 1.03385C20.8033 1.03385 17.512 2.65272 17.114 3.42871C16.7159 4.20136 17.425 6.96749 17.425 6.96749C17.425 6.96749 16.3447 4.37863 16.3513 3.25478C16.358 2.13094 17.7327 1.13419 18.7696 0.535477C19.8099 -0.0632385 20.1443 1.10743 20.8033 1.03385Z" fill="#9E2E46"/>
<path opacity="0.47" d="M21.315 14.6739C21.315 14.6739 19.539 10.0313 20.3952 8.29873C21.2515 6.56278 25.8506 6.68989 27.1885 6.92068C27.1885 6.92068 24.506 6.05438 21.8636 5.93397C19.2212 5.81355 19.3617 6.08448 19.1041 7.35884C18.8466 8.6332 20.6862 13.3794 21.315 14.6739Z" fill="#9E2E46"/>
<path opacity="0.47" d="M23.0109 14.1085C23.0109 14.1085 22.4289 11.8307 23.0109 11.329C23.5929 10.8273 24.9676 11.125 25.3155 11.5799C25.3155 11.5799 24.5997 10.8006 23.3855 10.3958C22.1714 9.99111 21.7098 10.155 22.0543 11.6836C22.4022 13.2088 23.0109 14.1085 23.0109 14.1085Z" fill="#9E2E46"/>
<path opacity="0.47" d="M25.3154 14.7373C24.7735 14.5667 24.9842 13.764 24.9842 13.764C24.9842 13.764 25.0411 13.3827 24.9106 13.2321C24.7835 13.0816 24.3554 12.5899 24.0778 12.9244C23.7968 13.2622 24.031 14.1118 24.5728 14.463C25.1147 14.8142 25.3154 14.7373 25.3154 14.7373Z" fill="#9E2E46"/>
<path opacity="0.47" d="M27.5198 7.03088C27.5198 7.03088 27.5365 7.04761 27.5733 7.07437C27.9446 7.39212 30.1622 9.37223 29.9748 10.7603C29.7708 12.2722 29.6939 12.4059 29.0751 13.4295C29.0751 13.4295 29.9715 12.0748 30.4833 10.6767C30.995 9.27858 30.4498 8.56948 29.7507 8.13132C29.0517 7.69315 27.5198 7.03088 27.5198 7.03088Z" fill="#9E2E46"/>
<path opacity="0.47" d="M30.7172 3.97056C29.9178 4.14449 31.8377 3.08754 31.8478 2.68616C31.8578 2.28479 31.5902 2.28479 31.5902 2.28479C31.5902 2.28479 28.493 3.86018 28.8442 4.15452C29.192 4.45221 30.7172 3.97056 30.7172 3.97056Z" fill="#9E2E46"/>
<path opacity="0.4" d="M14.7258 6.96753C16.027 10.4093 19.7731 13.6069 19.0807 11.3726C18.3884 9.13829 20.8903 14.0049 20.8802 11.8944C20.8702 9.78384 22.1646 13.5701 22.459 12.9346C22.7533 12.2958 23.9608 11.192 25.0311 12.162C26.1014 13.132 30.4329 9.83066 29.6904 12.2556C28.9445 14.6806 33.577 9.03795 34.0219 7.74017C34.0219 7.74017 33.1221 12.6871 32.1956 14.112C31.2691 15.5402 20.5591 17.052 16.9535 14.5267C16.9535 14.5267 15.649 11.2488 15.2744 9.44936C14.8998 7.64986 14.7258 6.96753 14.7258 6.96753Z" fill="#9E2E46"/>
<path d="M17.3482 1.53899C17.6559 1.31155 15.8263 1.81995 15.2343 1.82664C14.6422 1.83333 14.3546 1.32827 14.5753 1.75306C14.7961 2.18119 16.2043 2.95383 16.3514 2.92708C16.4953 2.90366 16.3146 2.30495 17.3482 1.53899Z" fill="#E28959"/>
<path d="M19.1743 2.28811C18.5154 2.92362 17.9602 3.41196 18.1074 3.60261C18.2512 3.79326 20.539 4.2515 20.937 4.32843C21.3317 4.40536 19.5155 3.53572 19.5122 2.93366C19.5055 2.32825 19.5557 1.92019 19.1743 2.28811Z" fill="#E28959"/>
<path d="M29.8443 4.18458C28.8408 4.15447 28.4227 4.28492 29.3526 3.57248C30.2824 2.86004 31.5903 2.28474 31.5903 2.28474C31.5903 2.28474 29.8342 1.63585 28.8141 1.46527C27.7939 1.29134 30.1052 2.5055 29.6971 2.99718C29.289 3.48886 26.9912 4.48226 28.4127 4.56588C29.8342 4.6495 29.8443 4.18458 29.8443 4.18458Z" fill="url(#paint25_linear_69_21200)"/>
<path d="M29.1019 5.04089C28.4697 5.03086 30.6171 4.7499 31.3061 4.41876C31.9951 4.09098 32.8748 3.06078 33.4869 3.15109C34.099 3.2414 34.1625 4.10435 33.4869 4.40204C32.8112 4.70307 31.1623 5.071 29.1019 5.04089Z" fill="#E28959"/>
<path d="M19.2648 33.1104L19.2113 34.2978C19.2113 34.2978 24.0746 37.4285 29.637 33.7024L29.6838 32.7592C29.6838 32.7592 30.8444 33.1538 31.3461 33.8228C31.8479 34.4918 30.7876 36.8732 30.7876 36.8732L31.2625 37.1241C31.2625 37.1241 31.2057 39.0473 31.878 39.5056C31.878 39.5056 29.3928 42.5928 24.8272 42.6263C20.2615 42.6631 17.7095 39.7765 17.7095 39.7765C17.7095 39.7765 17.9403 37.7997 17.7095 36.2645L18.1476 36.2009C18.1476 36.2009 17.9035 34.0703 18.064 33.4415C18.2212 32.8327 19.2648 33.1104 19.2648 33.1104Z" fill="url(#paint26_linear_69_21200)"/>
<path opacity="0.57" d="M19.2649 33.1104L19.2113 34.2978C19.2113 34.2978 24.0178 37.2211 29.637 33.7024L29.6839 32.7592C29.6839 32.7592 30.8445 33.0301 31.3462 33.8228C31.8479 34.6189 24.5764 37.9001 21.73 37.2077C18.8836 36.5187 17.8902 34.0502 18.0641 33.4448C18.238 32.8428 19.2649 33.1104 19.2649 33.1104Z" fill="#5F316E"/>
<path opacity="0.57" d="M18.1476 36.2075C18.1476 36.2075 19.7832 38.7997 24.3087 38.967C28.8342 39.1342 30.7876 36.8765 30.7876 36.8765L31.2625 37.1273C31.2625 37.1273 29.9815 40.9103 24.1816 39.7195C18.3818 38.5288 17.7095 36.2711 17.7095 36.2711L18.1476 36.2075Z" fill="#5F316E"/>
<path d="M18.1912 34.271C18.1912 34.271 19.131 36.8331 21.7266 37.2077C24.3221 37.5823 28.0616 35.9635 28.0616 35.9635C28.0616 35.9635 20.7901 36.8532 18.1912 34.271Z" fill="#5F316E"/>
<path d="M23.1279 39.4787C23.1279 39.4787 26.5731 39.7831 28.1351 39.0506C29.6971 38.3181 30.9748 37.6959 30.9748 37.6959C30.9748 37.6959 29.2723 41.2648 23.1279 39.4787Z" fill="#5F316E"/>
<path opacity="0.47" d="M22.3955 38.7295C22.3955 38.7295 23.8371 38.7797 25.3724 37.609C26.9076 36.4383 26.7638 36.5019 27.8575 36.0403C28.9513 35.5787 31.4866 34.6622 31.3461 33.826C31.3461 33.826 31.6806 34.2174 31.3461 35.271C31.0117 36.3246 30.7876 36.8765 30.7876 36.8765C30.7876 36.8765 28.1686 39.7898 22.3955 38.7295Z" fill="#6E2F9B"/>
<path opacity="0.47" d="M19.4889 36.1339C20.1645 36.7259 20.0006 37.5989 20.7733 38.2076C20.7733 38.2076 19.0741 37.5855 18.1476 36.2041C18.1476 36.2041 17.8499 34.2809 18.0439 33.5383C18.0439 33.5417 18.1443 34.9532 19.4889 36.1339Z" fill="#6E2F9B"/>
<path opacity="0.47" d="M21.2448 41.9137C21.2448 41.9137 22.6296 42.0073 23.914 41.2247C25.2017 40.442 25.1248 40.1878 26.7303 39.9403C28.3324 39.6928 30.0516 39.6493 31.2591 37.1273C31.2591 37.1273 31.1554 38.6726 31.8745 39.5088C31.8745 39.5088 29.1285 43.4891 24.0712 42.9305C19.0139 42.3719 17.7061 39.7797 17.7061 39.7797C17.7061 39.7797 17.8934 37.8364 17.7061 36.2677C17.7061 36.2677 17.9904 37.0102 18.7563 37.5387C19.5223 38.0672 19.5089 41.131 21.2448 41.9137Z" fill="#6E2F9B"/>
<path opacity="0.47" d="M22.3853 113.037L20.4989 111.833C20.4989 111.833 18.8365 105.077 23.1312 98.4271C23.1312 98.4271 20.5992 99.2132 18.7663 100.451C19.5891 99.9825 19.6192 100.702 18.8231 101.625C17.8565 102.742 16.1941 110.619 18.1107 112.8C18.9837 113.198 19.753 113.442 20.141 113.519C21.325 113.746 22.3853 113.037 22.3853 113.037Z" fill="#6E2F9B"/>
<path opacity="0.47" d="M42.5747 90.5568C44.4578 93.149 45.6652 101.494 42.471 105.307C43.2302 104.846 48.6254 99.872 47.0801 93.6374C45.5348 87.3994 38.1462 84.2653 35.9654 83.6298C34.2361 83.205 40.6915 87.9646 42.5747 90.5568Z" fill="#6E2F9B"/>
<path opacity="0.47" d="M48.5416 76.8065C47.371 76.2613 44.5179 75.9368 42.3237 75.9034C42.1832 75.9067 42.0494 75.9034 41.9123 75.9C41.25 75.9034 40.6647 75.9335 40.2365 75.997C40.0191 76.0305 39.7649 76.084 39.4873 76.1509C39.3335 76.4151 40.183 76.8533 42.2735 77.3885C46.0598 78.3584 49.6354 81.4457 49.127 83.8606C49.7892 82.4725 50.1538 77.5557 48.5416 76.8065Z" fill="#6E2F9B"/>
<path opacity="0.56" d="M17.9636 103.792C18.2445 102.735 18.5589 101.926 18.8232 101.622C19.6226 100.702 19.5891 99.9792 18.7663 100.447C18.88 100.371 18.9971 100.297 19.1142 100.223C18.7663 100.437 18.4352 100.668 18.1408 100.912C16.9267 101.919 15.1172 103.501 14.2241 105.391C13.3912 107.415 17.2277 105.174 17.9636 103.792Z" fill="url(#paint27_linear_69_21200)"/>
<path opacity="0.28" d="M42.5744 102.598C43.5545 101.973 44.3472 100.257 44.4141 97.2733C44.4007 97.0559 44.384 96.8418 44.3672 96.6244C43.9625 94.0556 40.9121 92.7679 41.0191 94.5005C41.668 97.7516 41.2298 101.836 41.1362 102.615C41.1362 102.662 41.1328 102.709 41.1195 102.749C40.7114 104.03 41.5911 103.227 42.5744 102.598Z" fill="url(#paint28_linear_69_21200)"/>
<path opacity="0.56" d="M41.444 89.2525C38.9187 86.6402 34.4969 83.2686 35.9652 83.6299C33.7844 82.9944 28.6636 82.1849 28.6636 82.1849C28.6636 82.1849 35.0722 86.4529 38.5173 90.0117C40.3302 90.781 43.1665 91.6139 41.444 89.2525Z" fill="url(#paint29_linear_69_21200)"/>
<path opacity="0.28" d="M47.3576 80.1211C47.0466 79.8301 46.7021 79.5525 46.3308 79.2883C44.5748 78.927 43.384 79.6863 44.3373 80.6998C44.9695 81.1279 45.4277 81.5159 45.7521 81.8336C46.2973 82.245 46.5214 82.4324 46.4913 82.7568C46.4445 83.2619 48.157 81.2249 47.3576 80.1211Z" fill="url(#paint30_linear_69_21200)"/>
<path opacity="0.56" d="M40.959 77.0105C39.8285 76.646 39.3702 76.3483 39.4873 76.1476C37.3634 76.656 33.7744 78.0173 33.7744 78.0173C33.7744 78.0173 37.8985 78.0173 41.1062 79.0642C41.2366 79.0977 41.3537 79.1345 41.4407 79.178C41.6079 79.2382 41.7718 79.3017 41.929 79.3653C43.3037 79.7365 41.6748 77.2714 40.959 77.0105Z" fill="url(#paint31_linear_69_21200)"/>
<path opacity="0.56" d="M14.1072 109.154C16.3147 111.796 16.967 107.321 17.2312 108.742C17.4921 110.164 16.9235 112.117 15.7461 111.371C14.5621 110.626 14.1072 109.154 14.1072 109.154Z" fill="url(#paint32_linear_69_21200)"/>
<path opacity="0.47" d="M18.3216 102.635C18.3216 102.635 16.0939 108.87 18.1075 112.8C18.1075 112.8 20.2047 111.057 20.0374 108.458C19.8735 105.859 18.3216 102.635 18.3216 102.635Z" fill="#6E2F9B"/>
<path d="M17.328 107.361C17.328 107.361 17.7495 103.468 18.8232 101.625C18.8232 101.625 16.7527 104.491 17.328 107.361Z" fill="#5F316E"/>
<path opacity="0.47" d="M40.9221 88.7273C40.9221 88.7273 47.5983 93.4802 47.3541 96.0022C47.11 98.5242 44.4141 99.4841 44.4141 99.4841C44.4141 99.4841 45.1901 91.7777 40.9221 88.7273Z" fill="#6E2F9B"/>
<path opacity="0.47" d="M43.5078 77.7765C43.5078 77.7765 47.5015 78.9304 49.03 82.516C49.03 82.5194 48.7457 72.5854 43.5078 77.7765Z" fill="#6E2F9B"/>
<path d="M41.7317 77.2415C41.7317 77.2415 45.1768 77.9171 47.3543 80.1247C47.3576 80.1213 43.1198 77.6897 41.7317 77.2415Z" fill="#5F316E"/>
<path d="M35.3197 78.131L39.6111 76.4185L39.4873 76.1509C39.4873 76.1509 36.9018 76.773 33.7744 78.0206L35.3197 78.131Z" fill="#5F316E"/>
<path d="M28.6602 82.1815C28.6602 82.1815 33.9984 82.9542 35.8347 83.6031C35.8347 83.6031 35.5471 83.8673 36.3598 84.5329L30.8042 83.7669L28.6602 82.1815Z" fill="#5F316E"/>
<path d="M19.402 100.859L22.409 99.648L23.1315 98.4271C23.1315 98.4271 20.0844 99.4005 18.7665 100.451C17.4487 101.501 16.1743 102.598 17.0941 102.013C18.0106 101.427 19.402 100.859 19.402 100.859Z" fill="#5F316E"/>
<path d="M37.9087 85.9545C37.9087 85.9545 43.461 89.8378 43.6885 93.0186C43.6851 93.0186 41.6849 89.5668 37.9087 85.9545Z" fill="#5F316E"/>
<defs>
<linearGradient id="paint0_linear_69_21200" x1="23.2434" y1="105.807" x2="23.2434" y2="42.1645" gradientUnits="userSpaceOnUse">
<stop stop-color="#D3CFD8"/>
<stop offset="1" stop-color="#9C8CA3"/>
</linearGradient>
<linearGradient id="paint1_linear_69_21200" x1="17.9635" y1="109.733" x2="17.9635" y2="76.3057" gradientUnits="userSpaceOnUse">
<stop stop-color="#D3CFD8"/>
<stop offset="1" stop-color="#9C8CA3"/>
</linearGradient>
<linearGradient id="paint2_linear_69_21200" x1="22.2639" y1="119.031" x2="22.2639" y2="43.3947" gradientUnits="userSpaceOnUse">
<stop stop-color="#BFE79F"/>
<stop offset="1" stop-color="#8E8096"/>
</linearGradient>
<linearGradient id="paint3_linear_69_21200" x1="24.7687" y1="28.8691" x2="25.1162" y2="37.8466" gradientUnits="userSpaceOnUse">
<stop stop-color="#9C8CA3"/>
<stop offset="1" stop-color="#D3CFD8"/>
</linearGradient>
<linearGradient id="paint4_linear_69_21200" x1="23.7696" y1="29.986" x2="23.7696" y2="10.5218" gradientUnits="userSpaceOnUse">
<stop stop-color="#BFE79F"/>
<stop offset="1" stop-color="#8E8096"/>
</linearGradient>
<linearGradient id="paint5_linear_69_21200" x1="23.2277" y1="104.613" x2="23.2277" y2="67.4786" gradientUnits="userSpaceOnUse">
<stop stop-color="#77AF2A"/>
<stop offset="1" stop-color="#4C7006"/>
</linearGradient>
<linearGradient id="paint6_linear_69_21200" x1="23.2764" y1="104.613" x2="23.2764" y2="64.803" gradientUnits="userSpaceOnUse">
<stop stop-color="#77AF2A"/>
<stop offset="1" stop-color="#59890E"/>
</linearGradient>
<linearGradient id="paint7_linear_69_21200" x1="18.3179" y1="107.789" x2="18.3179" y2="67.477" gradientUnits="userSpaceOnUse">
<stop stop-color="#77AF2A"/>
<stop offset="1" stop-color="#59890E"/>
</linearGradient>
<linearGradient id="paint8_linear_69_21200" x1="13.4355" y1="105.608" x2="40.2896" y2="105.608" gradientUnits="userSpaceOnUse">
<stop stop-color="#77AF2A"/>
<stop offset="1" stop-color="#59890E"/>
</linearGradient>
<linearGradient id="paint9_linear_69_21200" x1="9.38158" y1="59.4664" x2="35.6307" y2="59.4664" gradientUnits="userSpaceOnUse">
<stop stop-color="#77AF2A"/>
<stop offset="1" stop-color="#59890E"/>
</linearGradient>
<linearGradient id="paint10_linear_69_21200" x1="18.3216" y1="104.276" x2="18.3216" y2="80.4616" gradientUnits="userSpaceOnUse">
<stop stop-color="white"/>
<stop offset="1" stop-color="#59890E"/>
</linearGradient>
<linearGradient id="paint11_linear_69_21200" x1="22.5374" y1="98.3166" x2="15.57" y2="105.284" gradientUnits="userSpaceOnUse">
<stop/>
<stop offset="0.1187" stop-color="#000800"/>
<stop offset="0.3019" stop-color="#001E00"/>
<stop offset="0.5268" stop-color="#004100"/>
<stop offset="0.7821" stop-color="#007200"/>
<stop offset="1" stop-color="#00A100"/>
</linearGradient>
<linearGradient id="paint12_linear_69_21200" x1="30.4048" y1="95.1319" x2="40.6395" y2="95.1319" gradientUnits="userSpaceOnUse">
<stop/>
<stop offset="0.1187" stop-color="#000800"/>
<stop offset="0.3019" stop-color="#001E00"/>
<stop offset="0.5268" stop-color="#004100"/>
<stop offset="0.7821" stop-color="#007200"/>
<stop offset="1" stop-color="#00A100"/>
</linearGradient>
<linearGradient id="paint13_linear_69_21200" x1="30.576" y1="84.4452" x2="39.3491" y2="84.4452" gradientUnits="userSpaceOnUse">
<stop/>
<stop offset="0.1187" stop-color="#000800"/>
<stop offset="0.3019" stop-color="#001E00"/>
<stop offset="0.5268" stop-color="#004100"/>
<stop offset="0.7821" stop-color="#007200"/>
<stop offset="1" stop-color="#00A100"/>
</linearGradient>
<linearGradient id="paint14_linear_69_21200" x1="28.8889" y1="63.1392" x2="9.51477" y2="59.9503" gradientUnits="userSpaceOnUse">
<stop/>
<stop offset="0.1187" stop-color="#000800"/>
<stop offset="0.3019" stop-color="#001E00"/>
<stop offset="0.5268" stop-color="#004100"/>
<stop offset="0.7821" stop-color="#007200"/>
<stop offset="1" stop-color="#00A100"/>
</linearGradient>
<linearGradient id="paint15_linear_69_21200" x1="24.5673" y1="112.525" x2="24.5673" y2="76.4222" gradientUnits="userSpaceOnUse">
<stop stop-color="white"/>
<stop offset="0.0984" stop-color="#E8EAF4"/>
<stop offset="0.2731" stop-color="#C5CAE4"/>
<stop offset="0.4506" stop-color="#AAB2D7"/>
<stop offset="0.6297" stop-color="#96A0CD"/>
<stop offset="0.8115" stop-color="#8B95C8"/>
<stop offset="1" stop-color="#8792C6"/>
</linearGradient>
<linearGradient id="paint16_linear_69_21200" x1="18.4042" y1="113.562" x2="18.4042" y2="98.4272" gradientUnits="userSpaceOnUse">
<stop stop-color="#361C3E"/>
<stop offset="1" stop-color="#5F316E"/>
</linearGradient>
<linearGradient id="paint17_linear_69_21200" x1="27.6242" y1="83.2181" x2="46.1539" y2="101.748" gradientUnits="userSpaceOnUse">
<stop stop-color="#5F316E"/>
<stop offset="1" stop-color="#361C3E"/>
</linearGradient>
<linearGradient id="paint18_linear_69_21200" x1="33.776" y1="80.9266" x2="49.6894" y2="80.9266" gradientUnits="userSpaceOnUse">
<stop stop-color="#5F316E"/>
<stop offset="1" stop-color="#361C3E"/>
</linearGradient>
<linearGradient id="paint19_linear_69_21200" x1="24.3737" y1="25.1271" x2="24.5422" y2="17.0283" gradientUnits="userSpaceOnUse">
<stop stop-color="#D56833"/>
<stop offset="0.3394" stop-color="#C65838"/>
<stop offset="1" stop-color="#9E2E46"/>
</linearGradient>
<linearGradient id="paint20_linear_69_21200" x1="24.3942" y1="15.6432" x2="24.3942" y2="0.000331424" gradientUnits="userSpaceOnUse">
<stop stop-color="#9E2E46"/>
<stop offset="0.6606" stop-color="#C65838"/>
<stop offset="1" stop-color="#D56833"/>
</linearGradient>
<linearGradient id="paint21_linear_69_21200" x1="22.9771" y1="15.6432" x2="22.9771" y2="0.000318877" gradientUnits="userSpaceOnUse">
<stop stop-color="#9E2E46"/>
<stop offset="0.6606" stop-color="#C65838"/>
<stop offset="1" stop-color="#D56833"/>
</linearGradient>
<linearGradient id="paint22_linear_69_21200" x1="18.5858" y1="8.4668" x2="30.9642" y2="8.4668" gradientUnits="userSpaceOnUse">
<stop stop-color="#9E2E46"/>
<stop offset="0.6606" stop-color="#C65838"/>
<stop offset="1" stop-color="#D56833"/>
</linearGradient>
<linearGradient id="paint23_linear_69_21200" x1="21.5048" y1="11.1625" x2="25.7702" y2="11.1625" gradientUnits="userSpaceOnUse">
<stop stop-color="#9E2E46"/>
<stop offset="0.6606" stop-color="#C65838"/>
<stop offset="1" stop-color="#D56833"/>
</linearGradient>
<linearGradient id="paint24_linear_69_21200" x1="23.5287" y1="13.2486" x2="24.9766" y2="13.2486" gradientUnits="userSpaceOnUse">
<stop stop-color="#9E2E46"/>
<stop offset="0.6606" stop-color="#C65838"/>
<stop offset="1" stop-color="#D56833"/>
</linearGradient>
<linearGradient id="paint25_linear_69_21200" x1="29.7713" y1="11.4096" x2="29.7713" y2="1.45069" gradientUnits="userSpaceOnUse">
<stop stop-color="#9E2E46"/>
<stop offset="0.6606" stop-color="#C65838"/>
<stop offset="1" stop-color="#D56833"/>
</linearGradient>
<linearGradient id="paint26_linear_69_21200" x1="17.7074" y1="37.6958" x2="31.8759" y2="37.6958" gradientUnits="userSpaceOnUse">
<stop stop-color="#5F316E"/>
<stop offset="1" stop-color="#361C3E"/>
</linearGradient>
<linearGradient id="paint27_linear_69_21200" x1="16.7538" y1="106.2" x2="16.7538" y2="100.225" gradientUnits="userSpaceOnUse">
<stop/>
<stop offset="1" stop-color="#5F316E"/>
</linearGradient>
<linearGradient id="paint28_linear_69_21200" x1="42.7145" y1="103.429" x2="42.7145" y2="93.7074" gradientUnits="userSpaceOnUse">
<stop/>
<stop offset="1" stop-color="#5F316E"/>
</linearGradient>
<linearGradient id="paint29_linear_69_21200" x1="35.319" y1="90.8061" x2="35.319" y2="82.1822" gradientUnits="userSpaceOnUse">
<stop/>
<stop offset="1" stop-color="#5F316E"/>
</linearGradient>
<linearGradient id="paint30_linear_69_21200" x1="45.7849" y1="82.8381" x2="45.7849" y2="79.1978" gradientUnits="userSpaceOnUse">
<stop/>
<stop offset="1" stop-color="#5F316E"/>
</linearGradient>
<linearGradient id="paint31_linear_69_21200" x1="38.1199" y1="79.4065" x2="38.1199" y2="76.1488" gradientUnits="userSpaceOnUse">
<stop/>
<stop offset="1" stop-color="#5F316E"/>
</linearGradient>
<linearGradient id="paint32_linear_69_21200" x1="14.1057" y1="109.997" x2="17.2907" y2="109.997" gradientUnits="userSpaceOnUse">
<stop/>
<stop offset="1" stop-color="#5F316E"/>
</linearGradient>
</defs>
</svg>
