<svg width="39" height="39" viewBox="0 0 39 39" fill="none" xmlns="http://www.w3.org/2000/svg">
<path d="M0.727353 39C0.611997 39.0003 0.498234 38.9731 0.395501 38.9207C0.292768 38.8684 0.204028 38.7923 0.136643 38.6988C0.0692588 38.6053 0.0251729 38.4971 0.00804321 38.3833C-0.00908648 38.2694 0.00123424 38.153 0.0381486 38.0439L2.90379 29.6276C0.649286 25.8831 -0.289489 21.4947 0.236143 17.1575C0.761775 12.8202 2.72177 8.78196 5.8057 5.68234C9.4671 2.04313 14.4233 0 19.5898 0C24.7563 0 29.7125 2.04313 33.3739 5.68234C36.6014 8.95099 38.5715 13.2509 38.9378 17.8263C39.3041 22.4016 38.0432 26.9594 35.3767 30.6984C32.7101 34.4373 28.8087 37.1182 24.3583 38.2696C19.9079 39.421 15.1934 38.9692 11.0437 36.9937L0.872449 39H0.727353ZM11.138 35.4872C11.2515 35.4878 11.3634 35.5151 11.4644 35.5668C15.3027 37.4782 19.6963 37.9661 23.8614 36.9434C28.0266 35.9208 31.6923 33.4541 34.2048 29.9834C36.7173 26.5127 37.9131 22.2637 37.5789 17.9945C37.2446 13.7253 35.4021 9.71342 32.38 6.67463C30.7005 4.99751 28.7065 3.66713 26.5119 2.75946C24.3174 1.85179 21.9652 1.38461 19.5898 1.38461C17.2144 1.38461 14.8622 1.85179 12.6676 2.75946C10.4731 3.66713 8.47912 4.99751 6.79961 6.67463C3.91006 9.58969 2.09359 13.3952 1.64573 17.4719C1.19787 21.5487 2.14499 25.6568 4.33298 29.1278C4.39105 29.2196 4.42772 29.3232 4.44028 29.431C4.45284 29.5389 4.44096 29.6481 4.40553 29.7507L1.82283 37.3486L11.0074 35.5234L11.138 35.4872Z" fill="url(#paint0_linear_362_111)"/>
<path d="M25.2068 29.8863C24.9897 29.8981 24.7722 29.8981 24.5551 29.8863C20.7937 29.4761 16.0547 25.7632 14.7159 24.4549C13.4055 23.1465 9.67946 18.387 9.27569 14.6317C8.94984 11.6331 10.9545 9.59637 11.8329 8.8538C12.2257 8.51695 12.7324 8.34242 13.2496 8.36582L15.1622 8.42947C15.3021 8.43464 15.4373 8.48106 15.5507 8.56287C15.6642 8.64469 15.7508 8.75822 15.7997 8.88916C16.2247 10.0136 17.599 13.7548 17.599 14.7236C17.599 15.5723 16.8481 16.23 16.1822 16.8099C16.0406 16.9301 15.8493 17.0999 15.736 17.2201C16.4519 18.5263 17.3095 19.7501 18.2932 20.8693C19.4143 21.8513 20.64 22.7074 21.9483 23.4223C22.0688 23.3021 22.2388 23.1112 22.3592 22.9768C22.94 22.312 23.5988 21.5624 24.4843 21.5624C25.4547 21.5624 29.202 22.9344 30.3283 23.3587C30.4594 23.4075 30.5732 23.494 30.6551 23.6073C30.737 23.7206 30.7835 23.8555 30.7887 23.9952L30.8525 25.9047C30.867 26.4197 30.6933 26.9225 30.3637 27.3191C29.7378 28.09 28.9536 28.718 28.064 29.1609C27.1745 29.6037 26.2002 29.851 25.2068 29.8863ZM15.7218 23.4365C16.8906 24.6034 21.3887 28.1041 24.711 28.4648C27.0415 28.7123 28.6707 27.1069 29.2657 26.4068C29.372 26.2748 29.4273 26.1092 29.4216 25.94L29.372 24.5256C27.7797 23.8881 26.1409 23.3727 24.4701 22.9839C24.2434 22.9839 23.6838 23.6416 23.443 23.9174C22.9613 24.469 22.5788 24.9004 22.0263 24.9004C21.1266 24.9004 17.9886 22.5808 17.2873 21.8806C16.586 21.1805 14.2838 18.0263 14.2838 17.1565C14.2838 16.626 14.7159 16.2442 15.2685 15.742C15.5376 15.5016 16.1822 14.95 16.2035 14.7166C15.8139 13.0485 15.2977 11.4125 14.6593 9.82267L13.2425 9.77317C13.0731 9.7675 12.9072 9.8227 12.775 9.92876C12.0666 10.5228 10.4587 12.1494 10.7137 14.4691C11.0749 17.8071 14.5813 22.2484 15.7501 23.4436L15.7218 23.4365Z" fill="url(#paint1_linear_362_111)"/>
<defs>
<linearGradient id="paint0_linear_362_111" x1="19.5" y1="0" x2="19.5" y2="39" gradientUnits="userSpaceOnUse">
<stop stop-color="#FE2DAD"/>
<stop offset="1" stop-color="#B44F22"/>
</linearGradient>
<linearGradient id="paint1_linear_362_111" x1="20.0468" y1="8.36374" x2="20.0468" y2="29.8951" gradientUnits="userSpaceOnUse">
<stop stop-color="#FE2DAD"/>
<stop offset="1" stop-color="#B44F22"/>
</linearGradient>
</defs>
</svg>
