<?xml version="1.0" standalone="no"?>
<!DOCTYPE svg PUBLIC "-//W3C//DTD SVG 20010904//EN"
 "http://www.w3.org/TR/2001/REC-SVG-20010904/DTD/svg10.dtd">
<svg version="1.0" xmlns="http://www.w3.org/2000/svg"
 width="512.000000pt" height="512.000000pt" viewBox="0 0 512.000000 512.000000"
 preserveAspectRatio="xMidYMid meet">
<metadata>
Created by potrace 1.14, written by Peter Selinger 2001-2017
</metadata>
<g transform="translate(0.000000,512.000000) scale(0.100000,-0.100000)"
fill="#000000" stroke="none">
<path d="M1589 5100 c-76 -40 -74 -26 -77 -481 l-3 -407 -117 -5 c-64 -2 -130
-8 -146 -11 -144 -33 -295 -188 -322 -331 -5 -22 -9 -43 -10 -47 -1 -5 -2 -53
-3 -108 l-1 -100 -389 0 c-396 0 -434 -3 -472 -39 -73 -70 -56 -196 31 -241
37 -19 58 -20 435 -20 l395 0 0 -300 0 -300 -396 0 c-392 0 -397 0 -436 -22
-43 -24 -78 -80 -78 -123 0 -30 23 -90 43 -109 44 -45 56 -46 472 -46 l395 0
0 -300 0 -300 -395 0 c-404 0 -425 -2 -466 -40 -73 -68 -56 -195 33 -241 35
-18 63 -19 433 -19 l395 0 1 -82 c1 -165 20 -241 84 -328 97 -132 224 -190
414 -190 l101 0 0 -396 c0 -392 0 -397 22 -436 36 -63 117 -93 181 -67 38 16
49 26 76 70 20 33 21 47 21 432 l0 397 300 0 300 0 0 -396 c0 -392 0 -397 22
-436 53 -94 184 -102 249 -15 l24 32 3 408 3 407 299 0 300 0 0 -397 c1 -438
0 -434 64 -484 42 -33 129 -33 171 -1 65 51 64 46 65 483 l0 397 123 4 c173 6
272 47 364 152 80 91 113 194 113 351 l0 95 398 0 c384 0 398 1 431 21 42 25
55 38 65 64 31 76 7 152 -59 191 l-42 24 -396 0 -397 0 0 300 0 300 395 0
c345 0 400 2 428 16 108 55 114 200 12 260 l-42 24 -396 0 -397 0 0 300 0 299
408 3 c380 3 409 4 435 22 69 47 87 157 34 217 -51 59 -50 59 -482 59 l-395 0
-1 93 c-1 116 -4 144 -28 211 -43 122 -144 224 -266 267 -74 26 -85 27 -202
28 l-103 1 0 396 c0 389 0 397 -22 435 -27 49 -55 68 -111 75 -60 8 -120 -22
-147 -76 -19 -37 -20 -58 -20 -435 l0 -395 -300 0 -300 0 0 395 c0 372 -1 398
-19 434 -24 47 -58 70 -114 77 -71 10 -148 -42 -161 -109 -3 -16 -6 -202 -6
-413 l0 -384 -300 0 -300 0 0 395 c0 348 -2 400 -16 428 -42 81 -127 109 -205
67z m2246 -1214 c82 -48 76 56 73 -1341 -3 -1222 -3 -1240 -23 -1267 -11 -15
-38 -37 -61 -48 -41 -20 -52 -20 -1280 -18 l-1239 3 -32 24 c-67 50 -63 -27
-63 1329 1 1379 -5 1269 76 1318 l39 24 1234 0 1234 0 42 -24z"/>
<path d="M1895 2991 c-44 -22 -330 -304 -364 -361 -26 -44 -27 -90 -2 -138 24
-45 335 -353 374 -370 39 -17 75 -15 125 8 33 15 47 29 62 62 41 89 20 135
-123 275 l-94 92 112 114 c110 112 125 136 125 199 0 62 -79 138 -142 138 -18
0 -51 -9 -73 -19z"/>
<path d="M2570 2992 c-19 -9 -44 -31 -56 -49 -16 -24 -102 -334 -139 -503 -2
-8 -10 -43 -19 -78 -28 -104 -23 -156 18 -200 68 -76 195 -60 242 29 8 17 50
173 94 349 70 282 78 323 68 357 -25 93 -123 138 -208 95z"/>
<path d="M3087 2989 c-53 -28 -82 -90 -72 -154 6 -45 15 -57 116 -159 60 -61
109 -113 109 -116 0 -4 -46 -53 -103 -111 -114 -116 -133 -147 -123 -213 13
-87 102 -142 188 -116 34 10 75 44 210 179 200 198 224 241 182 324 -23 44
-321 344 -366 368 -47 24 -92 24 -141 -2z"/>
</g>
</svg>
